<svg width="255" height="255" viewBox="0 0 255 255" fill="none" xmlns="http://www.w3.org/2000/svg">
<path d="M239.496 246.6C239.496 246.677 189.409 246.733 127.638 246.733C65.8666 246.733 15.7693 246.677 15.7693 246.6C15.7693 246.524 65.8411 246.468 127.638 246.468C189.434 246.468 239.496 246.529 239.496 246.6Z" fill="#263238"/>
<path d="M23.46 146.263C23.46 146.263 32.13 153.561 33.5682 153.454C34.5459 153.4 35.5267 153.444 36.4956 153.587L27.1779 144.973L23.46 146.263Z" fill="#0984E3"/>
<path d="M122.64 157.478L34.3434 153.643C34.075 153.632 33.8114 153.567 33.5678 153.454C33.3242 153.341 33.1053 153.181 32.9238 152.983C32.7424 152.784 32.6018 152.552 32.5102 152.3C32.4186 152.047 32.3778 151.779 32.3901 151.511C33.8793 102.877 36.2916 45.1554 37.6839 28.0908C37.7206 27.5587 37.9644 27.0621 38.3628 26.7074C38.7613 26.3528 39.2829 26.1684 39.8157 26.1936L128.173 30.0288C128.445 30.0392 128.712 30.1037 128.958 30.2186C129.204 30.3335 129.425 30.4965 129.607 30.6979C129.79 30.8994 129.93 31.1353 130.02 31.3917C130.11 31.6481 130.148 31.92 130.132 32.1912L124.777 155.489C124.755 156.035 124.519 156.551 124.118 156.924C123.718 157.297 123.186 157.496 122.64 157.478Z" fill="#0984E3"/>
<path d="M121.492 155.53L33.3029 152.347L26.3516 147.023L30.5387 20.706L121.89 26.9331L126.403 31.9923L121.492 155.53Z" fill="white"/>
<path d="M121.492 155.53L113.286 148.191L120.406 25.6377L126.403 31.9923L121.492 155.53Z" fill="#E0E0E0"/>
<path d="M114.434 150.848L24.9389 146.962C24.3951 146.94 23.8815 146.706 23.5092 146.309C23.137 145.912 22.9361 145.384 22.9499 144.84C24.4289 96.2013 26.8412 38.4846 28.2437 21.42C28.288 20.8861 28.5375 20.3902 28.9398 20.0364C29.3421 19.6826 29.8658 19.4986 30.401 19.5228L119.962 23.409C120.511 23.4342 121.028 23.6757 121.4 24.0809C121.772 24.4861 121.968 25.022 121.946 25.5714L116.596 148.869C116.571 149.418 116.329 149.934 115.924 150.305C115.519 150.676 114.983 150.871 114.434 150.848Z" fill="#0984E3"/>
<path d="M30.6356 147.212C30.5591 147.212 31.727 118.937 33.2417 84.0735C34.7564 49.2099 36.0467 20.9406 36.1181 20.9457C36.1895 20.9508 35.0216 49.215 33.5069 84.0888C31.9922 118.963 30.707 147.212 30.6356 147.212Z" fill="#263238"/>
<g opacity="0.3">
<path d="M108.747 143.932L36.6841 140.806L41.6668 26.0916L113.73 29.223L108.747 143.932ZM38.8108 138.832L106.799 141.785L111.603 31.1508L43.615 28.2183L38.8108 138.832Z" fill="black"/>
</g>
<g opacity="0.3">
<path d="M79.8705 132.316L64.8245 131.662L64.641 135.88L79.6871 136.535L79.8705 132.316Z" fill="black"/>
</g>
<g opacity="0.3">
<path d="M81.8955 34.4177L74.8845 34.1128L74.7011 38.3316L81.712 38.6365L81.8955 34.4177Z" fill="black"/>
</g>
<g opacity="0.3">
<path d="M103.184 54.5388L50.3474 52.2411L49.5283 71.078L102.365 73.3757L103.184 54.5388Z" fill="black"/>
</g>
<g opacity="0.3">
<path d="M94.5359 77.9358L55.5872 76.3778L55.2695 84.3185L94.2182 85.8765L94.5359 77.9358Z" fill="black"/>
</g>
<g opacity="0.3">
<path d="M32.5222 37.4571L27.1111 37.2218L26.9629 40.6305L32.3739 40.8658L32.5222 37.4571Z" fill="black"/>
</g>
<g opacity="0.3">
<path d="M32.2885 42.7258L26.8774 42.4905L26.7292 45.8992L32.1403 46.1345L32.2885 42.7258Z" fill="black"/>
</g>
<g opacity="0.3">
<path d="M28.3281 133.845L23.3196 133.627L23.1713 137.035L28.1799 137.253L28.3281 133.845Z" fill="black"/>
</g>
<g opacity="0.3">
<path d="M31.7287 55.5556L26.3176 55.3203L23.7682 113.945L29.1793 114.181L31.7287 55.5556Z" fill="black"/>
</g>
<path d="M124.154 29.8605C124.154 29.8605 124.154 30.0441 124.154 30.4113C124.154 30.7785 124.124 31.3191 124.098 32.0229C124.042 33.4458 123.96 35.5317 123.853 38.2245C123.629 43.6101 123.303 51.4029 122.905 61.0215C122.079 80.2791 120.936 106.876 119.676 136.247C119.416 142.28 119.166 148.191 118.911 153.852V153.984H118.779L55.4777 151.19L36.7811 150.338L31.7474 150.098L30.4418 150.027L30.0032 149.996H30.4469L31.7474 150.037L36.7862 150.236L55.4828 151.006L118.789 153.714L118.651 153.836C118.901 148.175 119.161 142.259 119.416 136.231C120.707 106.86 121.875 80.2689 122.721 61.0113C123.16 51.3876 123.512 43.5999 123.741 38.2143C123.869 35.5266 123.966 33.4356 124.032 32.0127C124.068 31.3089 124.098 30.7734 124.119 30.4011C124.139 30.0288 124.154 29.8605 124.154 29.8605Z" fill="#263238"/>
<path d="M16.32 104.79C16.5903 105.004 61.3428 89.0256 61.3428 89.0256L59.9658 84.9099L16.0344 96.6399L13.6323 100.394L16.32 104.79Z" fill="#263238"/>
<path d="M24.6533 124.552C24.2657 124.685 22.8326 124.654 23.1233 122.823C23.414 120.992 37.2452 98.8992 38.8109 96.8541C40.6258 94.4915 42.9245 92.5441 45.5531 91.1421C48.7202 89.3724 58.3031 85.4607 58.3031 85.4607L59.6138 89.3928C59.6138 89.3928 50.1431 92.0499 45.8438 94.9212C41.5445 97.7925 40.3307 100.021 36.5618 106.651C32.7929 113.281 30.6611 121.222 28.7741 123.175C28.2651 123.742 27.6178 124.166 26.8955 124.408C26.1732 124.649 25.4006 124.699 24.6533 124.552Z" fill="#263238"/>
<path d="M58.0839 84.3081C56.0745 84.252 49.4139 83.8593 42.6462 84.7569C36.5262 85.5678 25.3878 89.0358 15.2541 95.37L10.7508 98.3586C10.5789 98.458 10.447 98.6143 10.3781 98.8005C10.3092 98.9868 10.3075 99.1913 10.3734 99.3786L12.3828 105.386C12.4308 105.53 12.5161 105.658 12.63 105.757C12.7438 105.857 12.882 105.924 13.0305 105.953C13.6844 106.1 14.2977 106.39 14.8267 106.801C15.3556 107.213 15.7872 107.737 16.0905 108.334C17.4522 110.782 22.6236 119.202 27.3105 120.717C31.9974 122.232 41.0091 119.947 45.084 118.58C49.1589 117.213 57.8034 113.786 59.874 108.564C61.9446 103.341 62.1435 96.9306 62.1435 93.6666C62.1435 90.4026 62.8422 89.0766 65.2596 88.2759L63.7296 83.7114C61.8657 84.0542 59.9783 84.2537 58.0839 84.3081ZM58.7622 92.3559C60.5421 100.424 59.5731 104.764 58.3185 107.416C56.7018 110.838 54.3966 113.694 44.8086 116.867C34.9044 120.146 28.9629 119.32 26.724 118.203C24.4851 117.086 20.4357 110.874 18.1917 105.152C15.9477 99.4296 18.2478 97.359 21.0783 95.0844C23.1183 93.4422 28.3203 91.341 30.447 90.5199C31.0335 90.2904 31.6251 90.1119 32.2167 89.9079C35.4399 88.8216 40.7388 87.3273 43.4673 86.9397C46.1958 86.5521 56.9874 84.2826 58.7622 92.3559Z" fill="#263238"/>
<path d="M58.7623 92.3559C58.7623 92.3559 58.7266 92.2539 58.6705 92.055C58.2962 90.6319 57.4975 89.3565 56.3806 88.3983C54.8969 87.2961 53.1254 86.6477 51.2806 86.5317C48.8431 86.3478 46.3919 86.4919 43.9927 86.9601C41.0692 87.4472 38.1839 88.1408 35.3584 89.0358C33.8284 89.4846 32.2576 90.0099 30.6511 90.5658C29.0446 91.1217 27.4432 91.8459 25.8112 92.6058C24.9952 92.9781 24.1741 93.3759 23.3683 93.8094C22.5453 94.2276 21.7647 94.7247 21.0376 95.2935C20.2899 95.8713 19.5921 96.5111 18.9517 97.206C18.3001 97.9035 17.8352 98.7543 17.6002 99.6795C17.386 100.627 17.3755 101.609 17.5696 102.561C17.7596 103.537 18.0501 104.491 18.4366 105.407C19.2043 107.301 20.0953 109.142 21.1039 110.92C22.0921 112.714 23.2319 114.42 24.5107 116.02C25.1139 116.802 25.8388 117.482 26.6578 118.034C27.5342 118.451 28.4734 118.72 29.4373 118.83C31.3329 119.089 33.2533 119.111 35.1544 118.896C36.9816 118.706 38.7931 118.387 40.5757 117.943C42.3148 117.519 43.9927 117.014 45.6043 116.459C47.1651 115.934 48.6972 115.328 50.1943 114.643C51.596 114.015 52.9319 113.25 54.1825 112.358C55.3346 111.534 56.3309 110.512 57.1252 109.339C57.8343 108.265 58.4033 107.105 58.8184 105.886C59.1817 104.795 59.4212 103.665 59.5324 102.52C59.7112 100.684 59.6941 98.8344 59.4814 97.002C59.3233 95.472 59.1193 94.3296 58.9714 93.5391C58.9 93.1515 58.8439 92.8557 58.8031 92.6466C58.7623 92.4375 58.7521 92.3406 58.7521 92.3406C58.7521 92.3406 58.7827 92.4375 58.8286 92.6415L59.0275 93.5289C59.1856 94.3143 59.41 95.4771 59.5834 96.9918C59.814 98.8326 59.8465 100.693 59.6803 102.541C59.5738 103.695 59.3395 104.834 58.9816 105.937C58.7856 106.541 58.5452 107.129 58.2625 107.697C57.9768 108.301 57.6479 108.884 57.2782 109.441C56.477 110.63 55.4701 111.666 54.3049 112.501C53.047 113.408 51.7006 114.185 50.2861 114.821C48.7824 115.517 47.2416 116.13 45.6706 116.657C44.059 117.218 42.3709 117.734 40.6216 118.162C38.8368 118.623 37.0219 118.959 35.1901 119.167C33.267 119.384 31.3244 119.362 29.4067 119.1C28.4033 118.975 27.4278 118.684 26.5201 118.238C25.6707 117.672 24.9196 116.971 24.2965 116.163C23.0097 114.563 21.8615 112.857 20.8642 111.063C19.8455 109.276 18.9492 107.422 18.1816 105.514C17.7879 104.582 17.4922 103.611 17.2993 102.617C17.0983 101.621 17.1122 100.593 17.3401 99.603C17.4618 99.1191 17.6452 98.6529 17.8858 98.2158C18.1363 97.7914 18.4266 97.3918 18.7528 97.0224C19.4043 96.3214 20.1122 95.6749 20.8693 95.0895C21.6119 94.5062 22.4076 93.994 23.2459 93.5595C24.0619 93.126 24.883 92.7282 25.7041 92.3559C27.3463 91.6113 28.9664 90.9313 30.5644 90.3159C32.1811 89.7549 33.7519 89.2347 35.287 88.7859C38.1257 87.9037 41.0228 87.222 43.957 86.7459C46.3733 86.2892 48.8399 86.1589 51.2908 86.3583C53.1591 86.4888 54.9489 87.1605 56.4418 88.2912C57.3481 89.0505 58.0348 90.0383 58.4308 91.1523C58.541 91.4355 58.628 91.7272 58.6909 92.0244C58.747 92.2488 58.7623 92.3559 58.7623 92.3559Z" fill="white"/>
<g opacity="0.3">
<path d="M30.1716 91.29C29.5647 91.5246 18.7425 95.727 18.6711 99.8937C18.5997 104.06 22.593 111.919 24.8574 114.587C27.1218 117.254 33.8946 117.336 37.2657 116.601C40.6368 115.867 42.0495 88.4952 42.0495 88.4952C42.0495 88.4952 38.3622 88.1637 30.1716 91.29Z" fill="white"/>
</g>
<path d="M54.2794 87.1437C54.031 87.2906 53.7719 87.4184 53.5042 87.5262L51.3673 88.5003C49.0035 89.5417 46.6982 90.7113 44.4619 92.004C43.2446 92.7286 42.0988 93.5671 41.0398 94.5081C40.1905 95.2844 39.4154 96.1381 38.7244 97.0581C38.143 97.8588 37.7044 98.532 37.3984 98.991C37.2482 99.241 37.0776 99.4781 36.8884 99.6999C37.0012 99.4358 37.136 99.1816 37.2913 98.94C37.5718 98.4555 37.99 97.7721 38.5561 96.951C39.2391 96.0073 40.0166 95.1358 40.8766 94.35C41.9374 93.3865 43.0924 92.5322 44.3242 91.8C46.5684 90.498 48.8956 89.3446 51.2908 88.3473C52.1986 87.9495 52.9483 87.6588 53.4685 87.4548C53.729 87.3271 54.0004 87.223 54.2794 87.1437Z" fill="#455A64"/>
<path d="M57.1914 89.4438C56.696 89.718 56.1852 89.9632 55.6614 90.1782C54.6924 90.6066 53.3613 91.1982 51.8976 91.8816C50.4339 92.565 49.1232 93.2076 48.1746 93.6717C47.6706 93.945 47.1493 94.1852 46.614 94.3908C47.0786 94.0528 47.5718 93.7559 48.0879 93.5034C49.0161 92.9934 50.3217 92.3253 51.7854 91.6419C53.2491 90.9585 54.6006 90.3873 55.59 90.0048C56.1056 89.7695 56.6417 89.5817 57.1914 89.4438Z" fill="#455A64"/>
<path d="M112.781 72.5271C112.69 72.8637 67.325 87.0162 67.325 87.0162L65.9531 82.9005L108.12 65.8563L112.297 67.3863L112.781 72.5271Z" fill="#263238"/>
<path d="M117.983 93.33C118.376 93.1974 119.513 92.31 118.162 91.035C116.81 89.76 92.4886 80.4117 90.0049 79.7181C87.1351 78.924 84.1291 78.7502 81.187 79.2081C77.5915 79.7181 67.5955 82.3293 67.5955 82.3293L68.9113 86.2614C68.9113 86.2614 78.0913 82.6914 83.2576 82.3752C88.4239 82.059 90.7291 83.13 97.7365 86.19C104.744 89.25 111.216 94.2786 113.898 94.707C114.64 94.8476 115.406 94.7948 116.121 94.5536C116.837 94.3124 117.478 93.891 117.983 93.33Z" fill="#263238"/>
<path d="M62.22 84.1959L63.75 88.7604C66.1725 87.9495 67.5291 88.587 69.4875 91.1931C71.4459 93.7992 75.4749 98.7972 80.2638 101.73C85.0527 104.662 94.0338 102.204 98.1138 100.842C102.194 99.4806 110.772 95.88 113.597 91.8561C116.423 87.8322 115.484 77.9943 115.127 75.2199C115.01 74.5602 115.04 73.8825 115.217 73.236C115.393 72.5895 115.711 71.9903 116.147 71.4816C116.248 71.3682 116.318 71.2305 116.349 71.082C116.38 70.9335 116.372 70.7795 116.326 70.635L114.24 64.6272C114.176 64.4425 114.052 64.2849 113.887 64.1801C113.722 64.0754 113.526 64.0299 113.332 64.0509L107.936 64.3722C96.033 65.3922 85.0476 69.3447 79.6722 72.3741C73.7307 75.7197 68.6409 80.0496 67.065 81.2991C65.5267 82.3876 63.9069 83.3561 62.22 84.1959ZM80.3454 74.613C82.7526 73.2768 87.8832 71.2878 91.1166 70.2168C91.7082 70.023 92.2947 69.8088 92.8965 69.6405C95.0895 69.0183 100.506 67.5699 103.127 67.6515C106.753 67.7688 109.839 68.0391 111.491 73.9602C113.143 79.8813 113.638 87.2763 112.511 89.5152C111.384 91.7541 107.146 95.9871 97.2621 99.3276C87.72 102.561 84.15 101.663 80.784 99.9039C78.1881 98.5371 74.8017 95.6556 71.3694 88.1382C67.9371 80.6208 77.9076 75.9543 80.3352 74.613H80.3454Z" fill="#263238"/>
<path d="M80.3352 74.613C80.3352 74.613 80.2485 74.6742 80.07 74.7762L79.2693 75.2148C78.5706 75.6075 77.5353 76.1787 76.2807 77.0355C74.7365 78.0434 73.3742 79.3056 72.2517 80.7687C71.924 81.2162 71.6405 81.6944 71.4051 82.1967C70.9991 83.0406 70.7764 83.961 70.7518 84.8972C70.7272 85.8334 70.9012 86.7641 71.2623 87.6282C71.8229 88.9318 72.4546 90.2036 73.1544 91.4379C73.9057 92.7841 74.7582 94.0713 75.7044 95.2884C76.7012 96.597 77.8733 97.7623 79.1877 98.7513C79.882 99.2566 80.6212 99.697 81.396 100.067C82.1831 100.459 83.0086 100.768 83.8593 100.99C85.643 101.408 87.4905 101.479 89.301 101.199C91.184 100.934 93.0429 100.52 94.86 99.96C98.7411 98.8597 102.474 97.2928 105.978 95.2935C106.858 94.7667 107.709 94.193 108.528 93.5748C109.342 92.9743 110.103 92.3055 110.803 91.5756C111.511 90.8866 112.085 90.0721 112.496 89.1735C112.784 88.2417 112.934 87.2725 112.94 86.2971C112.99 84.3829 112.888 82.4678 112.634 80.5698C112.407 78.7467 112.075 76.9383 111.639 75.1536C111.211 73.4196 110.696 71.7162 109.701 70.3494C109.228 69.6733 108.609 69.1121 107.891 68.7072C107.182 68.3276 106.412 68.0772 105.616 67.9677C104.096 67.732 102.551 67.7132 101.026 67.9116C99.5571 68.1105 98.1648 68.4216 96.8389 68.7123C95.5128 69.003 94.2633 69.3498 93.0852 69.6762C91.9071 70.0026 90.8208 70.3953 89.8008 70.7472C87.7608 71.4561 86.0217 72.1293 84.6141 72.7005C83.2065 73.2717 82.1253 73.7511 81.4011 74.0928L80.5851 74.4957L80.3046 74.6283L80.58 74.46C80.7585 74.358 81.0288 74.2152 81.3858 74.0367C82.1049 73.6746 83.181 73.185 84.5835 72.5934C85.986 72.0018 87.72 71.3235 89.76 70.5942C90.78 70.2372 91.8765 69.87 93.0495 69.5028C94.2225 69.1356 95.4823 68.8347 96.8083 68.5185C98.1343 68.2023 99.5316 67.9014 101.006 67.7025C102.548 67.4954 104.112 67.5074 105.652 67.7382C106.472 67.8521 107.266 68.1093 107.998 68.4981C108.748 68.9175 109.394 69.4995 109.89 70.2015C110.91 71.6091 111.42 73.3431 111.879 75.0822C112.321 76.8772 112.661 78.6957 112.899 80.529C113.161 82.4383 113.268 84.3655 113.22 86.292C113.216 87.2954 113.061 88.2926 112.761 89.25C112.341 90.1833 111.749 91.0294 111.017 91.7439C110.304 92.4863 109.531 93.1687 108.707 93.7839C107.879 94.4074 107.017 94.9846 106.126 95.5128C102.607 97.5272 98.8542 99.1029 94.9518 100.205C93.1082 100.773 91.2219 101.193 89.3112 101.459C87.4698 101.743 85.591 101.669 83.7777 101.24C82.9111 101.01 82.0703 100.693 81.2685 100.292C80.4895 99.9094 79.7469 99.457 79.05 98.94C77.7208 97.9364 76.5366 96.7539 75.531 95.4261C74.5837 94.1972 73.7313 92.8981 72.981 91.5399C72.2804 90.2945 71.6504 89.0107 71.094 87.6945C70.5924 86.4745 70.456 85.135 70.7013 83.8389C70.815 83.2472 71.0053 82.6729 71.2674 82.1304C71.5091 81.6197 71.8012 81.1345 72.1395 80.682C72.7419 79.8714 73.4349 79.1322 74.205 78.4788C74.853 77.9274 75.5343 77.4165 76.245 76.9488C77.2204 76.3044 78.2281 75.7103 79.2642 75.1689L80.0751 74.7507C80.2383 74.6538 80.3352 74.613 80.3352 74.613Z" fill="white"/>
<path d="M71.8181 81.2787C72.0831 81.1665 72.358 81.0794 72.6392 81.0186C73.1492 80.8758 73.9499 80.6565 74.9189 80.427C77.434 79.779 79.9898 79.3002 82.5689 78.9939C83.9953 78.8358 85.434 78.8221 86.8631 78.9531C88.0277 79.0771 89.1762 79.3215 90.2903 79.6824C91.2338 79.9935 91.9835 80.2944 92.4986 80.5086C92.7697 80.6063 93.0309 80.7292 93.2789 80.8758C92.9992 80.8052 92.7248 80.7149 92.4578 80.6055C91.9478 80.4168 91.1828 80.1516 90.2342 79.8609C89.1261 79.5307 87.9886 79.3087 86.8376 79.1979C85.4262 79.0819 84.007 79.1024 82.5995 79.2591C80.0266 79.5684 77.4727 80.0196 74.9495 80.6106L72.6545 81.1206C72.3797 81.1927 72.1002 81.2455 71.8181 81.2787Z" fill="#455A64"/>
<path d="M70.8901 84.864C71.4195 84.6502 71.9653 84.4797 72.5221 84.354C73.5421 84.0684 74.965 83.7114 76.546 83.3748C78.127 83.0382 79.5754 82.7934 80.626 82.6404C81.1892 82.5311 81.7609 82.4713 82.3345 82.4619C81.7857 82.6201 81.2268 82.741 80.6617 82.824C79.6417 83.0229 78.1882 83.2983 76.5817 83.6349C74.9752 83.9715 73.5829 84.2979 72.5476 84.5376C72.0031 84.6835 71.4493 84.7925 70.8901 84.864Z" fill="#455A64"/>
<g opacity="0.3">
<path d="M83.084 74.5875C80.9369 75.2148 74.7506 78.336 72.884 81.3144C71.8334 82.9872 71.303 85.8483 72.6953 87.7506C74.0876 89.6529 77.2394 95.0895 81.2786 97.6599C85.3178 100.23 90.3362 99.9141 92.4629 99.0522C94.5896 98.1903 90.7289 72.4761 89.102 72.5679C87.4751 72.6597 83.084 74.5875 83.084 74.5875Z" fill="white"/>
</g>
<path d="M47.792 196.743C48.0001 197.262 48.089 197.822 48.0521 198.38C48.1826 197.722 48.4352 197.094 48.7967 196.529C48.9293 196.314 49.1435 196.09 49.3832 196.151C49.6229 196.212 49.7045 196.518 49.7147 196.768C49.7391 197.461 49.5827 198.148 49.2608 198.762C49.708 198.194 50.2876 197.744 50.9489 197.452C51.0029 197.419 51.0639 197.4 51.1269 197.395C51.1899 197.391 51.253 197.401 51.311 197.426C51.4385 197.503 51.4436 197.686 51.4232 197.834C51.3329 198.414 51.095 198.96 50.7324 199.421C50.3697 199.882 49.8946 200.242 49.3526 200.466L48.9956 200.517C48.2263 200.304 47.565 199.81 47.1427 199.133C46.7205 198.456 46.5681 197.644 46.7159 196.86C46.772 196.564 46.9403 196.217 47.2259 196.212C47.5115 196.207 47.69 196.493 47.792 196.743Z" fill="#0984E3"/>
<path d="M55.7939 212.726C54.7538 212.072 53.6053 211.609 52.4024 211.359C53.1175 208.916 53.151 206.323 52.4993 203.862C52.2694 202.884 51.8368 201.965 51.2294 201.164C50.9242 200.765 50.5405 200.433 50.1019 200.189C49.6633 199.944 49.1791 199.792 48.6794 199.742C48.1391 199.732 47.6037 199.844 47.1134 200.071C46.6231 200.298 46.1907 200.634 45.8489 201.052L44.5943 203.949C44.5221 204.371 44.4727 204.797 44.4464 205.224C44.2993 208.04 44.931 210.842 46.2722 213.323C44.9717 214.761 43.559 217.24 43.9823 220.111H58.8539C59.114 217.357 58.0634 214.368 55.7939 212.726Z" fill="#455A64"/>
<path d="M45.6143 214.246C45.6449 214.187 45.6826 214.132 45.7265 214.083C45.8431 213.934 45.9673 213.791 46.0988 213.654C46.581 213.154 47.1364 212.729 47.7461 212.395C48.6517 211.892 49.6487 211.574 50.6786 211.461C51.9444 211.307 53.2287 211.483 54.4067 211.971C55.5702 212.492 56.5813 213.301 57.3443 214.322C57.9666 215.15 58.4189 216.093 58.6754 217.097C58.8532 217.77 58.9255 218.467 58.8896 219.162C58.882 219.35 58.8633 219.538 58.8335 219.723C58.8303 219.79 58.8165 219.855 58.7927 219.917C58.8469 218.982 58.7557 218.045 58.5224 217.138C58.2519 216.163 57.7946 215.25 57.176 214.45C56.4416 213.451 55.4547 212.665 54.3166 212.173C53.1784 211.681 51.9299 211.501 50.699 211.65C49.6932 211.754 48.7167 212.05 47.8226 212.522C47.0026 212.98 46.2578 213.562 45.6143 214.246Z" fill="#263238"/>
<path d="M44.3698 206.285C44.3159 205.959 44.3073 205.628 44.3443 205.301C44.3655 204.502 44.4994 203.71 44.7421 202.949C44.9901 202.174 45.4284 201.472 46.0171 200.909C46.2504 200.674 46.5374 200.499 46.8535 200.399C46.8535 200.43 46.5424 200.614 46.1242 201.042C45.5966 201.61 45.1982 202.285 44.9563 203.021C44.722 203.767 44.5698 204.537 44.5024 205.316C44.4874 205.642 44.443 205.966 44.3698 206.285Z" fill="#263238"/>
<path d="M52.9685 218.224C53.3959 217.715 53.8613 217.239 54.3608 216.801C54.8041 216.309 55.2831 215.851 55.7939 215.429C55.4498 216.001 55.0198 216.517 54.5189 216.959C54.0691 217.457 53.5463 217.883 52.9685 218.224Z" fill="#263238"/>
<path d="M51.311 217.357C51.3225 216.857 51.4049 216.36 51.5558 215.883C51.6369 215.388 51.7916 214.909 52.0148 214.46C51.9311 215.456 51.6937 216.433 51.311 217.357Z" fill="#263238"/>
<path d="M46.9199 215.73C47.606 216.549 48.0557 217.54 48.2204 218.596C47.9636 218.138 47.742 217.66 47.5574 217.168C47.3074 216.706 47.0943 216.225 46.9199 215.73Z" fill="#263238"/>
<path d="M51.6731 208.763C51.9479 208.213 52.2906 207.699 52.6931 207.233C53.0289 206.726 53.4282 206.263 53.8814 205.856C53.6024 206.405 53.2601 206.918 52.8614 207.386C52.5228 207.892 52.1238 208.355 51.6731 208.763Z" fill="#263238"/>
<path d="M50.6226 204.112C50.9378 203.455 51.3188 202.831 51.7599 202.251C52.1432 201.63 52.5874 201.049 53.0859 200.517C52.772 201.175 52.3908 201.799 51.9486 202.378C51.5668 203 51.1225 203.581 50.6226 204.112Z" fill="#263238"/>
<path d="M48.9599 205.331C49.1004 205.845 49.1708 206.375 49.169 206.907C49.2427 207.435 49.2427 207.97 49.169 208.498C49.0223 207.986 48.9502 207.455 48.9548 206.922C48.8809 206.394 48.8826 205.859 48.9599 205.331Z" fill="#263238"/>
<path d="M42.2688 207.448C43.0093 207.722 43.7146 208.083 44.37 208.524C45.0633 208.907 45.7087 209.371 46.2927 209.906C45.5854 209.559 44.9036 209.162 44.2527 208.718C43.5635 208.339 42.9007 207.915 42.2688 207.448Z" fill="#263238"/>
<g opacity="0.3">
<path d="M47.6238 211.451C48.3664 211.061 49.1922 210.857 50.031 210.854C50.898 210.814 51.867 210.9 52.4535 211.538V211.568C50.2486 211.432 48.0703 212.111 46.3335 213.476C46.3531 213.055 46.4825 212.647 46.7089 212.292C46.9352 211.936 47.2507 211.647 47.6238 211.451Z" fill="black"/>
</g>
<path d="M54.6872 182.254C55.1128 182.137 55.5594 182.12 55.9928 182.203C55.49 182.037 55.0216 181.781 54.6107 181.448C54.4577 181.32 54.3047 181.132 54.371 180.938C54.4373 180.744 54.6923 180.724 54.881 180.739C55.4294 180.783 55.9568 180.969 56.411 181.28C56.012 180.877 55.7163 180.383 55.5491 179.841C55.5262 179.796 55.5143 179.746 55.5143 179.696C55.5143 179.645 55.5262 179.596 55.5491 179.551C55.6205 179.459 55.7633 179.474 55.8755 179.505C56.3198 179.63 56.7243 179.868 57.0503 180.195C57.3763 180.522 57.6127 180.927 57.737 181.371V181.657C57.4979 182.235 57.0517 182.703 56.4856 182.969C55.9195 183.235 55.2745 183.28 54.677 183.095C54.4526 183.024 54.2027 182.861 54.2231 182.626C54.2435 182.391 54.4832 182.305 54.6872 182.254Z" fill="#0984E3"/>
<path d="M84.6599 163.251C84.7365 163.684 84.7156 164.128 84.5987 164.552C84.8038 164.065 85.0978 163.62 85.4657 163.241C85.6034 163.103 85.8074 162.96 85.9757 163.047C86.144 163.134 86.1644 163.379 86.1338 163.557C86.0394 164.095 85.8095 164.601 85.4657 165.026C85.9057 164.655 86.4318 164.401 86.9957 164.286C87.0426 164.269 87.0931 164.263 87.1428 164.269C87.1926 164.275 87.2401 164.294 87.2813 164.322C87.368 164.404 87.3374 164.541 87.2813 164.654C87.1173 165.089 86.8431 165.474 86.4856 165.772C86.128 166.07 85.6992 166.27 85.2413 166.352H84.9608C84.402 166.066 83.9708 165.581 83.7526 164.993C83.5345 164.404 83.5452 163.755 83.7827 163.175C83.8745 162.955 84.0581 162.716 84.2927 162.761C84.5273 162.807 84.6599 163.042 84.6599 163.251Z" fill="#0984E3"/>
<path d="M63.7957 202.128C64.0201 202.128 64.2241 202.159 64.4332 202.179C64.8208 197.931 63.5305 193.622 64.831 189.562L64.6576 189.781C63.0931 190.027 61.492 189.884 59.9962 189.363C59.2522 189.098 58.5697 188.685 57.9902 188.149C57.4107 187.612 56.9463 186.963 56.6251 186.242C56.3186 185.512 56.2235 184.711 56.3507 183.93C56.4778 183.149 56.8221 182.42 57.3442 181.825C58.813 180.295 61.4242 180.372 63.25 181.427C65.0758 182.483 66.2743 184.166 67.4473 185.854C68.0631 185.362 68.7512 184.968 69.4873 184.686C67.4473 181.866 65.4583 178.903 64.8106 175.506C64.1017 171.778 65.494 167.346 68.9569 165.816C71.9047 164.49 75.5869 165.689 77.6779 168.162C77.836 168.359 77.9841 168.563 78.1216 168.774L78.0553 168.57C78.5637 167.256 79.5697 166.195 80.8552 165.617C81.4965 165.342 82.1923 165.216 82.8896 165.249C83.5868 165.283 84.2673 165.475 84.8791 165.811C85.4831 166.162 85.9839 166.666 86.3313 167.272C86.6787 167.878 86.8603 168.565 86.8579 169.264C86.7963 170.048 86.5277 170.801 86.0797 171.447C85.6317 172.093 85.0203 172.609 84.3079 172.941C82.9218 173.557 81.3719 173.7 79.8964 173.349C80.0843 174.664 80.0757 175.999 79.8709 177.312C79.4119 180.275 78.0859 183.034 76.5151 185.604C76.9525 185.892 77.3578 186.225 77.7238 186.599C80.3962 189.399 80.5696 193.887 79.1671 197.492C77.7646 201.098 73.9498 203.73 71.3284 206.55C72.4174 208.509 73.1105 210.663 73.3684 212.889C73.8334 211.927 74.5563 211.112 75.4566 210.536C76.357 209.96 77.3996 209.644 78.4684 209.625C79.621 209.625 80.9062 210.135 81.2581 211.232C81.5743 212.196 81.0439 213.236 80.3605 213.981C79.4951 214.85 78.4244 215.486 77.2476 215.831C76.0709 216.176 74.8261 216.218 73.6285 215.954L73.603 215.251C73.6919 216.866 73.6527 218.486 73.4857 220.096H56.4874C56.4874 220.096 51.9535 201.69 63.7957 202.128Z" fill="#455A64"/>
<path d="M37.0361 227.231H77.1782V220.116H37.0361V227.231Z" fill="#0984E3"/>
<path d="M74.1845 225.818L69.2987 247.075H45.3746L40.0349 225.818H74.1845Z" fill="#0984E3"/>
<path d="M37.0615 227.236C37.0615 227.317 46.114 227.378 57.283 227.378C68.452 227.378 77.5045 227.317 77.5045 227.236C77.5045 227.154 68.452 227.098 57.283 227.098C46.114 227.098 37.0615 227.159 37.0615 227.236Z" fill="#263238"/>
<path d="M60.6492 202.827C60.7227 202.775 60.8013 202.731 60.8838 202.694C61.1098 202.575 61.3452 202.474 61.5876 202.394C62.4866 202.093 63.4386 201.983 64.3824 202.072C65.7849 202.197 67.1344 202.668 68.3094 203.444C69.7308 204.422 70.8902 205.733 71.6856 207.264C72.4881 208.781 73.0344 210.419 73.3023 212.114C73.5066 213.493 73.5987 214.887 73.5777 216.281C73.5777 217.464 73.5318 218.423 73.5063 219.086C73.5063 219.397 73.5063 219.647 73.4757 219.846C73.4841 219.934 73.4841 220.023 73.4757 220.111C73.4633 220.023 73.4633 219.934 73.4757 219.846C73.4757 219.647 73.4757 219.397 73.4757 219.086C73.4757 218.392 73.4757 217.444 73.4757 216.281C73.4741 214.898 73.3684 213.517 73.1595 212.15C72.8848 210.48 72.3405 208.866 71.5479 207.371C70.7688 205.874 69.6405 204.586 68.2584 203.618C67.1129 202.852 65.7985 202.376 64.4283 202.23C63.5031 202.132 62.5676 202.215 61.6743 202.475C60.9858 202.669 60.69 202.853 60.6492 202.827Z" fill="#263238"/>
<path d="M64.2598 193.8C64.2371 193.734 64.2267 193.665 64.2292 193.596C64.2192 193.404 64.2192 193.212 64.2292 193.02C64.2319 192.304 64.3158 191.59 64.4791 190.893C64.7115 189.854 65.1093 188.858 65.6572 187.945C65.9772 187.403 66.3589 186.9 66.7945 186.446C67.256 185.948 67.7909 185.523 68.3806 185.186C68.973 184.85 69.6125 184.604 70.2778 184.457C70.8972 184.335 71.529 184.287 72.1597 184.314C73.2241 184.382 74.2693 184.63 75.2503 185.048C75.9089 185.324 76.5377 185.666 77.1271 186.068C77.3413 186.206 77.4892 186.334 77.5963 186.415C77.7034 186.497 77.7493 186.543 77.7442 186.548C77.5158 186.424 77.2944 186.288 77.0812 186.14C76.4794 185.769 75.8463 185.452 75.1891 185.191C74.214 184.797 73.1796 184.569 72.1291 184.518C71.5169 184.498 70.9043 184.547 70.3033 184.666C69.6621 184.813 69.0454 185.052 68.4724 185.375C67.9049 185.703 67.3893 186.114 66.9424 186.594C66.5154 187.034 66.1406 187.521 65.8255 188.047C65.28 188.939 64.8741 189.909 64.6219 190.924C64.4478 191.608 64.3419 192.309 64.3057 193.015C64.2598 193.54 64.2598 193.8 64.2598 193.8Z" fill="#263238"/>
<path d="M80.0087 175.868C79.9182 175.42 79.8704 174.964 79.8659 174.507C79.8302 174.089 79.7894 173.589 79.6976 173.043C79.5989 172.45 79.4276 171.871 79.1876 171.319C78.7695 170.313 78.2572 169.348 77.6576 168.438C77.1935 167.734 76.8467 167.346 76.8722 167.326C76.8977 167.306 76.9793 167.397 77.1476 167.571C77.3788 167.815 77.5935 168.074 77.7902 168.346C78.443 169.243 78.989 170.214 79.4171 171.238C79.6567 171.805 79.818 172.402 79.8965 173.012C79.9649 173.506 80.0058 174.003 80.0189 174.502C80.0508 174.957 80.0474 175.414 80.0087 175.868Z" fill="#263238"/>
<path d="M77.8157 214.016C78.2436 214.24 78.6341 214.529 78.9734 214.873C79.3657 215.156 79.7101 215.501 79.9934 215.893C79.5655 215.669 79.1749 215.38 78.8357 215.036C78.4459 214.75 78.102 214.406 77.8157 214.016Z" fill="#263238"/>
<path d="M79.2437 212.599C80.1887 212.354 81.1659 212.258 82.1404 212.313C81.6777 212.474 81.1922 212.56 80.7023 212.568C80.2206 212.654 79.7285 212.664 79.2437 212.599Z" fill="#263238"/>
<path d="M78.1626 210.12C78.3981 209.727 78.6678 209.355 78.9684 209.008C79.2065 208.615 79.4778 208.243 79.7793 207.896C79.4969 208.794 78.9293 209.575 78.1626 210.12Z" fill="#263238"/>
<path d="M76.2603 208.947C76.248 209.504 76.1605 210.056 76.0002 210.589C75.9049 211.141 75.7332 211.676 75.4902 212.18C75.5943 211.074 75.8447 209.987 76.2348 208.947H76.2603Z" fill="#263238"/>
<path d="M74.9699 214.679C74.9291 214.634 75.1994 214.328 75.5717 213.991C75.944 213.654 76.2806 213.42 76.3214 213.481C76.3622 213.542 76.0919 213.838 75.7196 214.175C75.3473 214.511 75.0362 214.71 74.9699 214.679Z" fill="#263238"/>
<path d="M69.0946 213.573C69.0487 213.527 69.3751 213.114 69.8188 212.65C70.2625 212.186 70.6654 211.839 70.7113 211.885C70.285 212.545 69.7362 213.118 69.0946 213.573Z" fill="#263238"/>
<path d="M67.8298 208.126C67.9391 207.726 68.1225 207.351 68.3704 207.019C68.5539 206.648 68.8047 206.314 69.1099 206.035C68.8115 206.803 68.3779 207.511 67.8298 208.126Z" fill="#263238"/>
<path d="M64.056 203.689C64.1737 204.15 64.2185 204.627 64.1886 205.102C64.2317 205.576 64.2008 206.054 64.0968 206.519C63.976 206.059 63.9312 205.582 63.9642 205.107C63.9218 204.632 63.9528 204.154 64.056 203.689Z" fill="#263238"/>
<path d="M56.1765 205.193C56.5849 205.598 56.9602 206.034 57.2985 206.499C57.6907 206.92 58.0488 207.372 58.3695 207.851C57.8869 207.524 57.4643 207.117 57.12 206.647C56.7232 206.221 56.4039 205.729 56.1765 205.193Z" fill="#263238"/>
<path d="M55.1667 212.935C55.6394 212.911 56.113 212.962 56.5692 213.088C57.0401 213.142 57.4996 213.269 57.9309 213.466C57.4583 213.49 56.9847 213.439 56.5284 213.313C56.0574 213.26 55.5977 213.133 55.1667 212.935Z" fill="#263238"/>
<path d="M63.342 215.633C63.4165 215.092 63.6004 214.571 63.8826 214.103C64.1005 213.595 64.4159 213.134 64.8108 212.747C64.6066 213.25 64.3645 213.738 64.0866 214.205C63.8723 214.698 63.6235 215.175 63.342 215.633Z" fill="#263238"/>
<path d="M60.6134 211.915C60.4957 211.547 60.449 211.159 60.4757 210.773C60.4304 210.388 60.4598 209.999 60.5624 209.625C60.6863 209.993 60.7332 210.382 60.7001 210.768C60.7485 211.152 60.7191 211.542 60.6134 211.915Z" fill="#263238"/>
<path d="M69.4109 218.464C69.4584 218.03 69.6164 217.615 69.8699 217.26C70.0677 216.869 70.3606 216.534 70.7216 216.286C70.536 216.669 70.3158 217.034 70.0637 217.377C69.8813 217.759 69.6627 218.123 69.4109 218.464Z" fill="#263238"/>
<path d="M60.0779 219.004C59.815 218.674 59.6098 218.301 59.471 217.903C59.2677 217.532 59.1314 217.128 59.0681 216.709C59.3323 217.039 59.5377 217.411 59.675 217.811C59.879 218.182 60.0154 218.586 60.0779 219.004Z" fill="#263238"/>
<path d="M74.5874 201.741C75.1005 201.648 75.6241 201.628 76.1429 201.68C76.658 201.663 77.1729 201.718 77.6729 201.843C77.1605 201.942 76.636 201.962 76.1174 201.904C75.6022 201.923 75.0869 201.868 74.5874 201.741Z" fill="#263238"/>
<path d="M77.9688 195.952C78.4185 195.496 78.92 195.094 79.463 194.754C79.9626 194.352 80.5068 194.01 81.0849 193.734C80.6368 194.188 80.137 194.589 79.5957 194.927C79.0965 195.333 78.5503 195.677 77.9688 195.952Z" fill="#263238"/>
<path d="M77.6218 188.511C78.0043 188.211 78.4102 187.941 78.8356 187.706C79.2209 187.409 79.6265 187.14 80.0494 186.9C79.7687 187.31 79.3969 187.651 78.9631 187.894C78.5687 188.199 78.11 188.41 77.6218 188.511Z" fill="#263238"/>
<path d="M73.8276 185.88C73.8629 185.265 73.9743 184.657 74.1591 184.069C74.2688 183.461 74.4521 182.869 74.7048 182.305C74.5629 183.527 74.2682 184.726 73.8276 185.875V185.88Z" fill="#263238"/>
<path d="M67.4934 184.008C67.798 184.328 68.0463 184.697 68.2278 185.099C68.4763 185.464 68.6592 185.87 68.7684 186.298C68.4638 185.978 68.2155 185.609 68.034 185.206C67.7855 184.841 67.6026 184.436 67.4934 184.008Z" fill="#263238"/>
<path d="M62.0312 196.559C62.0721 196.508 62.7963 197.069 63.7449 197.645C64.6935 198.222 65.5145 198.635 65.4839 198.665C64.8197 198.493 64.1912 198.205 63.6276 197.814C63.0267 197.491 62.4866 197.067 62.0312 196.559Z" fill="#263238"/>
<path d="M70.8899 199.379C71.571 198.784 72.3466 198.307 73.1849 197.967C72.8662 198.29 72.4977 198.56 72.0935 198.767C71.7298 199.038 71.3228 199.245 70.8899 199.379Z" fill="#263238"/>
<path d="M72.3689 193.377C72.323 193.326 72.8789 192.765 73.4246 191.944C73.9703 191.123 74.2508 190.378 74.312 190.414C74.052 191.61 73.3602 192.669 72.3689 193.387V193.377Z" fill="#263238"/>
<path d="M69.462 192.02C69.3673 191.541 69.3518 191.05 69.4161 190.567C69.4011 190.079 69.4613 189.592 69.5946 189.123C69.6832 189.603 69.6986 190.093 69.6405 190.577C69.6554 191.064 69.5952 191.551 69.462 192.02Z" fill="#263238"/>
<path d="M67.8554 197.957C67.6892 197.483 67.5929 196.989 67.5698 196.488C67.4747 195.994 67.4558 195.488 67.5137 194.988C67.7736 195.955 67.8887 196.956 67.8554 197.957Z" fill="#263238"/>
<path d="M63.3675 180.081C63.5576 180.623 63.7143 181.177 63.8367 181.739C64.0325 182.281 64.1909 182.837 64.311 183.401C63.9828 182.915 63.7492 182.372 63.6225 181.8C63.4266 181.249 63.34 180.665 63.3675 180.081Z" fill="#263238"/>
<path d="M60.2053 190.5C60.6124 190.15 61.0455 189.831 61.5007 189.547C61.9116 189.2 62.3481 188.884 62.8063 188.603C62.1277 189.46 61.2285 190.116 60.2053 190.5Z" fill="#263238"/>
<path d="M55.9062 187.303C56.4236 187.152 56.9523 187.045 57.4872 186.981C58.0087 186.842 58.541 186.746 59.0784 186.696C58.6061 186.963 58.0866 187.136 57.5484 187.206C57.013 187.347 56.4546 187.38 55.9062 187.303Z" fill="#263238"/>
<path d="M60.0882 183.728C60.4176 183.808 60.7256 183.96 60.9909 184.171C61.4601 184.472 61.8069 184.753 61.7763 184.809C61.4447 184.727 61.1349 184.574 60.8685 184.36C60.4044 184.064 60.0525 183.779 60.0882 183.728Z" fill="#263238"/>
<path d="M58.0022 179.867C58.7777 180.324 59.3842 181.02 59.7311 181.851C59.4101 181.551 59.1181 181.221 58.859 180.866C58.5444 180.559 58.2577 180.225 58.0022 179.867Z" fill="#263238"/>
<path d="M55.1565 183.544C55.6542 183.623 56.1439 183.746 56.6202 183.911C57.1151 184.004 57.6001 184.144 58.0686 184.329C57.5501 184.363 57.0301 184.294 56.5386 184.125C56.0435 184.026 55.5735 183.829 55.1565 183.544Z" fill="#263238"/>
<path d="M74.8577 178.597C75.2497 177.921 75.6788 177.267 76.1429 176.639C76.5423 175.97 76.9764 175.323 77.4434 174.701C77.1714 175.438 76.7971 176.133 76.3316 176.766C75.925 177.44 75.4292 178.056 74.8577 178.597Z" fill="#263238"/>
<path d="M73.5929 174.089C73.5534 173.527 73.5894 172.963 73.7 172.411C73.7371 171.848 73.8486 171.292 74.0315 170.758C74.0711 171.32 74.0351 171.884 73.9244 172.436C73.8874 172.999 73.7759 173.555 73.5929 174.089Z" fill="#263238"/>
<path d="M69.217 174.792C69.2833 174.792 69.4669 175.644 69.9004 176.639C70.3339 177.633 70.8286 178.357 70.7776 178.398C70.2931 177.93 69.9216 177.358 69.6913 176.725C69.3923 176.124 69.2304 175.464 69.217 174.792Z" fill="#263238"/>
<path d="M64.0713 175.879C64.1274 175.838 64.7649 176.593 65.6523 177.409C66.5397 178.225 67.3251 178.832 67.2843 178.888C65.9833 178.156 64.8805 177.118 64.0713 175.863V175.879Z" fill="#263238"/>
<path d="M66.0654 166.541C66.1266 166.541 66.3255 167.479 66.6825 168.616C67.0395 169.754 67.4016 170.656 67.3404 170.656C66.9401 170.044 66.6437 169.371 66.4632 168.662C66.2139 167.982 66.0795 167.265 66.0654 166.541Z" fill="#263238"/>
<path d="M71.9865 163.47C72.2037 164.568 72.2723 165.69 72.1905 166.806C71.9734 165.708 71.9047 164.586 71.9865 163.47Z" fill="#263238"/>
<path d="M84.2163 171.36C84.6432 171.353 85.0698 171.384 85.4913 171.452C85.9174 171.45 86.3426 171.489 86.7612 171.569C86.3471 171.713 85.9031 171.75 85.4709 171.676C85.0325 171.68 84.6004 171.572 84.2163 171.36Z" fill="#263238"/>
<path d="M83.8542 168.3C84.3962 167.883 84.9829 167.527 85.6036 167.239C86.1904 166.889 86.8127 166.602 87.46 166.382C86.9185 166.799 86.3316 167.153 85.7106 167.438C85.1243 167.791 84.502 168.08 83.8542 168.3Z" fill="#263238"/>
<path d="M80.5493 168.392C80.5992 167.853 80.7245 167.325 80.9216 166.821C81.046 166.296 81.2453 165.791 81.5132 165.322C81.4564 165.859 81.3296 166.388 81.1358 166.892C81.0091 167.416 80.8118 167.921 80.5493 168.392Z" fill="#263238"/>
<g opacity="0.3">
<path d="M71.2878 206.581C71.2589 205.761 71.0398 204.959 70.6476 204.238C70.2555 203.518 69.7012 202.899 69.0285 202.429C67.6923 201.532 65.2851 201.445 64.3416 202.113C65.8249 202.157 67.2594 202.653 68.4522 203.536C69.5757 204.375 70.5366 205.412 71.2878 206.596" fill="black"/>
</g>
<g opacity="0.3">
<path d="M76.5 185.88C76.1931 185.24 75.7417 184.679 75.1816 184.243C74.6214 183.807 73.9677 183.506 73.2717 183.365C71.8998 183.116 69.9568 183.875 69.4417 184.737C70.6333 184.258 71.9432 184.155 73.1953 184.442C74.3752 184.716 75.4951 185.203 76.5 185.88Z" fill="black"/>
</g>
<g opacity="0.3">
<path d="M79.9833 173.573C80.2518 173.101 80.4108 172.575 80.4488 172.033C80.4867 171.491 80.4026 170.947 80.2026 170.442C80.0055 169.984 79.6995 169.581 79.311 169.268C78.9226 168.955 78.4635 168.742 77.9739 168.647C79.0347 170.177 79.8711 171.758 79.9527 173.63" fill="black"/>
</g>
<path d="M58.5684 203.801C58.5684 203.801 58.3899 203.964 58.1094 204.311C57.719 204.786 57.3773 205.298 57.0894 205.841C56.2429 207.657 55.7348 209.611 55.59 211.609C55.4612 213.622 55.5621 215.643 55.8909 217.632C56.0082 218.402 56.1255 219.02 56.2071 219.443C56.2611 219.662 56.2953 219.886 56.3091 220.111C56.2193 219.903 56.1526 219.686 56.1102 219.463C56.0031 219.045 55.8603 218.443 55.7175 217.663C55.3364 215.662 55.2113 213.621 55.3452 211.589C55.4716 209.546 56.0039 207.549 56.9109 205.714C57.2187 205.176 57.5903 204.678 58.0176 204.23C58.1716 204.052 58.3587 203.907 58.5684 203.801Z" fill="#263238"/>
<path d="M77.1783 220.111C77.1377 220.117 77.0964 220.117 77.0559 220.111H76.6989H75.3219L70.2576 220.147L53.55 220.182L37.0413 220.147L37.1178 220.065C37.1178 222.258 37.1178 224.033 37.1178 225.277C37.1178 225.884 37.1178 226.358 37.1178 226.695C37.1178 226.848 37.1178 226.97 37.1178 227.067C37.1255 227.108 37.1255 227.149 37.1178 227.19C37.11 227.149 37.11 227.108 37.1178 227.067V226.695C37.1178 226.358 37.1178 225.884 37.0923 225.282C37.0923 224.033 37.0617 222.258 37.0413 220.07V219.989H37.1229L53.6316 219.953L70.3392 219.989L75.4035 220.024H76.7805H77.1375L77.1783 220.111Z" fill="#263238"/>
<path d="M138.914 246.6H212.639L205.775 226.394L149.277 229.327L138.914 246.6Z" fill="#263238"/>
<path d="M152.643 229.74L195.728 228.133L211.028 142.453L197.202 136.502C197.202 136.502 191.464 139.72 180.836 139.771C170.406 139.822 170.59 136.277 170.59 136.277L161.446 146.125C161.446 146.125 150.19 178.148 150.022 178.796C149.853 179.443 152.643 229.74 152.643 229.74Z" fill="white"/>
<path d="M202.47 138.684C202.47 138.684 223.691 143.07 223.89 146.605C224.089 150.139 214.812 172.054 214.634 172.615C214.455 173.176 206.275 204.51 206.275 204.51L218.515 246.605H180.367C180.367 246.605 183.09 206.892 186.15 188.542C189.21 170.192 189.939 164.062 191.117 156.789C191.587 153.877 193.958 143.886 195.432 137.787C195.849 136.067 195.926 134.283 195.657 132.534L197.467 133.222L202.47 138.684Z" fill="#455A64"/>
<path d="M136.078 192.413C135.874 192.719 131.998 206.79 131.361 210.865C130.82 214.322 129.963 219.943 133.63 225.145C137.297 230.347 141.086 229.735 144.748 228.409C148.41 227.083 152.398 219.438 153.102 215.052C153.806 210.666 149.665 191.378 149.665 191.378L136.078 192.413Z" fill="#455A64"/>
<path d="M170.631 133.549L165.908 140.214C165.908 140.214 150.16 142.254 146.528 144.896C142.897 147.538 135.579 195.208 135.579 195.208L150.231 203.368L138.909 246.605H153.102C153.102 246.605 156.621 228.383 156.3 215.296C155.979 202.21 158.248 185.206 162.42 172.63C166.592 160.053 170.58 138.307 170.58 138.307L170.631 133.549Z" fill="#455A64"/>
<g opacity="0.3">
<path d="M213.512 230.688L188.129 216.572C189.21 222.391 192.627 227.97 197.625 231.142C200.142 232.726 202.954 233.781 205.891 234.244C208.828 234.707 211.829 234.568 214.71 233.835C214.302 232.784 213.903 231.736 213.512 230.688Z" fill="black"/>
</g>
<path d="M138.302 203.811C138.302 203.857 137.7 203.954 136.803 204.321C135.629 204.824 134.597 205.609 133.799 206.606C133.016 207.614 132.491 208.797 132.269 210.054C132.1 211.018 132.151 211.635 132.1 211.64C132.055 211.5 132.034 211.353 132.039 211.206C132.015 210.811 132.03 210.415 132.085 210.023C132.255 208.715 132.777 207.477 133.595 206.442C134.413 205.408 135.497 204.615 136.731 204.148C137.1 204.004 137.483 203.896 137.874 203.827C138.014 203.797 138.159 203.792 138.302 203.811Z" fill="#263238"/>
<path d="M141.27 223.61C141.27 223.61 145.299 222.335 146.748 220.697C148.127 219.075 149.052 217.117 149.43 215.021C149.614 212.594 150.527 199.844 150.527 199.844L139.908 199.145L133.36 211.65C133.36 211.65 131.585 216.24 135.211 221.131C137.527 224.267 141.27 223.61 141.27 223.61Z" fill="#FFBF9D"/>
<path d="M151.47 216.572C151.492 216.08 151.54 215.59 151.613 215.103C151.721 213.928 151.704 212.745 151.562 211.574C151.412 210.401 151.14 209.247 150.751 208.131C150.45 207.274 150.21 206.764 150.241 206.744C150.272 206.723 150.333 206.856 150.46 207.08C150.633 207.399 150.786 207.728 150.919 208.065C151.826 210.302 152.128 212.738 151.796 215.128C151.748 215.487 151.68 215.843 151.592 216.194C151.572 216.326 151.531 216.453 151.47 216.572Z" fill="#263238"/>
<path d="M151.072 216.816C151.092 217.02 151.092 217.225 151.072 217.428C151.066 217.667 151.046 217.906 151.011 218.142C150.97 218.418 150.94 218.734 150.858 219.076C150.7 219.887 150.468 220.683 150.164 221.452C149.789 222.391 149.325 223.291 148.777 224.14C148.216 224.981 147.575 225.766 146.865 226.486C146.279 227.069 145.643 227.598 144.962 228.067C144.706 228.253 144.439 228.423 144.162 228.577C143.962 228.707 143.752 228.821 143.534 228.919C143.357 229.021 143.169 229.104 142.973 229.163C142.973 229.118 143.733 228.74 144.855 227.919C145.507 227.433 146.121 226.897 146.691 226.318C147.38 225.599 148.003 224.821 148.553 223.992C149.092 223.15 149.556 222.263 149.94 221.34C150.246 220.587 150.491 219.811 150.674 219.02C150.985 217.683 151.016 216.811 151.072 216.816Z" fill="#263238"/>
<path d="M102.801 134.528C101.026 134.787 99.4224 135.729 98.3333 137.154L122.053 170.814L151.669 167.423L151.19 137.139C151.19 137.139 149.18 134.222 147.232 134.548C146.452 134.681 121.401 138.593 119.182 144.723C119.182 144.723 119.442 141.591 117.351 140.026C115.26 138.46 102.801 134.528 102.801 134.528Z" fill="white"/>
<path d="M102.801 134.528L103.148 134.625L104.168 134.941C105.055 135.221 106.376 135.64 108.069 136.211C109.762 136.782 111.843 137.496 114.23 138.434C114.827 138.674 115.439 138.944 116.066 139.215C116.731 139.485 117.341 139.874 117.866 140.362C118.917 141.449 119.34 143.086 119.279 144.723L119.106 144.682C119.644 143.57 120.497 142.641 121.559 142.01C122.648 141.3 123.798 140.688 124.996 140.184C127.611 139.084 130.3 138.173 133.044 137.455C135.92 136.665 138.965 135.966 142.153 135.334C143.744 135.017 145.376 134.717 147.033 134.446C147.47 134.358 147.923 134.388 148.344 134.533C148.756 134.687 149.143 134.902 149.491 135.17C150.182 135.708 150.791 136.343 151.297 137.057L151.322 137.088V137.129C151.445 144.937 151.582 153.449 151.725 162.287C151.756 164.011 151.783 165.719 151.807 167.413V167.53H151.684L122.069 170.911H121.997L121.957 170.855L98.2976 137.19V137.165V137.139C98.7514 136.503 99.3291 135.965 99.9959 135.558C100.478 135.261 100.991 135.018 101.526 134.834C101.84 134.721 102.162 134.632 102.49 134.569C102.601 134.548 102.714 134.538 102.826 134.538C102.715 134.551 102.604 134.57 102.495 134.594C102.17 134.664 101.851 134.76 101.541 134.88C101.023 135.072 100.527 135.32 100.062 135.619C99.4082 136.026 98.8428 136.56 98.3996 137.19V137.139L122.181 170.748L122.069 170.697L151.654 167.28L151.537 167.418C151.509 165.718 151.482 164.018 151.455 162.318C151.317 153.479 151.185 144.978 151.062 137.154L151.088 137.226C150.594 136.534 150.003 135.917 149.333 135.395C149.007 135.142 148.644 134.939 148.257 134.793C147.875 134.66 147.465 134.634 147.069 134.717C145.411 134.982 143.785 135.283 142.193 135.594C139.011 136.221 135.966 136.915 133.095 137.695C130.361 138.406 127.681 139.308 125.073 140.393C123.882 140.89 122.739 141.492 121.656 142.193C120.626 142.8 119.796 143.695 119.269 144.769L119.075 145.243V144.733C119.141 143.147 118.733 141.535 117.729 140.5C117.217 140.022 116.623 139.641 115.974 139.378C115.357 139.087 114.745 138.832 114.154 138.587C111.777 137.639 109.701 136.915 108.034 136.328L104.147 135.012L103.127 134.676C102.913 134.574 102.801 134.528 102.801 134.528Z" fill="#263238"/>
<path d="M117.356 175.501L95.1457 137.761C95.0412 137.586 94.9949 137.382 95.0132 137.179C95.0315 136.975 95.1136 136.783 95.2477 136.629C95.381 136.479 95.5572 136.374 95.7524 136.327C95.9476 136.281 96.1524 136.295 96.3391 136.369L113.847 143.346C114.184 143.478 114.484 143.687 114.725 143.958C114.974 144.236 115.153 144.569 115.248 144.93C115.343 145.291 115.351 145.669 115.27 146.033L115.01 147.201L121.13 148.767L121.263 148.425C121.507 147.799 121.888 147.235 122.379 146.775C122.87 146.315 123.457 145.971 124.098 145.768L152.306 136.782C152.891 136.594 153.524 136.62 154.091 136.854C154.659 137.088 155.125 137.516 155.407 138.062L175.44 176.679L174.762 178.5L142.917 186.048H137.307L117.356 175.501Z" fill="#0984E3"/>
<path d="M117.356 175.501L117.708 175.675L118.728 176.185L122.655 178.225L137.364 185.951H137.323H142.902L174.741 178.378L174.655 178.454C174.854 177.893 175.078 177.261 175.307 176.628V176.72L164.955 156.749C163.146 153.243 161.294 149.673 159.401 146.039L156.57 140.52L155.851 139.128L155.489 138.429C155.382 138.197 155.254 137.975 155.106 137.766C154.803 137.365 154.385 137.066 153.908 136.908C153.43 136.75 152.916 136.742 152.434 136.884L135.772 142.188L127.76 144.738C126.45 145.161 125.124 145.559 123.859 145.993C123.249 146.243 122.703 146.625 122.257 147.11C121.812 147.596 121.48 148.174 121.283 148.803L121.253 148.91L121.135 148.879L115.015 147.314L114.898 147.283L114.924 147.166L115.133 146.232C115.217 145.941 115.25 145.637 115.23 145.335C115.204 145.039 115.12 144.751 114.982 144.488C114.843 144.225 114.654 143.993 114.424 143.805C114.187 143.618 113.919 143.473 113.633 143.376L112.771 143.035L111.053 142.346L104.372 139.679L97.9966 137.129L96.4666 136.517C96.3591 136.457 96.2402 136.42 96.1176 136.409C95.9951 136.398 95.8716 136.413 95.7552 136.453C95.6388 136.493 95.5321 136.557 95.442 136.641C95.3519 136.725 95.2805 136.827 95.2324 136.94C95.1844 137.051 95.1597 137.171 95.1597 137.292C95.1597 137.413 95.1844 137.533 95.2324 137.644L95.6302 138.332L96.436 139.704C100.705 146.972 104.458 153.372 107.564 158.671L114.816 171.059L116.734 174.364L117.244 175.221C117.351 175.409 117.402 175.511 117.402 175.511C117.402 175.511 117.341 175.42 117.229 175.231C117.117 175.042 116.943 174.762 116.719 174.395L114.75 171.105C113.052 168.234 110.573 164.042 107.442 158.758L96.2575 139.801L95.4466 138.429C95.3089 138.195 95.1763 137.975 95.0335 137.725C94.9683 137.589 94.9325 137.44 94.9284 137.289C94.9243 137.138 94.9519 136.987 95.0096 136.847C95.0673 136.708 95.1537 136.581 95.2633 136.477C95.3728 136.373 95.503 136.292 95.6455 136.241C95.9346 136.146 96.2497 136.168 96.5227 136.303L98.0527 136.92L104.433 139.47L111.119 142.132L112.833 142.815L113.7 143.157C114.008 143.262 114.296 143.419 114.551 143.621C114.808 143.831 115.02 144.09 115.174 144.384C115.329 144.677 115.422 144.999 115.449 145.33C115.472 145.658 115.437 145.987 115.347 146.304L115.143 147.237L115.051 147.089L121.171 148.65L121.023 148.726C121.232 148.066 121.584 147.459 122.052 146.949C122.521 146.439 123.096 146.037 123.736 145.773C125.037 145.324 126.337 144.932 127.653 144.509L135.67 141.959L152.332 136.649C152.867 136.492 153.437 136.502 153.966 136.677C154.496 136.852 154.959 137.184 155.295 137.629C155.451 137.848 155.586 138.082 155.698 138.327L156.06 139.026L156.784 140.418C157.74 142.268 158.69 144.106 159.635 145.931L165.189 156.641L175.522 176.623V176.669V176.715L174.869 178.541V178.602H174.803L142.938 186.15H137.328L122.64 178.347L118.738 176.261L117.718 175.72L117.356 175.501Z" fill="#263238"/>
<g opacity="0.3">
<path d="M133.003 181.56L118.447 174.599L98.3484 141.479L116.101 148.364L115.729 149.318L100.776 143.514L119.161 173.808L133.441 180.637L133.003 181.56Z" fill="black"/>
</g>
<g opacity="0.3">
<path d="M144.764 183.6L126.449 150.542L153.439 141.872L171.029 175.95L144.764 183.6ZM127.934 151.133L145.248 182.391L169.544 175.282L152.918 143.096L127.934 151.133Z" fill="black"/>
</g>
<path d="M141.505 185.671C141.444 185.706 136.848 177.511 131.244 167.311C125.639 157.111 121.156 148.864 121.217 148.828C121.278 148.793 125.873 156.988 131.478 167.188C137.083 177.388 141.571 185.64 141.505 185.671Z" fill="#263238"/>
<path d="M115.01 147.191C115.098 147.311 115.177 147.437 115.245 147.569L115.877 148.665C116.423 149.624 117.193 151.016 118.142 152.745C120.034 156.193 122.604 160.987 125.414 166.296L132.6 179.887L134.788 184.003C135.033 184.472 135.227 184.85 135.375 185.125C135.45 185.253 135.513 185.388 135.563 185.528C135.475 185.408 135.397 185.282 135.329 185.15L134.696 184.054C134.151 183.095 133.38 181.703 132.432 179.974C130.54 176.521 127.969 171.727 125.159 166.418L117.958 152.827L115.77 148.716C115.525 148.247 115.332 147.869 115.184 147.594C115.114 147.465 115.055 147.33 115.01 147.191Z" fill="#263238"/>
<path d="M118.453 147.803C118.438 147.284 118.514 146.766 118.677 146.273C118.753 145.758 118.915 145.26 119.156 144.799C119.171 145.318 119.095 145.836 118.932 146.329C118.856 146.844 118.694 147.342 118.453 147.803Z" fill="#263238"/>
<g opacity="0.3">
<path d="M121.834 158.008L132.651 178.046L136.415 178.587L125.659 158.702L121.834 158.008Z" fill="black"/>
</g>
<g opacity="0.3">
<path d="M117.989 152.658L123.981 153.857L125.297 156.04L119.156 154.826L118.085 152.985" fill="black"/>
</g>
<g opacity="0.3">
<path d="M139.363 152.628L138.307 150.185L145.014 147.803L146.182 150.215L139.363 152.628Z" fill="black"/>
</g>
<g opacity="0.3">
<path d="M138.914 165.026L135.196 158.008L154.183 151.006L157.534 158.008L138.914 165.026Z" fill="black"/>
</g>
<path d="M199.961 52.7136C200.701 52.0153 201.592 51.498 202.566 51.2025C203.539 50.9069 204.568 50.8411 205.571 51.0102C206.382 51.153 207.259 51.4437 207.988 51.0561C208.46 50.7028 208.87 50.2737 209.202 49.7862C209.52 49.4699 209.898 49.2209 210.314 49.0542C210.73 48.8874 211.175 48.8064 211.623 48.8159C212.071 48.8255 212.513 48.9253 212.922 49.1096C213.33 49.2938 213.697 49.5587 214.001 49.8882C214.245 50.2618 214.55 50.5912 214.904 50.8623C216.434 51.7752 218.357 48.8733 219.902 49.8015C219.17 50.0393 218.527 50.4948 218.061 51.1071C217.838 51.4195 217.725 51.7976 217.742 52.1812C217.758 52.5648 217.903 52.9318 218.153 53.2236C219.581 54.6057 222.171 51.7956 223.763 52.9584C224.625 53.5908 224.676 55.1157 225.701 55.4166C226.111 55.4782 226.528 55.4678 226.935 55.386C227.631 55.3702 228.308 55.6195 228.828 56.0834C229.347 56.5473 229.672 57.1912 229.735 57.885C229.796 59.0733 229.133 60.486 229.98 61.3173C230.49 61.8273 231.341 61.7967 232.076 61.7202C232.005 62.8092 231.688 63.8678 231.147 64.8159C232.06 65.4513 232.691 66.4156 232.908 67.5064C233.125 68.5971 232.911 69.7295 232.31 70.6656C233.259 71.39 234.058 72.2926 234.661 73.3227C235.197 74.3835 235.268 75.7707 234.524 76.6989C234.33 76.8892 234.167 77.1075 234.039 77.3466C233.942 77.6255 233.926 77.9261 233.993 78.2136C234.167 79.3305 234.6 80.427 234.503 81.5541C234.406 82.6812 233.519 83.8746 232.397 83.7267C232.137 83.691 231.851 83.589 231.627 83.7267C231.546 83.7873 231.478 83.8638 231.427 83.9514C231.376 84.0391 231.343 84.1361 231.331 84.2367C231.215 85.0412 231.228 85.8591 231.372 86.6592C231.514 87.4681 231.344 88.3007 230.898 88.9899C230.388 89.6274 229.271 89.8008 228.796 89.1429L229.577 92.9577C229.73 93.7125 229.842 94.6254 229.271 95.1456C228.521 95.829 227.261 95.2017 226.767 94.3194C226.272 93.4371 226.17 92.3712 225.65 91.5042C225.404 91.1723 225.193 90.817 225.017 90.4434C224.91 90.1323 224.885 89.7702 224.645 89.5509C224.16 89.1072 223.344 89.7753 223.38 90.4332C223.416 91.0911 223.916 91.6062 224.303 92.1366C224.691 92.667 224.987 93.4065 224.625 93.9573C224.451 94.2225 224.15 94.3857 223.982 94.656C223.401 95.5842 224.757 96.5838 224.869 97.6752C224.956 98.481 224.334 99.1746 223.732 99.7152C222.998 100.378 221.621 100.873 221.223 99.9702C221.148 99.6335 221.092 99.293 221.055 98.9502C220.889 98.5828 220.637 98.2608 220.32 98.0118C219.611 97.2994 219.125 96.3954 218.923 95.4108C219.708 96.4818 220.519 97.8843 219.866 99.0369C219.544 99.4886 219.155 99.8892 218.714 100.225C217.923 100.97 217.408 101.964 216.628 102.719C215.847 103.474 214.588 103.958 213.675 103.382C213.817 103.916 213.775 104.483 213.554 104.989C213.333 105.496 212.946 105.912 212.458 106.171C211.97 106.43 211.408 106.515 210.865 106.413C210.322 106.312 209.829 106.029 209.467 105.611C209.302 105.359 209.084 105.145 208.83 104.984C208.518 104.897 208.188 104.897 207.876 104.984C206.91 105.097 205.931 104.943 205.047 104.537C204.162 104.131 203.407 103.49 202.863 102.683L203.847 102.388C201.955 102.046 199.981 101.674 198.451 100.511C196.921 99.348 195.998 97.1397 196.921 95.4414C197.314 94.707 198.038 93.9675 197.768 93.1821C197.579 92.6364 196.988 92.3661 196.457 92.1621L189.776 89.4387C188.695 89.0001 187.558 88.5156 186.869 87.5721C186.181 86.6286 186.191 85.0782 187.196 84.4815C186.717 83.3999 185.943 82.4753 184.962 81.8142C183.865 81.0849 182.56 80.7126 181.433 80.0292C180.306 79.3458 179.301 78.1677 179.449 76.857C179.597 75.5463 181.458 74.613 182.32 75.6177C182.233 73.6236 178.709 73.3329 178.505 71.349C178.337 69.7425 180.418 69.0132 181.53 67.8351C181.341 67.269 180.795 66.8865 180.591 66.3051C180.158 65.1321 181.407 64.0407 182.56 63.5613C183.712 63.0819 185.11 62.6025 185.446 61.3989C185.783 60.1953 184.788 58.701 185.502 57.6453C185.712 57.3588 186.022 57.1615 186.371 57.0926C186.719 57.0236 187.081 57.088 187.384 57.273C188.404 55.0341 192.617 56.9619 193.974 54.9066C194.09 54.7487 194.151 54.5569 194.147 54.3609C194.122 54.1932 194.053 54.035 193.948 53.9019C193.484 53.2542 192.734 52.8819 192.127 52.3719C191.52 51.8619 191.031 51.0102 191.352 50.2758C191.673 49.5414 193.086 49.6383 193.03 50.439C193.248 50.2845 193.498 50.1817 193.762 50.1387C194.026 50.0956 194.296 50.1134 194.552 50.1906C194.808 50.2679 195.043 50.4026 195.238 50.5844C195.434 50.7662 195.586 50.9903 195.682 51.2397C196.263 50.6022 197.345 50.6634 198.064 51.1377C198.752 51.6809 199.301 52.3802 199.665 53.1777" fill="#263238"/>
<path d="M209.554 78.4636C208.927 75.1639 206.576 72.4455 203.944 70.3443C202.895 69.3977 201.628 68.7249 200.257 68.3859C198.87 68.1309 197.273 68.5798 196.539 69.7834L196.671 72.1345C196.279 75.8575 199.079 79.0653 200.364 82.5792C200.925 84.1092 201.384 85.9402 202.842 86.6236C203.644 86.944 204.536 86.9567 205.347 86.6592C208.554 85.6444 210.181 81.7633 209.554 78.4636Z" fill="#455A64"/>
<path d="M209.462 95.7168C210.508 94.3021 211.023 92.5652 210.919 90.8091C210.815 89.053 210.097 87.3893 208.891 86.1084C210.283 84.3999 209.814 81.7377 208.437 80.019C207.06 78.3003 205 77.3007 203.011 76.3521C201.965 71.298 196.34 67.6821 191.311 68.8551C188.736 64.9893 183.177 64.3263 178.699 65.5809C177.631 65.9695 176.513 66.2031 175.379 66.2745C174.549 66.2025 173.725 66.0799 172.91 65.9073C168.382 65.2494 163.843 68.3961 162.032 72.6036C161.791 73.295 161.46 73.9518 161.048 74.5569C160.451 75.3117 159.554 75.7503 158.789 76.3266C157.961 76.9602 157.279 77.7646 156.79 78.6851C156.3 79.6056 156.015 80.6206 155.953 81.6612C155.861 83.4207 156.407 85.2975 155.647 86.8887C155.264 87.6894 154.586 88.3269 154.29 89.1633C153.423 91.5756 156.086 94.0746 155.56 96.5838C155.453 97.0938 155.219 97.5732 155.05 98.073C154.75 99.1116 154.835 100.224 155.29 101.204C155.642 101.949 156.213 102.638 156.254 103.464C156.204 104.087 156.074 104.7 155.866 105.29C155.545 106.789 158.727 112.608 160.013 113.45L198.773 114.189C200.24 113.873 201.574 113.11 202.589 112.003C203.604 110.897 204.25 109.503 204.439 108.013C204.425 107.513 204.554 107.019 204.811 106.59C205.116 106.294 205.479 106.063 205.877 105.912C208.386 104.601 208.723 101.174 208.488 98.3535C208.431 97.9601 208.443 97.5597 208.524 97.1703C208.735 96.6271 209.054 96.1326 209.462 95.7168Z" fill="#263238"/>
<path d="M198.416 95.6658C198.599 88.8063 194.381 80.8758 187.604 77.4588C183.33 75.3015 179.954 75.2556 177.725 74.97C174.551 74.6291 171.348 75.2642 168.545 76.7907C166.403 77.2701 158.503 84.3591 158.018 92.1315C157.478 100.766 157.162 111.333 158.187 117.774C160.252 130.728 170.182 132.371 170.182 132.371L169.733 142.637L176.97 156.06L195.605 137.083L198.416 95.6658Z" fill="#FFBF9D"/>
<path d="M177.577 115.821C177.517 115.158 177.213 114.54 176.725 114.087C176.283 113.664 175.714 113.397 175.106 113.329C174.498 113.261 173.884 113.395 173.359 113.71C172.81 114.086 172.371 114.602 172.088 115.204C171.805 115.807 171.687 116.474 171.748 117.137C172.008 117.544 172.353 117.891 172.758 118.155C173.164 118.419 173.621 118.593 174.099 118.667C174.252 118.667 174.405 118.703 174.558 118.708C175.32 118.742 176.067 118.491 176.654 118.004C176.962 117.733 177.206 117.396 177.366 117.018C177.526 116.64 177.598 116.231 177.577 115.821Z" fill="#FF9A6C"/>
<path d="M160.93 103.714C160.926 104.147 161.092 104.565 161.392 104.878C161.693 105.191 162.104 105.373 162.537 105.386C162.748 105.403 162.961 105.377 163.162 105.31C163.363 105.244 163.548 105.137 163.708 104.997C163.867 104.858 163.997 104.687 164.089 104.497C164.181 104.306 164.235 104.099 164.245 103.887C164.251 103.454 164.086 103.036 163.787 102.723C163.487 102.41 163.077 102.228 162.644 102.214C162.433 102.198 162.22 102.223 162.019 102.29C161.817 102.357 161.631 102.463 161.472 102.603C161.312 102.743 161.182 102.913 161.089 103.104C160.996 103.294 160.942 103.502 160.93 103.714Z" fill="#263238"/>
<path d="M160.956 97.0989C161.165 97.3182 162.425 96.3849 164.21 96.3849C165.995 96.3849 167.311 97.2825 167.504 97.0632C167.596 96.9663 167.387 96.5787 166.816 96.1605C166.042 95.6244 165.121 95.3412 164.179 95.3496C163.251 95.3487 162.346 95.6414 161.594 96.186C161.043 96.6093 160.859 97.002 160.956 97.0989Z" fill="#263238"/>
<path d="M171.427 111.211C171.427 111.109 170.325 110.92 168.525 110.701C168.066 110.655 167.632 110.563 167.556 110.252C167.516 109.781 167.623 109.309 167.862 108.9L169.208 105.422C171.08 100.47 172.436 96.4002 172.237 96.3237C172.039 96.2472 170.356 100.205 168.484 105.157C168.035 106.376 167.602 107.539 167.194 108.656C166.906 109.206 166.823 109.84 166.959 110.446C167.025 110.607 167.126 110.751 167.256 110.866C167.386 110.982 167.541 111.067 167.709 111.114C167.962 111.18 168.222 111.216 168.484 111.221C170.294 111.308 171.421 111.313 171.427 111.211Z" fill="#263238"/>
<path d="M170.203 132.371C176.3 132.457 182.302 130.853 187.543 127.735C187.543 127.735 182.953 137.042 169.993 135.839L170.203 132.371Z" fill="#FF9A6C"/>
<path d="M176.69 112.445C176.399 112.445 176.394 114.368 174.736 115.75C173.079 117.132 171.008 116.912 170.993 117.188C170.993 117.305 171.457 117.56 172.329 117.586C173.466 117.603 174.572 117.216 175.45 116.494C176.302 115.806 176.851 114.812 176.98 113.725C177.036 112.914 176.822 112.435 176.69 112.445Z" fill="#263238"/>
<path d="M161.67 90.3975C161.971 90.8361 163.343 90.5454 164.939 90.678C166.536 90.8106 167.867 91.2288 168.219 90.8361C168.377 90.6423 168.219 90.219 167.647 89.7804C166.889 89.2303 165.987 88.9115 165.052 88.8624C164.121 88.7853 163.189 88.9821 162.369 89.4285C161.772 89.7906 161.548 90.1884 161.67 90.3975Z" fill="#263238"/>
<path d="M180.152 104.474C180.138 104.903 179.958 105.31 179.65 105.61C179.342 105.909 178.93 106.078 178.5 106.08C178.288 106.089 178.077 106.055 177.878 105.981C177.679 105.907 177.497 105.794 177.343 105.649C177.188 105.503 177.064 105.329 176.979 105.135C176.893 104.941 176.846 104.731 176.843 104.519C176.856 104.087 177.037 103.676 177.347 103.375C177.657 103.073 178.072 102.904 178.505 102.903C178.717 102.895 178.928 102.93 179.127 103.006C179.325 103.081 179.506 103.195 179.659 103.341C179.813 103.488 179.936 103.663 180.02 103.858C180.105 104.052 180.15 104.261 180.152 104.474Z" fill="#263238"/>
<path d="M185.421 97.7875C185.207 97.9966 183.983 97.0225 182.198 96.9562C180.413 96.8899 179.066 97.7416 178.883 97.5172C178.791 97.4152 179.015 97.0072 179.602 96.64C180.394 96.133 181.324 95.8836 182.264 95.9259C183.191 95.9566 184.084 96.2817 184.814 96.8542C185.355 97.2979 185.523 97.6957 185.421 97.7875Z" fill="#263238"/>
<path d="M185.926 91.8C185.559 92.1927 184.192 91.7184 182.539 91.6368C180.887 91.5552 179.479 91.8 179.158 91.3614C179.025 91.1523 179.26 90.7545 179.887 90.3924C180.745 89.9595 181.703 89.7639 182.661 89.8258C183.62 89.8876 184.544 90.2048 185.339 90.7443C185.91 91.1778 186.084 91.6011 185.926 91.8Z" fill="#263238"/>
<path d="M196.279 107.941C196.279 106.972 197.396 104.698 198.349 104.55C200.899 104.152 205.489 104.356 205.525 110.813C205.586 119.646 196.707 117.892 196.687 117.637C196.666 117.382 196.274 111.272 196.279 107.941Z" fill="#FFBF9D"/>
<path d="M199.104 114.393C199.14 114.362 199.257 114.5 199.517 114.617C199.887 114.764 200.3 114.764 200.67 114.617C201.598 114.266 202.373 112.781 202.404 111.19C202.424 110.432 202.273 109.678 201.96 108.987C201.875 108.712 201.724 108.461 201.521 108.256C201.317 108.052 201.067 107.9 200.792 107.814C200.615 107.769 200.428 107.786 200.263 107.865C200.098 107.943 199.966 108.077 199.89 108.242C199.772 108.492 199.828 108.666 199.782 108.681C199.737 108.696 199.594 108.538 199.66 108.171C199.707 107.952 199.827 107.756 200.002 107.615C200.245 107.43 200.55 107.347 200.853 107.386C201.217 107.454 201.556 107.615 201.84 107.852C202.123 108.09 202.34 108.396 202.47 108.742C202.853 109.504 203.042 110.348 203.021 111.2C202.98 112.98 202.077 114.653 200.802 115.031C200.566 115.102 200.317 115.119 200.073 115.08C199.829 115.041 199.597 114.948 199.395 114.806C199.119 114.607 199.074 114.408 199.104 114.393Z" fill="#FF9A6C"/>
<path d="M156.019 92.2539C157.804 91.137 158.947 89.6172 158.834 87.516C160.018 87.8679 161.221 86.3481 161.894 85.323C162.568 84.2979 163.424 83.793 163.379 82.5486C163.345 82.3055 163.375 82.0578 163.465 81.8295C163.644 81.4929 164.067 81.3807 164.429 81.2685C165.371 80.9642 166.222 80.4284 166.904 79.7103C167.585 78.9922 168.076 78.1147 168.331 77.1579C170.232 77.9926 172.31 78.343 174.379 78.1779C174.84 78.8439 175.462 79.3822 176.187 79.7426C176.912 80.1029 177.717 80.2734 178.526 80.2383C179.335 80.2031 180.122 79.9634 180.813 79.5416C181.504 79.1197 182.077 78.5295 182.478 77.826C182.776 78.3646 183.187 78.8325 183.683 79.1978C184.178 79.563 184.747 79.8171 185.349 79.9425C186.554 80.1849 187.787 80.2519 189.011 80.1414C188.783 81.3391 188.995 82.5787 189.608 83.6327C190.221 84.6866 191.193 85.4842 192.347 85.8789C192.658 85.9758 193.02 86.0727 193.168 86.3889C193.211 86.554 193.221 86.7259 193.197 86.8949C193.174 87.0638 193.117 87.2264 193.03 87.3732C192.862 87.8812 192.798 88.4179 192.842 88.9511C192.886 89.4844 193.037 90.0033 193.286 90.4769C193.535 90.9505 193.877 91.3692 194.291 91.7078C194.705 92.0464 195.184 92.298 195.697 92.4477C195.362 92.7465 195.099 93.1172 194.927 93.5321C194.755 93.9471 194.679 94.3955 194.705 94.8438C194.731 95.2921 194.858 95.7288 195.077 96.121C195.296 96.5133 195.6 96.8511 195.968 97.1091C196.289 97.3029 196.707 97.5324 196.656 97.9047C196.627 98.0458 196.56 98.1763 196.462 98.2821C195.804 99.1542 195.152 100.113 195.07 101.199C194.988 102.286 195.728 103.515 196.819 103.566C196.512 103.796 196.253 104.085 196.061 104.417C195.868 104.75 195.744 105.117 195.697 105.499C195.697 106.269 196.462 107.029 197.176 106.774C197.482 106.656 201.878 105.789 202.072 105.529C204.571 102.138 201.43 98.3892 201.185 94.1817C200.851 89.9619 199.544 85.8769 197.365 82.2477C196.515 80.6956 195.462 79.2635 194.234 77.9892C192.755 76.6204 191.126 75.4228 189.378 74.4192C187.145 73.0269 184.85 71.6448 182.289 71.0379C177.526 69.9159 172.599 71.6448 168.127 73.7001C166.407 74.4214 164.793 75.3718 163.328 76.5255C161.676 78.0298 160.306 79.8175 159.283 81.804C157.707 84.6141 156.397 87.6435 156.086 90.8463" fill="#263238"/>
<path d="M154.291 89.1633C154.397 88.8237 154.557 88.5034 154.765 88.2147C154.954 87.9189 155.219 87.5772 155.469 87.1386C155.754 86.6321 155.928 86.0705 155.979 85.4913C156.027 84.764 156.015 84.0339 155.943 83.3085C155.846 82.4339 155.87 81.5501 156.014 80.682C156.208 79.6858 156.604 78.7399 157.177 77.9025C157.491 77.445 157.857 77.0257 158.269 76.653C158.706 76.2781 159.171 75.9371 159.661 75.633C160.17 75.324 160.625 74.9328 161.007 74.4753C161.357 73.9608 161.64 73.4038 161.849 72.8178C162.926 70.2025 164.903 68.0588 167.423 66.7743C168.101 66.4339 168.814 66.1671 169.55 65.9787C170.31 65.7994 171.089 65.712 171.87 65.7186C172.269 65.7306 172.668 65.763 173.064 65.8155C173.456 65.8767 173.844 65.9634 174.237 66.0348C175.015 66.1981 175.819 66.1981 176.598 66.0348C177.388 65.8767 178.164 65.5962 178.98 65.3922C180.643 64.958 182.366 64.8029 184.08 64.9332C184.958 65.0179 185.826 65.1888 186.67 65.4432C188.41 65.9272 189.957 66.9393 191.097 68.34C191.204 68.4879 191.311 68.6358 191.424 68.7786L191.281 68.7225C193.854 68.2323 196.516 68.747 198.721 70.1606C200.926 71.5741 202.505 73.779 203.133 76.3215L203.067 76.2348C204.131 76.7141 205.163 77.2609 206.158 77.8719C207.131 78.467 207.987 79.2363 208.682 80.1414C209.339 81.0362 209.736 82.0951 209.83 83.2014C209.937 84.2682 209.632 85.3357 208.978 86.1849V86.037C210.167 87.2655 210.888 88.8713 211.018 90.576C211.163 92.0984 210.839 93.6288 210.09 94.962C209.917 95.2677 209.721 95.5593 209.503 95.8341C209.285 96.0863 209.081 96.3502 208.891 96.6246C208.716 96.8834 208.608 97.1811 208.575 97.4916C208.558 97.7961 208.566 98.1015 208.6 98.4045C208.697 99.5233 208.663 100.65 208.498 101.76C208.375 102.659 208.079 103.525 207.626 104.31C207.284 104.887 206.813 105.376 206.249 105.738C205.795 106.039 205.387 106.157 205.163 106.32C205.047 106.397 204.94 106.486 204.842 106.585C204.922 106.466 205.026 106.365 205.148 106.289C205.367 106.116 205.775 105.988 206.214 105.682C206.76 105.317 207.214 104.83 207.54 104.259C207.978 103.481 208.262 102.626 208.376 101.74C208.525 100.639 208.549 99.5257 208.447 98.4198C208.409 98.1069 208.399 97.7911 208.417 97.4763C208.45 97.139 208.566 96.8149 208.753 96.5328C208.943 96.2533 209.147 95.9843 209.365 95.727C209.57 95.4517 209.754 95.162 209.916 94.86C210.639 93.5549 210.945 92.0601 210.793 90.576C210.668 88.9243 209.968 87.3688 208.815 86.1798L208.743 86.1084L208.804 86.0319C209.423 85.2256 209.706 84.2115 209.595 83.2014C209.502 82.1426 209.119 81.1298 208.488 80.274C207.808 79.3977 206.973 78.6528 206.025 78.0759C205.04 77.4738 204.018 76.9338 202.965 76.4592L202.909 76.4337V76.3674C202.289 73.8961 200.748 71.7549 198.602 70.3813C196.456 69.0078 193.866 68.5057 191.362 68.9775H191.276L191.22 68.9061C191.118 68.7633 191.011 68.6256 190.903 68.4828C189.8 67.1075 188.296 66.1109 186.599 65.6319C185.767 65.392 184.912 65.2349 184.049 65.1627C182.368 65.0318 180.677 65.1818 179.046 65.6064C178.245 65.8053 177.46 66.0909 176.644 66.249C176.237 66.3306 175.824 66.3716 175.41 66.3714C175 66.3609 174.593 66.3165 174.191 66.2388C173.798 66.1674 173.41 66.0807 173.023 66.0195C172.639 65.967 172.252 65.9346 171.865 65.9226C171.105 65.9129 170.346 65.9969 169.606 66.1725C168.887 66.354 168.189 66.6122 167.525 66.9426C165.043 68.2027 163.094 70.3081 162.027 72.879C161.81 73.4814 161.517 74.0538 161.155 74.5824C160.757 75.0531 160.285 75.4562 159.758 75.7758C159.27 76.0778 158.808 76.419 158.376 76.7958C157.975 77.1579 157.617 77.5652 157.31 78.0096C156.74 78.8243 156.346 79.7481 156.152 80.7228C156.002 81.5763 155.97 82.4462 156.055 83.3085C156.121 84.0414 156.121 84.7788 156.055 85.5117C156.004 86.1005 155.831 86.6722 155.545 87.1896C155.28 87.6333 155.01 87.9648 154.816 88.2555C154.664 88.4691 154.53 88.6942 154.413 88.9287C154.326 89.0766 154.296 89.1633 154.291 89.1633Z" fill="#455A64"/>
<path d="M187.17 66.9069C187.17 66.9069 186.936 66.7743 186.507 66.5601C185.903 66.2632 185.253 66.0717 184.584 65.994C183.595 65.8703 182.591 66.0147 181.677 66.4122C180.557 66.9043 179.623 67.7403 179.01 68.799C178.824 69.1213 178.676 69.4634 178.566 69.819C178.51 69.9693 178.486 70.1301 178.498 70.2904C178.509 70.4506 178.555 70.6065 178.633 70.7472L178.847 71.0481L178.49 70.9461C177.571 70.6953 176.592 70.8105 175.756 71.2674C175.096 71.6386 174.571 72.2101 174.257 72.8994C174.046 73.3561 173.928 73.8502 173.91 74.3529C173.91 74.7048 173.91 74.8986 173.91 74.9037C173.91 74.9088 173.91 74.8578 173.869 74.766C173.841 74.63 173.826 74.4917 173.823 74.3529C173.807 73.6917 173.968 73.0383 174.29 72.4606C174.612 71.8829 175.083 71.4022 175.654 71.0685C176.538 70.5669 177.584 70.4331 178.566 70.6962L178.424 70.8951C178.321 70.724 178.259 70.5318 178.241 70.3331C178.223 70.1343 178.251 69.9342 178.322 69.7476C178.434 69.3769 178.59 69.0208 178.786 68.6868C179.42 67.5815 180.395 66.7118 181.565 66.2082C182.524 65.7862 183.583 65.6413 184.62 65.79C185.305 65.8834 185.967 66.1067 186.568 66.4479C186.732 66.5387 186.889 66.641 187.038 66.7539C187.124 66.8559 187.17 66.8967 187.17 66.9069Z" fill="#455A64"/>
<path d="M201.476 77.0814C201.476 77.0814 201.384 77.2089 201.17 77.3925C200.856 77.66 200.514 77.8926 200.15 78.0861C199.608 78.3831 199.007 78.5572 198.39 78.5961C197.601 78.6551 196.819 78.4167 196.197 77.928L196.391 77.8974C196.309 78.0147 196.223 78.1371 196.131 78.2595C196.039 78.3819 195.932 78.489 195.83 78.6063C195.218 79.237 194.459 79.7066 193.622 79.9731C192.944 80.1976 192.228 80.286 191.515 80.2332C191.038 80.1962 190.569 80.0879 190.123 79.9119C189.959 79.8527 189.805 79.7703 189.664 79.6671C190.266 79.8698 190.892 79.9965 191.526 80.0445C192.218 80.0721 192.91 79.97 193.566 79.7436C194.356 79.4734 195.073 79.0209 195.657 78.4227C195.753 78.3105 195.855 78.2085 195.942 78.0963L196.192 77.7546L196.279 77.6322L196.386 77.724C196.957 78.1756 197.674 78.4023 198.4 78.3615C198.99 78.333 199.567 78.18 200.094 77.9127C200.991 77.4741 201.45 77.0406 201.476 77.0814Z" fill="#455A64"/>
<path d="M206.127 85.2822C206.127 85.2822 206.127 85.3383 206.127 85.4454C206.084 85.5965 206.017 85.7396 205.928 85.8687C205.588 86.3518 205.078 86.6888 204.5 86.8122C203.651 86.9642 202.776 86.8668 201.981 86.5317C201.506 86.3748 201.041 86.1909 200.588 85.9809C200.064 85.7644 199.633 85.3709 199.369 84.8691C199.369 84.8181 199.334 84.7671 199.313 84.7263L199.522 84.7875C198.733 85.4396 197.849 85.9676 196.901 86.3532C196.113 86.6661 195.253 86.7544 194.417 86.6082C193.855 86.5116 193.328 86.2709 192.887 85.9095C192.768 85.8115 192.66 85.7003 192.566 85.578C192.505 85.4964 192.474 85.4505 192.484 85.4454C192.495 85.4403 192.637 85.5984 192.948 85.8279C193.391 86.1434 193.904 86.3465 194.443 86.4195C195.243 86.536 196.061 86.4356 196.809 86.1288C197.729 85.7448 198.588 85.2295 199.359 84.5988L199.502 84.4866L199.568 84.66L199.614 84.7824C199.852 85.2262 200.235 85.574 200.7 85.7667C201.154 85.986 201.624 86.1594 202.062 86.3226C202.815 86.6532 203.645 86.7663 204.459 86.649C205.002 86.5488 205.491 86.2597 205.841 85.833C205.951 85.6573 206.046 85.4731 206.127 85.2822Z" fill="#455A64"/>
<path d="M215.654 53.7591C215.654 53.7591 215.501 53.7591 215.235 53.8356C214.85 53.9426 214.505 54.1629 214.246 54.468C213.84 54.9394 213.604 55.5342 213.578 56.1561C213.566 56.9703 213.676 57.7817 213.904 58.5633L213.94 58.7061H213.792C212.699 58.6758 211.625 59.0015 210.732 59.6343C210.231 59.9833 209.819 60.4444 209.527 60.981C209.236 61.5175 209.074 62.1147 209.054 62.7249C209.026 63.2809 209.127 63.8358 209.349 64.3463C209.572 64.8568 209.909 65.309 210.334 65.6676L210.63 65.9022H210.253C209.623 65.9024 209 66.033 208.424 66.2858C207.847 66.5386 207.329 66.9081 206.902 67.371C206.222 68.1153 205.82 69.0721 205.765 70.0791C205.724 70.7421 205.825 71.4062 206.061 72.0273C206.224 72.4659 206.361 72.6801 206.346 72.6954C206.301 72.6503 206.263 72.5988 206.234 72.5424C206.136 72.3902 206.05 72.2298 205.979 72.063C205.706 71.4348 205.577 70.7534 205.602 70.0689C205.634 69.0146 206.037 68.0053 206.739 67.218C207.183 66.7256 207.725 66.3315 208.33 66.061C208.935 65.7905 209.59 65.6495 210.253 65.6472L210.176 65.8767C209.716 65.494 209.351 65.0096 209.111 64.4617C208.87 63.9139 208.76 63.3175 208.789 62.7198C208.796 62.0529 208.972 61.3985 209.299 60.8175C209.62 60.2706 210.052 59.7978 210.569 59.4303C211.508 58.772 212.636 58.4405 213.782 58.4868L213.67 58.6245C213.446 57.8199 213.35 56.9853 213.384 56.151C213.424 55.4946 213.691 54.8725 214.139 54.3915C214.42 54.0795 214.794 53.8652 215.205 53.7795C215.311 53.7581 215.418 53.7496 215.526 53.754C215.618 53.7489 215.654 53.754 215.654 53.7591Z" fill="#455A64"/>
<path d="M231.377 72.93C231.377 72.93 231.331 72.9657 231.234 73.0167C231.137 73.0677 230.989 73.1443 230.79 73.2208C230.219 73.4376 229.62 73.5716 229.011 73.6186C228.073 73.6923 227.129 73.5778 226.236 73.2819C225.087 72.9092 224.059 72.2325 223.263 71.3236H223.462C223.042 72.0437 222.468 72.6613 221.779 73.1315C221.091 73.6017 220.307 73.9127 219.484 74.0418C218.597 74.162 217.696 74.0001 216.907 73.579C216.118 73.1579 215.481 72.499 215.088 71.6958H215.317C215.1 72.2791 214.732 72.7946 214.251 73.1901C213.821 73.5477 213.331 73.8258 212.803 74.0112C211.935 74.2924 211.017 74.3863 210.11 74.2867C209.526 74.2331 208.946 74.1377 208.376 74.0011C208.171 73.9638 207.97 73.9092 207.774 73.8378C207.982 73.8502 208.188 73.8792 208.391 73.9245C208.963 74.0271 209.54 74.0986 210.12 74.1387C211.003 74.2094 211.892 74.1001 212.731 73.8175C213.26 73.644 213.745 73.3569 214.151 72.9763C214.557 72.5956 214.875 72.1308 215.082 71.6142L215.19 71.3184L215.312 71.604C215.689 72.353 216.29 72.9657 217.031 73.357C217.772 73.7483 218.617 73.8985 219.448 73.7868C220.233 73.6621 220.98 73.3662 221.638 72.9202C222.295 72.4743 222.847 71.8891 223.253 71.2062L223.339 71.0583L223.452 71.1909C224.216 72.0727 225.202 72.7346 226.308 73.1086C227.171 73.4124 228.086 73.5424 229 73.4911C229.816 73.4254 230.618 73.2362 231.377 72.93Z" fill="#455A64"/>
<path d="M222.09 85.8331C222.09 85.8331 222.09 85.9044 221.988 85.9962C221.845 86.1205 221.667 86.1972 221.478 86.2156C220.81 86.2701 220.139 86.1579 219.525 85.8892C218.599 85.511 217.814 84.853 217.281 84.0072C216.632 82.9585 216.403 81.7038 216.638 80.4934V80.4678L216.827 80.6106C215.728 81.1443 214.489 81.3141 213.287 81.0951C212.316 80.9172 211.399 80.5195 210.605 79.9323C210.075 79.5397 209.6 79.0784 209.192 78.5604C209.036 78.3757 208.904 78.1717 208.799 77.9536C209.358 78.64 210 79.2534 210.712 79.7793C211.494 80.3261 212.387 80.692 213.328 80.8503C214.475 81.0463 215.655 80.8806 216.704 80.3761L216.944 80.2536L216.898 80.5189V80.5443C216.69 81.5848 216.844 82.6653 217.334 83.6062C217.825 84.547 218.623 85.2915 219.596 85.7158C220.18 85.9896 220.818 86.1257 221.463 86.1136C221.581 86.1106 221.697 86.0842 221.804 86.0361C221.912 85.9879 222.009 85.9189 222.09 85.8331Z" fill="#455A64"/>
<path d="M196.35 54.06C196.051 54.9321 195.914 55.8518 195.947 56.7732C196.029 58.2334 196.636 59.6148 197.657 60.662C198.678 61.7092 200.043 62.3514 201.501 62.4699H201.664L201.613 62.628C201.096 64.2991 201.157 66.0959 201.787 67.728C201.884 68.0008 202.003 68.2652 202.144 68.5185C202.189 68.6109 202.255 68.6916 202.336 68.7544C202.417 68.8172 202.512 68.8604 202.613 68.8806C202.676 68.8886 202.74 68.8832 202.8 68.8648C202.861 68.8463 202.917 68.8152 202.965 68.7735C203.026 68.7072 203.041 68.6562 203.052 68.6613C203.062 68.6664 203.052 68.7174 203.001 68.8041C202.952 68.861 202.891 68.9056 202.821 68.9339C202.752 68.9623 202.677 68.9738 202.603 68.9673C202.485 68.9551 202.372 68.9144 202.273 68.8487C202.174 68.7829 202.093 68.6941 202.037 68.5899C201.878 68.3368 201.742 68.0706 201.629 67.7943C200.935 66.1319 200.843 64.2795 201.369 62.5566L201.481 62.7249C200.75 62.6718 200.035 62.4888 199.369 62.1843C198.315 61.7204 197.416 60.9653 196.776 60.0076C196.136 59.05 195.783 57.9296 195.759 56.7783C195.733 56.0868 195.83 55.3963 196.044 54.7383C196.102 54.5638 196.172 54.3934 196.253 54.2283C196.277 54.1678 196.31 54.1111 196.35 54.06Z" fill="#455A64"/>
<path d="M202.394 104.882V103.474L188.246 98.94C183.202 96.7827 176.006 98.0322 171.783 100.638L168.116 100.735L168.152 100.679C163.955 97.3692 156.881 96.7011 151.394 99.093L151.526 99.6795C151.526 99.7152 151.562 99.8019 151.587 99.9243L151.71 100.434C152.449 103.688 153.321 107.131 154.193 108.054C154.78 108.676 156.743 109.018 158.365 109.191C158.977 109.262 159.538 109.303 159.941 109.334C160.426 109.364 164.725 109.635 165.459 108.972C166.194 108.309 167.622 103.005 168.009 101.408L171.768 101.327C172.217 102.587 172.982 108.237 174.787 109.375C176.593 110.512 184.508 110.17 185.405 108.865C186.043 107.931 188.251 102.388 188.751 100.638L188.828 100.485L202.394 104.882ZM165.036 108.452C164.235 109.084 155.672 108.64 154.658 107.569C153.801 106.661 152.745 102.02 152.347 100.276V100.205C157.243 98.3433 163.618 98.9349 167.27 101.735C166.546 104.489 165.495 108.023 165.036 108.436V108.452ZM184.88 108.452C184.319 109.278 177.006 109.951 175.144 108.778C173.849 107.967 173.165 104.02 172.594 101.755C176.72 99.2868 183.773 98.2464 188.251 100.47C187.37 103.223 186.241 105.891 184.88 108.441V108.452Z" fill="#263238"/>
<g opacity="0.3">
<path d="M173.334 102.209C173.334 102.209 174.104 107.743 175.695 107.998C177.286 108.253 179.183 99.8937 179.183 99.8937C179.183 99.8937 174.344 100.853 173.334 102.209Z" fill="white"/>
</g>
<g opacity="0.3">
<path d="M152.959 100.434C152.959 100.434 153.729 106.718 155.321 106.973C156.912 107.228 160.109 99.5724 160.109 99.5724C160.109 99.5724 153.969 99.0777 152.959 100.434Z" fill="white"/>
</g>
<path d="M202.021 202.802C200.338 201.032 194.988 196.58 193.407 195.952C191.826 195.325 186.905 206.887 186.589 209.916C186.273 212.945 187.986 216.923 190.118 219.58C193.178 223.375 200.517 228.031 203.301 229.327C206.086 230.622 214.011 235.156 218.805 224.961C223.599 214.766 222.987 214.848 224.339 210.645C226.425 204.138 228.154 191.306 229.204 183.498C230.099 176.363 230.391 169.165 230.076 161.981C229.74 155.662 227.965 149.976 223.717 146.064C220.147 142.775 208.233 171.6 208.233 171.855C208.233 172.11 202.746 202.74 202.746 202.74" fill="#455A64"/>
<path d="M162.624 165.607C162.624 165.607 161.481 163.649 165.618 163.057C169.754 162.466 172.727 163.134 173.655 163.532C174.583 163.929 179.775 168.82 180.183 169.769C181.305 172.319 183.182 180.045 183.182 180.045L185.732 183.651L179.739 194.407C179.188 193.762 178.589 193.159 177.949 192.602C177.052 191.847 174.354 190.949 173.808 188.69C173.263 186.863 172.526 185.099 171.61 183.427C171.61 183.427 161.553 181.249 160.66 180.795C159.768 180.341 159.834 178.99 159.834 178.99C158.78 178.874 157.734 178.692 156.703 178.444C156.152 178.22 154.872 176.404 157.009 175.45C159.146 174.497 166.24 173.951 167.209 173.951C168.178 173.951 172.788 174.553 172.788 174.553C172.788 174.553 166.729 173.186 164.873 173.023C163.017 172.859 158.819 172.967 158.146 172.814C157.305 172.62 156.749 170.641 158.325 169.922C160.232 169.05 163.277 168.779 163.97 168.754C166.658 168.657 173.104 169.646 173.104 169.646L170.779 167.061C168.887 166.717 166.973 166.507 165.051 166.433C164.177 166.413 163.329 166.125 162.624 165.607Z" fill="#FFBF9D"/>
<path d="M176.97 191.347L193.826 216.572C193.826 216.572 200.966 207.856 201.476 201.511L201.792 198.395L182.922 180.035L176.97 191.347Z" fill="#FFBF9D"/>
<path d="M172.156 179.036C171.542 179.002 170.931 178.936 170.325 178.837C169.203 178.704 167.642 178.566 165.913 178.536C164.184 178.505 162.619 178.602 161.492 178.699C160.883 178.781 160.27 178.83 159.656 178.847C159.81 178.786 159.971 178.745 160.135 178.724C160.451 178.658 160.905 178.587 161.471 178.515C162.946 178.329 164.432 178.247 165.918 178.271C167.402 178.296 168.883 178.422 170.35 178.648C170.916 178.74 171.37 178.826 171.676 178.898C171.841 178.923 172.002 178.969 172.156 179.036Z" fill="#FF9A6C"/>
<path d="M212.573 200.741C212.354 200.627 212.145 200.492 211.951 200.338L210.319 199.165C208.947 198.145 207.06 196.763 204.99 195.208C204.04 194.45 203.014 193.792 201.93 193.244C201.453 193.029 200.958 192.858 200.451 192.734C200.009 192.615 199.556 192.54 199.099 192.51C198.441 192.454 197.783 192.608 197.217 192.948C196.824 193.198 196.651 193.402 196.631 193.387C196.61 193.372 196.666 193.326 196.748 193.229C196.872 193.091 197.01 192.968 197.161 192.862C197.732 192.469 198.418 192.279 199.109 192.321C199.579 192.341 200.045 192.408 200.502 192.52C201.027 192.639 201.54 192.81 202.032 193.03C203.132 193.573 204.17 194.235 205.127 195.004C207.203 196.564 209.07 197.982 210.411 199.022L211.997 200.267C212.204 200.406 212.397 200.565 212.573 200.741Z" fill="#263238"/>
<path d="M220.703 200.792C220.667 200.828 220.075 200.139 218.984 199.196C218.337 198.644 217.655 198.133 216.944 197.666C215.221 196.523 213.327 195.663 211.334 195.116C210.518 194.893 209.688 194.723 208.85 194.606C207.412 194.402 206.509 194.407 206.509 194.356C206.72 194.319 206.934 194.307 207.147 194.32C207.395 194.306 207.643 194.306 207.891 194.32C208.177 194.32 208.508 194.346 208.871 194.397C209.731 194.492 210.583 194.648 211.421 194.866C212.434 195.14 213.425 195.493 214.384 195.922C215.336 196.361 216.253 196.873 217.127 197.452C217.836 197.935 218.509 198.469 219.142 199.048C219.417 199.288 219.652 199.532 219.846 199.736C220.025 199.911 220.195 200.095 220.356 200.287C220.49 200.442 220.606 200.611 220.703 200.792Z" fill="#263238"/>
<path d="M217.852 146.243C217.672 146.458 217.476 146.659 217.265 146.844C217.066 147.028 216.832 147.257 216.572 147.543C216.312 147.829 215.995 148.124 215.689 148.502C215.383 148.879 215.026 149.262 214.669 149.716C214.312 150.17 213.971 150.659 213.603 151.179C212.06 153.48 210.889 156.01 210.135 158.676C209.977 159.293 209.814 159.875 209.712 160.436C209.61 160.997 209.503 161.512 209.432 161.966C209.36 162.42 209.314 162.879 209.274 163.261C209.233 163.644 209.202 163.97 209.187 164.24C209.183 164.523 209.158 164.804 209.11 165.082C209.078 164.801 209.069 164.518 209.085 164.235C209.085 163.965 209.085 163.634 209.126 163.246C209.166 162.858 209.172 162.425 209.243 161.94C209.314 161.456 209.376 160.92 209.493 160.37C209.61 159.819 209.748 159.217 209.901 158.59C210.635 155.888 211.82 153.329 213.405 151.021C213.777 150.511 214.129 150.001 214.496 149.563C214.863 149.124 215.205 148.711 215.516 148.354C215.827 147.997 216.159 147.686 216.434 147.416C216.665 147.18 216.909 146.957 217.163 146.747C217.378 146.56 217.609 146.391 217.852 146.243Z" fill="#263238"/>
<path d="M202.021 202.802C200.338 201.032 194.988 196.58 193.407 195.952C191.826 195.325 186.905 206.887 186.589 209.916C186.273 212.945 187.986 216.923 190.118 219.58C193.178 223.375 200.517 228.031 203.301 229.327C206.086 230.622 214.011 235.156 218.805 224.961C223.599 214.766 222.987 214.848 224.339 210.645C226.425 204.138 228.154 191.306 229.204 183.498C230.099 176.363 230.391 169.165 230.076 161.981C229.74 155.662 227.965 149.976 223.717 146.064C220.147 142.775 208.233 171.6 208.233 171.855C208.233 172.11 202.746 202.74 202.746 202.74" fill="#455A64"/>
<path d="M162.624 165.607C162.624 165.607 161.481 163.649 165.618 163.057C169.754 162.466 172.727 163.134 173.655 163.532C174.583 163.929 179.775 168.82 180.183 169.769C181.305 172.319 183.182 180.045 183.182 180.045L185.732 183.651L179.739 194.407C179.188 193.762 178.589 193.159 177.949 192.602C177.052 191.847 174.354 190.949 173.808 188.69C173.263 186.863 172.526 185.099 171.61 183.427C171.61 183.427 161.553 181.249 160.66 180.795C159.768 180.341 159.834 178.99 159.834 178.99C158.78 178.874 157.734 178.692 156.703 178.444C156.152 178.22 154.872 176.404 157.009 175.45C159.146 174.497 166.24 173.951 167.209 173.951C168.178 173.951 172.788 174.553 172.788 174.553C172.788 174.553 166.729 173.186 164.873 173.023C163.017 172.859 158.819 172.967 158.146 172.814C157.305 172.62 156.749 170.641 158.325 169.922C160.232 169.05 163.277 168.779 163.97 168.754C166.658 168.657 173.104 169.646 173.104 169.646L170.779 167.061C168.887 166.717 166.973 166.507 165.051 166.433C164.177 166.413 163.329 166.125 162.624 165.607Z" fill="#FFBF9D"/>
<path d="M176.97 191.347L193.826 216.572C193.826 216.572 200.966 207.856 201.476 201.511L201.792 198.395L182.922 180.035L176.97 191.347Z" fill="#FFBF9D"/>
<path d="M172.156 179.036C171.542 179.002 170.931 178.936 170.325 178.837C169.203 178.704 167.642 178.566 165.913 178.536C164.184 178.505 162.619 178.602 161.492 178.699C160.883 178.781 160.27 178.83 159.656 178.847C159.81 178.786 159.971 178.745 160.135 178.724C160.451 178.658 160.905 178.587 161.471 178.515C162.946 178.329 164.432 178.247 165.918 178.271C167.402 178.296 168.883 178.422 170.35 178.648C170.916 178.74 171.37 178.826 171.676 178.898C171.841 178.923 172.002 178.969 172.156 179.036Z" fill="#FF9A6C"/>
<path d="M212.573 200.741C212.354 200.627 212.145 200.492 211.951 200.338L210.319 199.165C208.947 198.145 207.06 196.763 204.99 195.208C204.04 194.45 203.014 193.792 201.93 193.244C201.453 193.029 200.958 192.858 200.451 192.734C200.009 192.615 199.556 192.54 199.099 192.51C198.441 192.454 197.783 192.608 197.217 192.948C196.824 193.198 196.651 193.402 196.631 193.387C196.61 193.372 196.666 193.326 196.748 193.229C196.872 193.091 197.01 192.968 197.161 192.862C197.732 192.469 198.418 192.279 199.109 192.321C199.579 192.341 200.045 192.408 200.502 192.52C201.027 192.639 201.54 192.81 202.032 193.03C203.132 193.573 204.17 194.235 205.127 195.004C207.203 196.564 209.07 197.982 210.411 199.022L211.997 200.267C212.204 200.406 212.397 200.565 212.573 200.741Z" fill="#263238"/>
<path d="M208.233 171.87C208.237 172.006 208.229 172.143 208.208 172.278C208.177 172.574 208.131 172.961 208.08 173.451C207.953 174.496 207.774 175.965 207.57 177.76L205.749 191.964C205.601 193.081 205.459 194.172 205.321 195.218L205.193 195.07C210.038 195.07 214.256 196.284 216.923 197.768C217.983 198.328 218.962 199.028 219.836 199.849C220.072 200.068 220.295 200.301 220.504 200.547C220.582 200.627 220.652 200.714 220.713 200.807C220.713 200.807 220.391 200.476 219.769 199.92C218.88 199.135 217.897 198.463 216.842 197.921C214.18 196.493 209.998 195.335 205.193 195.33H205.02V195.182C205.158 194.137 205.301 193.045 205.443 191.928C206.183 186.4 206.851 181.392 207.341 177.74C207.596 175.945 207.8 174.481 207.947 173.441C208.019 172.931 208.08 172.564 208.126 172.273C208.148 172.135 208.184 172 208.233 171.87Z" fill="#263238"/>
<path d="M217.852 146.243C217.672 146.458 217.476 146.659 217.265 146.844C217.066 147.028 216.832 147.257 216.572 147.543C216.312 147.829 215.995 148.124 215.689 148.502C215.383 148.879 215.026 149.262 214.669 149.716C214.312 150.17 213.971 150.659 213.603 151.179C212.06 153.48 210.889 156.01 210.135 158.676C209.977 159.293 209.814 159.875 209.712 160.436C209.61 160.997 209.503 161.512 209.432 161.966C209.36 162.42 209.314 162.879 209.274 163.261C209.233 163.644 209.202 163.97 209.187 164.24C209.183 164.523 209.158 164.804 209.11 165.082C209.078 164.801 209.069 164.518 209.085 164.235C209.085 163.965 209.085 163.634 209.126 163.246C209.166 162.858 209.172 162.425 209.243 161.94C209.314 161.456 209.376 160.92 209.493 160.37C209.61 159.819 209.748 159.217 209.901 158.59C210.635 155.888 211.82 153.329 213.405 151.021C213.777 150.511 214.129 150.001 214.496 149.563C214.863 149.124 215.205 148.711 215.516 148.354C215.827 147.997 216.159 147.686 216.434 147.416C216.665 147.18 216.909 146.957 217.163 146.747C217.378 146.56 217.609 146.391 217.852 146.243Z" fill="#263238"/>
<path d="M129.249 184.768C129.249 184.768 124.93 174.089 125.766 170.488C125.819 170.273 125.942 170.082 126.115 169.945C126.289 169.808 126.504 169.734 126.725 169.733C126.903 169.731 127.078 169.777 127.232 169.867C127.386 169.957 127.512 170.087 127.597 170.243L133.207 181.06C133.207 181.06 133.952 179.081 135.568 178.388C137.282 177.754 139.027 177.208 140.796 176.751L145.865 177.383C146.062 177.407 146.248 177.485 146.403 177.608C146.557 177.732 146.675 177.896 146.741 178.082C146.808 178.269 146.822 178.47 146.78 178.663C146.739 178.857 146.645 179.035 146.508 179.178C145.677 179.957 144.586 180.398 143.448 180.418C139.771 180.724 138.812 181.57 138.812 181.57L136.976 184.732C136.976 184.732 140.852 182.08 142.076 181.978C143.03 181.902 148.308 181.79 150.598 181.744C151.021 181.73 151.438 181.852 151.787 182.092C152.136 182.331 152.401 182.675 152.541 183.075C152.781 183.804 152.613 184.605 150.981 185.038C150.981 185.038 152.771 185.966 150.338 187.18C148.855 187.904 147.321 188.517 145.748 189.016L142.28 191.357L136.471 195.437L129.642 190.75C129.642 190.75 127.209 188.17 128.724 186.012C128.949 185.62 129.125 185.202 129.249 184.768Z" fill="#FFBF9D"/>
<path d="M146.176 188.287C146.176 188.287 149.43 191.061 150.144 192.795C150.858 194.529 151.47 196.289 150.353 200.471C149.236 204.653 139.883 200.471 139.883 200.471C139.623 198.757 137.532 196.697 135.196 194.585L143.927 188.134L146.176 188.287Z" fill="#FFBF9D"/>
<path d="M134.13 179.581C133.986 179.88 133.815 180.165 133.62 180.433C133.278 180.943 132.83 181.672 132.34 182.473C131.366 184.095 130.54 185.39 130.468 185.344C130.577 185.025 130.724 184.72 130.907 184.436C131.203 183.891 131.621 183.146 132.11 182.335C133.054 180.708 134.059 179.52 134.13 179.581Z" fill="#FF9A6C"/>
<path d="M151.108 184.967C150.943 185.018 150.771 185.045 150.598 185.048L149.18 185.166C147.982 185.258 146.319 185.349 144.498 185.456C142.622 185.456 141.357 186.701 140.418 187.42C139.936 187.861 139.425 188.27 138.888 188.644C138.991 188.502 139.109 188.372 139.24 188.256C139.48 188.022 139.832 187.68 140.26 187.277C140.783 186.796 141.342 186.356 141.933 185.961C142.29 185.724 142.678 185.539 143.086 185.411C143.527 185.295 143.977 185.222 144.432 185.191C146.268 185.084 147.921 185.018 149.124 184.977C149.721 184.977 150.21 184.946 150.547 184.946C150.734 184.928 150.923 184.935 151.108 184.967Z" fill="#FF9A6C"/>
<path d="M137.19 184.793C137.236 184.855 136.935 185.15 136.629 185.569C136.323 185.987 136.119 186.364 136.058 186.339C135.997 186.313 136.058 185.864 136.415 185.411C136.772 184.957 137.129 184.732 137.19 184.793Z" fill="#FF9A6C"/>
<path d="M150.022 187.445C149.75 187.63 149.453 187.774 149.139 187.874C148.584 188.098 147.798 188.384 146.936 188.68C145.212 189.281 143.876 189.919 143.841 189.853C144.766 189.233 145.779 188.754 146.844 188.43C147.711 188.119 148.507 187.874 149.078 187.695C149.381 187.573 149.698 187.489 150.022 187.445Z" fill="#FF9A6C"/>
</svg>
