<svg width="344" height="229" viewBox="0 0 344 229" fill="none" xmlns="http://www.w3.org/2000/svg">
<path d="M293.969 211.747C293.969 211.816 239.36 211.866 172.004 211.866C104.649 211.866 50.0312 211.816 50.0312 211.747C50.0312 211.678 104.613 211.628 172.004 211.628C239.396 211.628 293.969 211.683 293.969 211.747Z" fill="#263238"/>
<path d="M163.813 198.314C162.203 197.572 160.398 197.365 158.662 197.723C157.745 197.883 156.759 198.181 156.13 198.873C155.502 199.564 155.387 200.81 156.13 201.405C156.602 201.723 157.171 201.862 157.735 201.799C159.111 201.776 160.602 201.529 161.694 202.34C162.318 202.798 162.735 203.572 163.478 203.796C163.85 203.88 164.238 203.841 164.585 203.684C164.932 203.526 165.218 203.26 165.4 202.926C165.748 202.243 165.821 201.453 165.602 200.718C165.51 200.207 165.301 199.724 164.99 199.306C164.68 198.889 164.277 198.549 163.813 198.314Z" fill="#0984E3"/>
<g opacity="0.3">
<path d="M163.813 198.314C162.203 197.572 160.398 197.365 158.662 197.723C157.745 197.883 156.759 198.181 156.13 198.873C155.502 199.564 155.387 200.81 156.13 201.405C156.602 201.723 157.171 201.862 157.735 201.799C159.111 201.776 160.602 201.529 161.694 202.34C162.318 202.798 162.735 203.572 163.478 203.796C163.85 203.88 164.238 203.841 164.585 203.684C164.932 203.526 165.218 203.26 165.4 202.926C165.748 202.243 165.821 201.453 165.602 200.718C165.51 200.207 165.301 199.724 164.99 199.306C164.68 198.889 164.277 198.549 163.813 198.314Z" fill="black"/>
</g>
<path d="M167.354 191.384C166.404 192.758 164.542 192.3 163.684 191.49C162.827 190.679 162.441 189.456 162.102 188.284C161.327 185.659 160.547 182.907 161.093 180.223C161.224 179.411 161.576 178.65 162.111 178.025C162.382 177.716 162.729 177.483 163.118 177.351C163.506 177.218 163.923 177.19 164.326 177.269C165.267 177.512 165.854 178.423 166.285 179.293C167.541 181.862 168.208 184.678 168.239 187.537C168.239 188.865 168.106 190.258 167.363 191.362" fill="#0984E3"/>
<g opacity="0.3">
<path d="M167.354 191.384C166.404 192.758 164.542 192.3 163.684 191.49C162.827 190.679 162.441 189.456 162.102 188.284C161.327 185.659 160.547 182.907 161.093 180.223C161.224 179.411 161.576 178.65 162.111 178.025C162.382 177.716 162.729 177.483 163.118 177.351C163.506 177.218 163.923 177.19 164.326 177.269C165.267 177.512 165.854 178.423 166.285 179.293C167.541 181.862 168.208 184.678 168.239 187.537C168.239 188.865 168.106 190.258 167.363 191.362" fill="white"/>
</g>
<path d="M169.991 193.326C169.494 192.686 169.161 191.934 169.021 191.136C168.882 190.338 168.939 189.517 169.188 188.746C169.706 187.212 170.634 185.848 171.872 184.803C173.28 183.536 174.922 182.555 176.706 181.913C177.398 181.629 178.142 181.498 178.889 181.528C179.261 181.548 179.622 181.658 179.942 181.849C180.262 182.04 180.53 182.305 180.724 182.623C181.238 183.594 180.756 184.776 180.233 185.742C179.311 187.445 178.256 189.073 177.078 190.61C176.133 191.847 175.046 193.065 173.592 193.633C172.138 194.201 170.629 194.142 169.849 193.139" fill="#0984E3"/>
<path d="M167.551 211.967C167.497 211.765 167.466 211.558 167.459 211.349C167.413 210.891 167.354 210.332 167.285 209.659C167.196 208.825 167.063 207.996 166.886 207.176C166.659 206.179 166.353 205.202 165.969 204.254C165.592 203.306 165.082 202.417 164.455 201.612C163.943 200.958 163.293 200.427 162.551 200.054C162.046 199.81 161.506 199.647 160.951 199.569C160.742 199.564 160.534 199.534 160.332 199.482C160.54 199.458 160.751 199.458 160.96 199.482C161.537 199.524 162.102 199.667 162.629 199.903C163.41 200.267 164.096 200.807 164.634 201.479C165.29 202.293 165.82 203.201 166.207 204.172C166.596 205.135 166.903 206.129 167.124 207.144C167.29 207.973 167.405 208.811 167.468 209.654C167.528 210.373 167.551 210.955 167.565 211.358C167.584 211.561 167.579 211.765 167.551 211.967Z" fill="#263238"/>
<path d="M167.413 210.68C167.4 210.584 167.4 210.487 167.413 210.391C167.413 210.176 167.413 209.906 167.413 209.572C167.413 208.857 167.413 207.822 167.358 206.549C167.276 203.998 167.033 200.476 166.583 196.606C166.134 192.736 165.542 189.255 165.005 186.759C164.882 186.136 164.753 185.572 164.634 185.078C164.515 184.583 164.423 184.162 164.331 183.814C164.239 183.466 164.184 183.223 164.134 183.012C164.106 182.921 164.088 182.828 164.079 182.733C164.127 182.816 164.162 182.905 164.184 182.998C164.249 183.205 164.327 183.456 164.427 183.786C164.528 184.116 164.648 184.551 164.776 185.041C164.904 185.531 165.047 186.095 165.184 186.722C165.911 189.976 166.464 193.266 166.84 196.578C167.299 200.453 167.505 203.984 167.537 206.544C167.56 207.822 167.537 208.857 167.514 209.572C167.514 209.906 167.482 210.181 167.468 210.396C167.461 210.493 167.443 210.588 167.413 210.68Z" fill="#263238"/>
<path d="M167.363 203.851C167.342 203.566 167.342 203.28 167.363 202.995C167.395 202.441 167.464 201.621 167.615 200.664C167.795 199.518 168.04 198.383 168.349 197.265C168.712 195.894 169.171 194.55 169.725 193.244C170.695 190.84 172.093 188.632 173.853 186.727C174.157 186.4 174.482 186.094 174.825 185.811C174.977 185.682 175.11 185.554 175.243 185.453L175.623 185.188C175.851 185.017 176.092 184.863 176.344 184.73C175.513 185.391 174.724 186.104 173.981 186.864C172.281 188.783 170.92 190.978 169.959 193.354C169.401 194.649 168.932 195.98 168.555 197.338C168.236 198.446 167.974 199.57 167.771 200.705C167.597 201.671 167.501 202.463 167.441 202.995C167.44 203.282 167.414 203.569 167.363 203.851Z" fill="#263238"/>
<path d="M223.907 35.5682H114.8V150.151H223.907V35.5682Z" fill="#FAFAFA"/>
<path d="M223.907 150.151C223.907 149.262 223.866 104.149 223.802 35.5682L223.907 35.6736H114.809L114.928 35.5545C114.928 77.6264 114.928 116.982 114.928 150.137L114.827 150.036L223.935 150.137L114.827 150.242H114.726V150.137C114.726 116.982 114.726 77.6264 114.726 35.5545V35.4492H114.855H223.953H224.059V35.5545C223.949 104.149 223.907 149.262 223.907 150.151Z" fill="#263238"/>
<path d="M160.341 117.175C159.966 117.278 159.575 117.306 159.189 117.257C158.802 117.283 158.413 117.228 158.047 117.097C158.422 116.994 158.814 116.968 159.199 117.019C159.586 116.99 159.975 117.043 160.341 117.175Z" fill="#263238"/>
<path d="M164.923 117.321C164.551 117.43 164.16 117.458 163.776 117.404C163.389 117.43 163 117.377 162.634 117.248C163.007 117.145 163.397 117.117 163.781 117.166C164.168 117.142 164.556 117.195 164.923 117.321Z" fill="#263238"/>
<path d="M169.509 117.472C169.135 117.575 168.744 117.603 168.358 117.555C167.97 117.581 167.582 117.526 167.216 117.395C167.591 117.292 167.982 117.265 168.367 117.317C168.755 117.288 169.144 117.341 169.509 117.472Z" fill="#263238"/>
<path d="M174.091 117.619C173.72 117.728 173.329 117.756 172.945 117.701C172.557 117.728 172.169 117.675 171.803 117.546C172.176 117.442 172.565 117.414 172.949 117.463C173.337 117.439 173.725 117.492 174.091 117.619Z" fill="#263238"/>
<path d="M178.678 117.77C178.304 117.873 177.912 117.901 177.527 117.853C177.139 117.878 176.75 117.824 176.385 117.692C176.759 117.59 177.151 117.563 177.536 117.614C177.923 117.585 178.313 117.638 178.678 117.77Z" fill="#263238"/>
<path d="M182.705 117.248C182.751 117.248 182.746 117.532 182.705 117.921V118.013H182.609C182.462 118.013 182.302 118.013 182.15 118.013C181.764 118.039 181.377 117.986 181.013 117.857C181.386 117.754 181.775 117.726 182.159 117.775C182.329 117.775 182.494 117.775 182.618 117.802L182.508 117.894C182.572 117.491 182.659 117.248 182.705 117.248Z" fill="#263238"/>
<path d="M183.765 112.787C183.785 113.174 183.726 113.56 183.59 113.923C183.53 114.305 183.393 114.671 183.187 114.999C183.166 114.613 183.226 114.226 183.361 113.863C183.418 113.48 183.556 113.113 183.765 112.787Z" fill="#263238"/>
<path d="M185.154 108.422C185.143 108.811 185.056 109.194 184.898 109.549C184.816 109.924 184.66 110.279 184.439 110.593C184.445 110.206 184.531 109.824 184.691 109.471C184.771 109.093 184.929 108.736 185.154 108.422Z" fill="#263238"/>
<path d="M186.829 104.163C186.8 104.55 186.689 104.926 186.503 105.267C186.391 105.637 186.205 105.981 185.957 106.279C185.987 105.892 186.098 105.516 186.283 105.175C186.394 104.804 186.58 104.46 186.829 104.163Z" fill="#263238"/>
<path d="M188.792 100.023C188.597 100.77 188.25 101.47 187.773 102.079C187.834 101.695 187.972 101.328 188.177 100.998C188.314 100.635 188.523 100.303 188.792 100.023Z" fill="#263238"/>
<path d="M191.035 96.0334C190.954 96.4102 190.798 96.7668 190.576 97.0823C190.26 97.6273 189.952 98.0395 189.893 97.9983C189.975 97.6218 190.131 97.2654 190.351 96.9494C190.672 96.4136 190.975 95.9968 191.035 96.0334Z" fill="#263238"/>
<path d="M193.466 92.1496C193.374 92.5259 193.203 92.8787 192.966 93.1847C192.631 93.7251 192.314 94.1327 192.259 94.1007C192.355 93.7249 192.527 93.3727 192.764 93.0656C193.099 92.516 193.411 92.1175 193.466 92.1496Z" fill="#263238"/>
<path d="M195.603 88.0963C195.544 88.4798 195.409 88.8475 195.204 89.1772C194.92 89.7451 194.644 90.1802 194.585 90.1482C194.648 89.7651 194.785 89.3979 194.988 89.0673C195.126 88.7056 195.335 88.3753 195.603 88.0963Z" fill="#263238"/>
<path d="M197.277 83.814C197.265 84.2011 197.172 84.5814 197.007 84.9315C196.912 85.3081 196.742 85.6617 196.507 85.9711C196.521 85.5838 196.615 85.2036 196.782 84.8536C196.877 84.4779 197.045 84.1245 197.277 83.814Z" fill="#263238"/>
<path d="M198.364 79.3851C198.404 79.7706 198.365 80.1602 198.249 80.5301C198.212 80.9163 198.095 81.2906 197.905 81.6293C197.865 81.2442 197.902 80.8548 198.016 80.4843C198.058 80.0985 198.176 79.7249 198.364 79.3851Z" fill="#263238"/>
<path d="M198.717 74.8234C198.822 75.1957 198.85 75.5851 198.8 75.9684C198.828 76.3556 198.773 76.7443 198.639 77.1088C198.537 76.7362 198.51 76.3469 198.561 75.9638C198.532 75.577 198.585 75.1883 198.717 74.8234Z" fill="#263238"/>
<path d="M198.203 70.2755C198.481 70.9947 198.608 71.7633 198.575 72.5334C198.398 72.1888 198.293 71.8116 198.268 71.4251C198.169 71.0502 198.147 70.6591 198.203 70.2755Z" fill="#263238"/>
<path d="M196.795 65.9245C197.033 66.23 197.206 66.5806 197.305 66.955C197.478 67.3015 197.577 67.6808 197.593 68.0679C197.357 67.7616 197.184 67.4113 197.084 67.0374C196.912 66.6906 196.813 66.3115 196.795 65.9245Z" fill="#263238"/>
<path d="M194.731 61.83C194.791 61.7979 195.085 62.2193 195.392 62.7734C195.617 63.0922 195.773 63.454 195.851 63.836C195.346 63.2511 194.968 62.568 194.741 61.83H194.731Z" fill="#263238"/>
<path d="M192.048 58.134C192.099 58.0882 192.461 58.4591 192.856 58.9583C193.25 59.4576 193.525 59.8744 193.47 59.9293C193.415 59.9843 193.057 59.5996 192.668 59.1049C192.401 58.8237 192.191 58.4941 192.048 58.134Z" fill="#263238"/>
<path d="M188.755 54.96C188.796 54.9096 189.214 55.2073 189.695 55.6241C190.177 56.0408 190.525 56.4256 190.475 56.4714C190.129 56.3114 189.817 56.0858 189.558 55.8073C189.067 55.3859 188.714 55.0058 188.755 54.96Z" fill="#263238"/>
<path d="M184.925 52.4501C185.303 52.5295 185.66 52.6854 185.975 52.9081C186.521 53.2333 186.939 53.5402 186.893 53.5951C186.515 53.5144 186.158 53.3586 185.842 53.1371C185.301 52.8165 184.893 52.5097 184.925 52.4501Z" fill="#263238"/>
<path d="M180.715 50.7006C181.103 50.7137 181.485 50.8089 181.834 50.9799C182.21 51.0728 182.563 51.2428 182.87 51.4792C182.483 51.4612 182.103 51.3679 181.751 51.2044C181.375 51.108 181.023 50.9366 180.715 50.7006Z" fill="#263238"/>
<path d="M176.224 49.693C176.61 49.6461 177.002 49.6773 177.376 49.7846C177.762 49.8163 178.139 49.9269 178.481 50.1098C177.708 50.1284 176.94 49.9865 176.224 49.693Z" fill="#263238"/>
<path d="M171.656 49.3449C172.03 49.2448 172.42 49.2215 172.803 49.2762C173.191 49.2547 173.579 49.3107 173.945 49.4411C173.182 49.572 172.4 49.5392 171.651 49.3449H171.656Z" fill="#263238"/>
<path d="M167.078 49.5602C167.437 49.4108 167.823 49.3375 168.211 49.3449C168.591 49.2677 168.983 49.2677 169.363 49.3449C169.004 49.495 168.618 49.5698 168.23 49.5648C167.849 49.6386 167.458 49.6371 167.078 49.5602Z" fill="#263238"/>
<path d="M162.579 50.4212C163.28 50.0983 164.041 49.9252 164.813 49.9128C164.112 50.2357 163.351 50.4089 162.579 50.4212Z" fill="#263238"/>
<path d="M158.24 51.9235C158.541 51.679 158.889 51.4997 159.263 51.3968C159.607 51.2174 159.985 51.1129 160.373 51.0899C159.727 51.5116 159.001 51.7954 158.24 51.9235Z" fill="#263238"/>
<path d="M154.231 54.1173C154.195 54.0623 154.607 53.7509 155.149 53.4211C155.457 53.1863 155.812 53.0193 156.19 52.931C156.222 52.9906 155.809 53.302 155.272 53.6272C154.962 53.8593 154.608 54.026 154.231 54.1173Z" fill="#263238"/>
<path d="M150.699 57.0256C150.654 56.9798 150.998 56.595 151.465 56.1645C151.933 55.734 152.355 55.4317 152.383 55.4821C152.41 55.5325 152.08 55.9401 151.612 56.3431C151.356 56.6284 151.046 56.8603 150.699 57.0256Z" fill="#263238"/>
<path d="M147.819 60.5797C147.94 60.2119 148.137 59.8734 148.397 59.5858C148.773 59.0683 149.117 58.6698 149.168 58.7294C149.049 59.0946 148.859 59.4325 148.608 59.7232C148.218 60.2316 147.874 60.6163 147.819 60.5797Z" fill="#263238"/>
<path d="M145.682 64.6284C145.718 64.2395 145.845 63.8645 146.053 63.5338C146.328 62.9613 146.599 62.5216 146.659 62.5536C146.6 62.9357 146.467 63.3027 146.269 63.6345C145.984 64.1979 145.75 64.6559 145.682 64.6284Z" fill="#263238"/>
<path d="M144.131 68.9336C144.134 68.5453 144.217 68.1619 144.374 67.8069C144.456 67.4303 144.612 67.0737 144.833 66.7581C144.831 67.1464 144.748 67.53 144.59 67.8847C144.506 68.2605 144.35 68.6166 144.131 68.9336Z" fill="#263238"/>
<path d="M168.537 117.12C167.316 115.778 166.252 114.301 165.368 112.718C164.477 111.121 164.165 109.266 164.482 107.465C164.868 105.697 166.207 104.081 167.982 103.696C169.358 103.403 170.881 103.81 172.073 103.096C172.485 102.805 172.832 102.434 173.093 102.003C173.354 101.573 173.524 101.094 173.592 100.595C173.793 99.6104 173.784 98.5937 173.968 97.6044C174.642 93.9862 178.031 91.1924 181.687 90.7344C185.343 90.2764 189.085 91.8061 191.723 94.348C191.723 94.348 183.43 109.677 182.577 117.88L168.537 117.12Z" fill="#0984E3"/>
<path d="M174.046 116.877C174.046 116.877 174.018 116.749 173.986 116.497C173.954 116.245 173.913 115.851 173.858 115.366C173.752 114.353 173.601 112.888 173.399 111.01C173.037 107.232 172.482 101.749 172.28 94.9525C172.234 93.2533 172.202 91.4717 172.225 89.6168C172.248 87.7619 172.266 85.8292 172.472 83.8277C172.64 81.7498 173.207 79.7237 174.142 77.86C175.161 75.8486 176.887 74.2832 178.99 73.4632C180.116 73.0693 181.331 73.0084 182.491 73.2879C183.65 73.5674 184.704 74.1753 185.526 75.0387C185.953 75.4882 186.284 76.0196 186.499 76.6005C186.714 77.1815 186.809 77.8 186.778 78.4187C186.687 79.676 186.194 80.8708 185.37 81.8262C184.552 82.7944 183.514 83.5529 182.343 84.0384C181.166 84.5261 179.934 84.8676 178.674 85.0551C176.129 85.4553 173.553 85.6301 170.977 85.5773C168.401 85.5492 165.832 85.2995 163.299 84.8307C162.05 84.581 160.84 84.1683 159.699 83.6033C158.57 83.0353 157.567 82.2473 156.749 81.2858C155.93 80.3403 155.378 79.1943 155.149 77.9653C154.942 76.7434 155.156 75.4877 155.754 74.4021C156.316 73.3179 157.263 72.4818 158.41 72.0571C158.975 71.876 159.572 71.8118 160.164 71.8685C160.755 71.9252 161.329 72.1016 161.85 72.3869C162.86 72.9218 163.712 73.7113 164.322 74.6769C164.89 75.6231 165.276 76.6669 165.459 77.7546C165.854 79.8843 165.739 81.9682 165.776 83.9605C165.776 87.9543 165.803 91.6732 165.817 95.0716C165.817 101.855 165.817 107.351 165.849 111.166C165.849 113.053 165.849 114.523 165.849 115.54C165.849 116.03 165.849 116.405 165.849 116.68C165.849 116.955 165.849 117.065 165.849 117.065C165.849 117.065 165.849 116.937 165.849 116.68C165.849 116.424 165.849 116.03 165.826 115.54C165.826 114.523 165.79 113.053 165.767 111.166C165.73 107.351 165.675 101.859 165.611 95.0762C165.588 91.6778 165.556 87.9543 165.524 83.9605C165.487 81.9682 165.588 79.8843 165.198 77.8187C165.016 76.7735 164.642 75.7707 164.097 74.8601C163.522 73.9399 162.716 73.1865 161.758 72.6754C161.278 72.4136 160.749 72.2518 160.204 72.1998C159.66 72.1479 159.11 72.2068 158.589 72.3731C157.529 72.7724 156.655 73.5489 156.135 74.5532C155.576 75.5678 155.379 76.7417 155.575 77.8829C155.793 79.0485 156.318 80.1348 157.098 81.0293C158.644 82.8934 161.001 83.9468 163.441 84.446C165.934 84.9069 168.461 85.1551 170.996 85.188C173.547 85.2395 176.097 85.0679 178.619 84.675C179.846 84.4916 181.046 84.1578 182.192 83.6811C183.312 83.223 184.304 82.5018 185.086 81.5789C185.861 80.6797 186.327 79.5561 186.416 78.3729C186.443 77.8021 186.355 77.2318 186.156 76.6959C185.958 76.16 185.653 75.6695 185.26 75.2539C184.485 74.441 183.492 73.8682 182.4 73.6042C181.307 73.3402 180.162 73.3962 179.1 73.7654C177.078 74.5567 175.417 76.0607 174.431 77.9928C173.511 79.8231 172.955 81.8139 172.793 83.8552C172.582 85.8337 172.56 87.7619 172.523 89.6168C172.486 91.4717 172.523 93.2442 172.555 94.9434C172.734 101.731 173.238 107.209 173.555 110.973C173.72 112.856 173.848 114.321 173.936 115.334C173.972 115.819 174.004 116.199 174.027 116.469C174.05 116.74 174.046 116.877 174.046 116.877Z" fill="#263238"/>
<path d="M158.057 116.744C158.057 116.744 158.057 116.836 158.057 117.01V117.784C158.057 118.475 158.057 119.465 158.034 120.724C157.997 123.275 157.942 126.912 157.882 131.29L157.859 131.226L165.51 141.064L165.414 141.018H169.977H174.876L174.789 141.055L182.274 132.811V132.875C182.393 128.222 182.49 124.342 182.563 121.613C182.604 120.239 182.636 119.199 182.659 118.457L182.692 117.628V117.413C182.692 117.367 182.692 117.344 182.692 117.344C182.692 117.344 182.692 117.367 182.692 117.413C182.692 117.459 182.692 117.541 182.692 117.628V118.457C182.692 119.199 182.669 120.266 182.65 121.613C182.6 124.361 182.531 128.226 182.444 132.88V132.921L182.421 132.948L174.954 141.192L174.917 141.229H174.867L169.968 141.252H165.404H165.349L165.313 141.206L157.703 131.345L157.68 131.318V131.281C157.777 126.903 157.859 123.271 157.914 120.72C157.951 119.46 157.979 118.471 157.997 117.779C157.997 117.45 158.02 117.193 158.024 117.005C158.029 116.817 158.057 116.744 158.057 116.744Z" fill="#263238"/>
<path d="M181.742 131.556C181.438 131.443 181.144 131.302 180.866 131.135C180.311 130.851 179.49 130.461 178.467 130.049C173.038 127.877 167 127.769 161.496 129.747C160.451 130.118 159.625 130.48 159.061 130.745C158.775 130.9 158.475 131.031 158.167 131.135C158.423 130.932 158.699 130.757 158.992 130.612C159.771 130.187 160.577 129.814 161.405 129.495C166.947 127.349 173.111 127.459 178.573 129.802C179.389 130.151 180.181 130.553 180.944 131.006C181.23 131.158 181.498 131.343 181.742 131.556Z" fill="#263238"/>
<path d="M181.921 127.782C181.617 127.669 181.323 127.528 181.045 127.361C180.49 127.077 179.669 126.687 178.646 126.275C173.217 124.103 167.178 123.995 161.675 125.973C160.63 126.344 159.804 126.706 159.24 126.971C158.953 127.126 158.654 127.256 158.345 127.361C158.597 127.167 158.869 127.001 159.157 126.866C159.936 126.442 160.742 126.068 161.57 125.748C167.112 123.603 173.276 123.713 178.738 126.055C179.554 126.405 180.346 126.807 181.109 127.26C181.399 127.402 181.671 127.577 181.921 127.782Z" fill="#263238"/>
<path d="M181.875 124.191C181.571 124.078 181.277 123.937 180.999 123.77C180.444 123.486 179.623 123.097 178.596 122.684C173.167 120.509 167.127 120.402 161.625 122.382C160.795 122.674 159.981 123.007 159.185 123.381C158.901 123.539 158.603 123.669 158.295 123.77C158.549 123.565 158.826 123.389 159.121 123.248C159.9 122.824 160.706 122.45 161.533 122.13C167.074 119.984 173.236 120.094 178.696 122.437C179.512 122.786 180.305 123.189 181.068 123.642C181.357 123.794 181.627 123.978 181.875 124.191Z" fill="#263238"/>
<path d="M175.211 141.403C174.874 140.946 174.5 140.519 174.091 140.125C173.082 139.196 171.766 138.671 170.394 138.65C169.021 138.629 167.689 139.113 166.652 140.011C166.227 140.387 165.838 140.803 165.491 141.252C165.539 141.103 165.612 140.963 165.707 140.84C165.942 140.487 166.221 140.165 166.537 139.882C167.587 138.916 168.968 138.389 170.395 138.411C171.823 138.434 173.187 139.003 174.206 140.001C174.513 140.294 174.782 140.625 175.004 140.986C175.097 141.112 175.167 141.253 175.211 141.403Z" fill="#263238"/>
<path d="M124.45 29.2479L106.773 45.2412L109.02 46.0107L109.149 48.5205C109.149 48.5205 112.36 48.809 111.974 48.8411C111.667 48.8411 112.162 51.7173 112.162 51.7173L130.348 34.0752L127.596 33.9149V31.5012L124.725 31.4692L124.45 29.2479Z" fill="#EBEBEB"/>
<path d="M114.8 49.1617L128.812 35.5682H133.119L114.8 49.1617Z" fill="#E0E0E0"/>
<path d="M228.054 48.548L212.143 29.9532L211.377 32.321L208.881 32.4539C208.881 32.4539 208.588 35.8476 208.56 35.4309C208.56 35.1057 205.698 35.6278 205.698 35.6278L223.251 54.7768L223.412 51.8776H225.815L225.847 48.8548L228.054 48.548Z" fill="#EBEBEB"/>
<path d="M216.802 35.5682L223.907 43.7206V40.4826L216.802 35.5682Z" fill="#E0E0E0"/>
<path d="M271.659 207.767L272.443 211.042C272.443 211.042 277.81 218.008 279.466 217.665C280.553 217.445 279.218 215.626 277.172 210.337L276.741 208.152L271.659 207.767Z" fill="#0984E3"/>
<path d="M279.686 216.634C279.678 216.668 279.664 216.701 279.644 216.73C279.589 216.82 279.509 216.893 279.415 216.941C279.275 217.018 279.116 217.055 278.956 217.046C278.739 217.026 278.531 216.95 278.351 216.826C277.389 216.053 276.485 215.211 275.645 214.307C274.796 213.415 273.995 212.478 273.246 211.5C272.957 211.124 272.732 210.813 272.586 210.584L272.411 210.332C272.375 210.272 272.356 210.24 272.361 210.236C272.385 210.262 272.408 210.289 272.43 210.318L272.618 210.556L273.306 211.44C273.893 212.178 274.728 213.176 275.723 214.22C276.559 215.118 277.45 215.963 278.392 216.749C278.533 216.865 278.703 216.94 278.883 216.965C279.064 216.99 279.248 216.964 279.415 216.891C279.526 216.83 279.619 216.741 279.686 216.634Z" fill="#263238"/>
<path d="M278.924 214.399C278.924 214.399 278.755 214.399 278.493 214.422C278.149 214.477 277.82 214.602 277.525 214.788C277.223 214.96 276.973 215.21 276.801 215.512C276.672 215.746 276.64 215.91 276.622 215.906C276.62 215.755 276.658 215.607 276.732 215.475C276.898 215.15 277.154 214.879 277.47 214.697C277.777 214.503 278.124 214.384 278.484 214.349C278.633 214.327 278.784 214.344 278.924 214.399Z" fill="#263238"/>
<path d="M273.824 212.764C273.824 212.764 273.879 212.53 273.925 212.15C273.978 211.656 273.884 211.157 273.654 210.717C273.431 210.271 273.071 209.909 272.627 209.682C272.438 209.597 272.243 209.525 272.044 209.466C272.101 209.458 272.158 209.458 272.214 209.466C272.372 209.493 272.526 209.539 272.673 209.604C273.144 209.822 273.527 210.193 273.76 210.657C274.001 211.115 274.089 211.638 274.012 212.15C273.989 212.306 273.952 212.459 273.902 212.608C273.886 212.665 273.86 212.717 273.824 212.764Z" fill="#263238"/>
<path d="M271.989 208.321C272.143 208.645 272.243 208.992 272.287 209.347C272.384 209.929 272.489 210.391 272.466 210.401C272.317 210.075 272.221 209.727 272.182 209.37C272.095 208.788 271.989 208.33 271.989 208.321Z" fill="#263238"/>
<path d="M277.273 210.799C277.273 210.831 276.966 210.822 276.608 210.909C276.25 210.996 275.975 211.129 275.961 211.101C276.134 210.943 276.349 210.839 276.581 210.804C276.806 210.735 277.047 210.733 277.273 210.799Z" fill="#263238"/>
<path d="M277.383 211.362C277.383 211.394 277.122 211.362 276.824 211.44C276.526 211.518 276.31 211.646 276.292 211.619C276.422 211.466 276.602 211.365 276.801 211.335C276.992 211.272 277.199 211.282 277.383 211.362Z" fill="#263238"/>
<path d="M277.81 212.054C277.618 212.033 277.424 212.033 277.232 212.054C277.047 212.114 276.869 212.193 276.7 212.288C276.755 212.198 276.829 212.121 276.917 212.064C277.005 212.006 277.105 211.968 277.209 211.953C277.31 211.923 277.417 211.916 277.521 211.934C277.625 211.951 277.724 211.992 277.81 212.054Z" fill="#263238"/>
<path d="M276.902 210.566C276.841 210.566 276.781 210.558 276.723 210.543C276.567 210.512 276.414 210.471 276.264 210.419C276.033 210.338 275.809 210.239 275.595 210.121C275.475 210.053 275.351 209.979 275.228 209.892C275.154 209.849 275.09 209.79 275.043 209.718C274.996 209.647 274.967 209.565 274.957 209.48C274.963 209.434 274.98 209.39 275.005 209.351C275.03 209.313 275.064 209.28 275.103 209.255C275.143 209.231 275.187 209.215 275.233 209.21C275.279 209.204 275.326 209.209 275.37 209.224C275.514 209.271 275.642 209.357 275.741 209.471C275.916 209.642 276.081 209.823 276.237 210.011C276.341 210.136 276.439 210.266 276.53 210.401C276.567 210.45 276.598 210.504 276.622 210.561C276.622 210.561 276.452 210.364 276.163 210.057C276.03 209.906 275.861 209.727 275.663 209.544C275.573 209.445 275.46 209.369 275.333 209.324C275.209 209.292 275.053 209.356 275.049 209.485C275.06 209.552 275.085 209.616 275.124 209.673C275.163 209.729 275.214 209.776 275.274 209.81C275.389 209.891 275.508 209.966 275.631 210.034C275.838 210.156 276.054 210.26 276.278 210.346C276.654 210.497 276.906 210.547 276.902 210.566Z" fill="#263238"/>
<path d="M276.622 210.497C276.622 210.497 276.622 210.437 276.622 210.332C276.625 210.179 276.638 210.026 276.659 209.874C276.682 209.652 276.737 209.434 276.824 209.228C276.877 209.104 276.948 208.988 277.035 208.885C277.08 208.816 277.148 208.765 277.226 208.74C277.304 208.715 277.389 208.718 277.466 208.747C277.529 208.796 277.577 208.862 277.604 208.938C277.631 209.013 277.636 209.095 277.617 209.173C277.594 209.306 277.554 209.435 277.498 209.558C277.402 209.763 277.272 209.951 277.113 210.112C277.008 210.218 276.895 210.315 276.773 210.401C276.73 210.435 276.682 210.462 276.631 210.483C276.631 210.483 276.81 210.336 277.058 210.062C277.202 209.901 277.321 209.718 277.411 209.521C277.459 209.407 277.493 209.287 277.512 209.164C277.512 209.04 277.512 208.894 277.415 208.839C277.319 208.784 277.195 208.862 277.113 208.953C277.033 209.047 276.966 209.152 276.915 209.265C276.826 209.462 276.765 209.67 276.732 209.883C276.659 210.268 276.636 210.501 276.622 210.497Z" fill="#263238"/>
<g opacity="0.4">
<path d="M272.448 211.042L272.067 209.466C272.067 209.466 273.384 209.714 273.728 210.694C273.928 211.232 274.014 211.806 273.98 212.379L276.842 215.452C276.842 215.452 277.558 214.051 278.86 214.39C278.86 214.39 279.883 216.634 279.851 217.197C279.819 217.761 279.163 217.692 278.934 217.587C277.989 217.038 277.127 216.358 276.374 215.567C274.851 214.001 273.177 212.008 272.448 211.042Z" fill="black"/>
</g>
<path d="M244.969 209.421L244.946 205.051L253.147 204.95L253.253 211.362L252.744 211.399C250.483 211.55 241.236 212.017 239.718 211.578C238.021 211.074 244.969 209.421 244.969 209.421Z" fill="#0984E3"/>
<g opacity="0.4">
<path d="M250.276 211.317C250.39 210.624 250.756 209.998 251.304 209.558C251.839 209.119 252.52 208.899 253.212 208.94L253.239 211.23L250.276 211.317Z" fill="black"/>
</g>
<path opacity="0.4" d="M241.575 210.35C241.575 210.35 239.144 211.083 239.452 211.482C239.759 211.88 249.125 211.761 253.253 211.349V211.166L242.332 211.395C242.332 211.395 242.057 210.364 241.575 210.35Z" fill="black"/>
<path d="M253.363 211.138H253.225L252.817 211.165L251.331 211.253C250.07 211.312 248.331 211.372 246.41 211.399C244.488 211.427 242.74 211.399 241.488 211.399L239.997 211.358H239.589H239.447H239.997H241.488C242.745 211.358 244.488 211.358 246.41 211.358C248.331 211.358 250.079 211.285 251.326 211.239L252.817 211.188H253.221C253.266 211.165 253.313 211.148 253.363 211.138Z" fill="#263238"/>
<path d="M242.318 211.523C242.214 211.017 241.928 210.566 241.516 210.254C241.773 210.342 241.988 210.523 242.116 210.762C242.276 210.982 242.348 211.253 242.318 211.523Z" fill="#263238"/>
<path d="M244.722 210.268C244.722 210.268 244.584 210.144 244.46 209.956C244.336 209.769 244.258 209.604 244.281 209.59C244.304 209.576 244.424 209.714 244.543 209.901C244.662 210.089 244.745 210.249 244.722 210.268Z" fill="#263238"/>
<path d="M245.387 209.906C245.387 209.929 245.24 209.842 245.098 209.718C244.955 209.595 244.85 209.475 244.868 209.457C244.887 209.439 245.02 209.517 245.162 209.645C245.304 209.773 245.387 209.888 245.387 209.906Z" fill="#263238"/>
<path d="M245.795 209.127C245.658 209.18 245.51 209.2 245.364 209.187C245.221 209.208 245.075 209.196 244.937 209.15C245.073 209.098 245.219 209.077 245.364 209.091C245.509 209.072 245.655 209.085 245.795 209.127Z" fill="#263238"/>
<path d="M245.928 208.582C245.792 208.674 245.633 208.725 245.469 208.729C245.302 208.757 245.13 208.736 244.974 208.669C245.134 208.637 245.297 208.623 245.46 208.628C245.614 208.598 245.771 208.583 245.928 208.582Z" fill="#263238"/>
<path d="M244.437 209.558C244.262 209.587 244.084 209.587 243.91 209.558C243.718 209.537 243.53 209.499 243.345 209.443C243.235 209.411 243.127 209.368 243.024 209.315C242.962 209.28 242.915 209.223 242.891 209.155C242.882 209.115 242.885 209.074 242.899 209.036C242.912 208.998 242.937 208.964 242.969 208.94C243.169 208.839 243.398 208.81 243.617 208.86C243.835 208.909 244.03 209.033 244.167 209.21C244.251 209.312 244.312 209.43 244.345 209.558C244.355 209.605 244.355 209.653 244.345 209.7C244.293 209.533 244.209 209.377 244.098 209.242C243.977 209.102 243.818 209.001 243.639 208.953C243.433 208.887 243.208 208.905 243.015 209.004C242.933 209.068 242.965 209.164 243.057 209.219C243.152 209.27 243.252 209.311 243.355 209.343C243.533 209.399 243.716 209.443 243.9 209.475C244.235 209.54 244.437 209.54 244.437 209.558Z" fill="#263238"/>
<path d="M244.3 209.585C244.233 209.476 244.21 209.345 244.235 209.219C244.248 209.081 244.295 208.949 244.373 208.834C244.418 208.751 244.484 208.682 244.564 208.634C244.645 208.585 244.737 208.56 244.832 208.559C244.885 208.569 244.932 208.6 244.963 208.645C244.994 208.689 245.006 208.744 244.997 208.798C244.985 208.882 244.956 208.964 244.91 209.036C244.844 209.154 244.762 209.261 244.667 209.356C244.586 209.452 244.484 209.527 244.368 209.576C244.368 209.576 244.469 209.48 244.616 209.311C244.698 209.211 244.771 209.104 244.832 208.99C244.9 208.88 244.946 208.679 244.832 208.656C244.717 208.633 244.566 208.779 244.488 208.885C244.414 208.987 244.364 209.104 244.341 209.228C244.317 209.346 244.304 209.465 244.3 209.585Z" fill="#263238"/>
<path d="M253.184 208.921C253.184 208.921 252.946 208.898 252.579 208.949C252.093 209.003 251.633 209.195 251.252 209.501C250.872 209.808 250.587 210.217 250.432 210.68C250.313 211.033 250.304 211.271 250.285 211.266C250.267 211.262 250.285 211.207 250.285 211.101C250.317 210.775 250.414 210.459 250.572 210.171C250.73 209.884 250.944 209.632 251.203 209.43C251.595 209.111 252.075 208.918 252.579 208.876C252.731 208.858 252.885 208.858 253.037 208.876C253.111 208.898 253.184 208.912 253.184 208.921Z" fill="#263238"/>
<path d="M252.267 205.523C252.361 206.641 252.389 207.763 252.349 208.885C252.254 207.767 252.227 206.644 252.267 205.523Z" fill="#263238"/>
<path d="M249.235 210.533C248.843 210.63 248.441 210.675 248.038 210.666C247.637 210.691 247.235 210.665 246.841 210.588C246.841 210.556 247.377 210.588 248.038 210.588C248.698 210.588 249.23 210.506 249.235 210.533Z" fill="#263238"/>
<path d="M250.84 210.511C250.863 210.511 250.799 210.625 250.749 210.749C250.698 210.872 250.666 210.982 250.639 210.978C250.611 210.973 250.593 210.849 250.639 210.707C250.684 210.566 250.822 210.492 250.84 210.511Z" fill="#263238"/>
<path d="M251.437 209.764C251.437 209.764 251.404 209.869 251.322 209.956C251.239 210.043 251.157 210.098 251.134 210.08C251.111 210.062 251.166 209.975 251.249 209.888C251.331 209.801 251.418 209.732 251.437 209.764Z" fill="#263238"/>
<path d="M252.299 209.393C252.299 209.425 252.184 209.425 252.065 209.466C251.946 209.508 251.859 209.576 251.84 209.558C251.822 209.54 251.886 209.425 252.033 209.375C252.18 209.324 252.308 209.37 252.299 209.393Z" fill="#263238"/>
<path d="M252.914 209.224C252.914 209.251 252.877 209.293 252.813 209.32C252.749 209.348 252.68 209.348 252.67 209.32C252.661 209.293 252.707 209.251 252.776 209.224C252.845 209.196 252.905 209.201 252.914 209.224Z" fill="#263238"/>
<path d="M240.557 125.368L243.217 207.538L255.991 207.808L253.867 136.699L268.233 208.349H280.374L264.155 122.602" fill="#455A64"/>
<path d="M267.6 207.195L267.893 208.45L280.374 208.619L280.186 206.654L267.6 207.195Z" fill="#263238"/>
<path d="M253.785 207.066C253.858 207.066 253.927 207.227 253.936 207.437C253.945 207.648 253.895 207.818 253.826 207.822C253.757 207.827 253.684 207.662 253.675 207.451C253.666 207.24 253.711 207.071 253.785 207.066Z" fill="#263238"/>
<path d="M253.643 203.989C253.716 203.989 253.785 204.332 253.803 204.753C253.822 205.175 253.771 205.528 253.698 205.528C253.624 205.528 253.556 205.189 253.537 204.767C253.519 204.346 253.588 203.993 253.643 203.989Z" fill="#263238"/>
<path d="M253.569 200.911C253.643 200.911 253.711 201.254 253.721 201.68C253.73 202.106 253.684 202.45 253.611 202.45C253.537 202.45 253.468 202.111 253.459 201.685C253.45 201.259 253.496 200.915 253.569 200.911Z" fill="#263238"/>
<path d="M253.491 197.856C253.565 197.856 253.633 198.2 253.643 198.625C253.652 199.051 253.601 199.395 253.528 199.395C253.455 199.395 253.39 199.056 253.377 198.63C253.363 198.204 253.418 197.856 253.491 197.856Z" fill="#263238"/>
<path d="M253.418 194.755C253.491 194.755 253.556 195.094 253.569 195.52C253.583 195.946 253.528 196.294 253.455 196.294C253.381 196.294 253.312 195.951 253.303 195.525C253.294 195.099 253.345 194.755 253.418 194.755Z" fill="#263238"/>
<path d="M253.331 191.673C253.404 191.673 253.473 192.012 253.487 192.438C253.501 192.864 253.45 193.212 253.377 193.212C253.303 193.212 253.235 192.873 253.221 192.447C253.207 192.021 253.257 191.673 253.331 191.673Z" fill="#263238"/>
<path d="M253.212 188.595C253.285 188.595 253.358 188.934 253.377 189.36C253.395 189.786 253.349 190.13 253.276 190.134C253.202 190.139 253.129 189.795 253.111 189.369C253.092 188.943 253.138 188.6 253.212 188.595Z" fill="#263238"/>
<path d="M253.088 185.517C253.157 185.517 253.23 185.856 253.248 186.282C253.267 186.708 253.221 187.052 253.147 187.056C253.074 187.061 253.001 186.717 252.982 186.292C252.964 185.866 253.014 185.522 253.088 185.517Z" fill="#263238"/>
<path d="M252.973 182.44C253.046 182.44 253.12 182.779 253.134 183.205C253.147 183.631 253.101 183.974 253.028 183.979C252.955 183.983 252.886 183.64 252.868 183.214C252.849 182.788 252.9 182.444 252.973 182.44Z" fill="#263238"/>
<path d="M252.877 179.362C252.95 179.362 253.019 179.701 253.033 180.127C253.046 180.553 252.996 180.896 252.923 180.901C252.849 180.905 252.78 180.562 252.767 180.136C252.753 179.71 252.803 179.362 252.877 179.362Z" fill="#263238"/>
<path d="M252.794 176.284C252.868 176.284 252.936 176.623 252.945 177.049C252.955 177.475 252.904 177.823 252.831 177.823C252.757 177.823 252.693 177.484 252.679 177.058C252.666 176.632 252.725 176.284 252.794 176.284Z" fill="#263238"/>
<path d="M252.725 173.206C252.799 173.206 252.863 173.545 252.872 173.971C252.881 174.397 252.831 174.741 252.757 174.745C252.684 174.75 252.62 174.402 252.611 173.976C252.602 173.55 252.652 173.206 252.725 173.206Z" fill="#263238"/>
<path d="M252.675 170.124C252.748 170.124 252.813 170.468 252.817 170.894C252.822 171.319 252.771 171.663 252.698 171.663C252.625 171.663 252.56 171.324 252.556 170.898C252.551 170.472 252.602 170.129 252.675 170.124Z" fill="#263238"/>
<path d="M252.638 167.046C252.712 167.046 252.776 167.39 252.78 167.816C252.785 168.242 252.725 168.585 252.657 168.585C252.588 168.585 252.519 168.242 252.514 167.816C252.51 167.39 252.565 167.046 252.638 167.046Z" fill="#263238"/>
<path d="M252.62 163.964C252.693 163.964 252.753 164.307 252.757 164.733C252.762 165.159 252.702 165.503 252.629 165.503C252.556 165.503 252.491 165.159 252.491 164.733C252.491 164.307 252.547 163.964 252.62 163.964Z" fill="#263238"/>
<path d="M252.62 160.886C252.689 160.886 252.748 161.23 252.748 161.656C252.748 162.082 252.689 162.425 252.615 162.425C252.542 162.425 252.487 162.082 252.487 161.656C252.487 161.23 252.546 160.886 252.62 160.886Z" fill="#263238"/>
<path d="M252.634 157.808C252.707 157.808 252.762 158.152 252.758 158.578C252.753 159.004 252.698 159.347 252.625 159.347C252.551 159.347 252.492 159.004 252.496 158.578C252.501 158.152 252.56 157.808 252.634 157.808Z" fill="#263238"/>
<path d="M252.666 154.726C252.734 154.726 252.789 155.074 252.785 155.5C252.78 155.926 252.721 156.27 252.647 156.27C252.574 156.27 252.519 155.922 252.523 155.496C252.528 155.07 252.592 154.726 252.666 154.726Z" fill="#263238"/>
<path d="M252.725 151.648C252.799 151.648 252.854 151.996 252.845 152.422C252.836 152.848 252.771 153.187 252.698 153.187C252.625 153.187 252.574 152.844 252.579 152.418C252.583 151.992 252.638 151.648 252.725 151.648Z" fill="#263238"/>
<path d="M252.776 148.571C252.849 148.571 252.9 148.919 252.89 149.34C252.881 149.761 252.813 150.11 252.744 150.11C252.675 150.11 252.615 149.761 252.624 149.336C252.634 148.91 252.725 148.566 252.776 148.571Z" fill="#263238"/>
<path d="M252.868 145.488C252.941 145.488 252.991 145.836 252.973 146.262C252.955 146.688 252.891 147.032 252.817 147.027C252.744 147.023 252.698 146.679 252.712 146.253C252.725 145.827 252.799 145.484 252.868 145.488Z" fill="#263238"/>
<path d="M253.033 142.411C253.106 142.411 253.143 142.763 253.12 143.189C253.097 143.615 253.014 143.954 252.941 143.949C252.867 143.945 252.831 143.597 252.854 143.171C252.877 142.745 252.959 142.406 253.033 142.411Z" fill="#263238"/>
<path d="M253.303 139.342C253.377 139.342 253.4 139.699 253.358 140.121C253.317 140.542 253.225 140.881 253.152 140.876C253.078 140.872 253.056 140.519 253.097 140.098C253.138 139.676 253.23 139.333 253.303 139.342Z" fill="#263238"/>
<path d="M253.597 137.066C253.67 137.066 253.702 137.253 253.675 137.46C253.647 137.666 253.56 137.826 253.491 137.817C253.423 137.808 253.381 137.629 253.413 137.423C253.446 137.217 253.524 137.052 253.597 137.066Z" fill="#263238"/>
<path d="M242.887 207.95L256.39 208.17L256.285 205.926L242.887 205.995V207.95Z" fill="#263238"/>
<path d="M277.828 205.963C277.902 205.963 277.984 206.109 278.021 206.315C278.057 206.521 278.021 206.7 277.952 206.714C277.883 206.727 277.791 206.567 277.759 206.361C277.727 206.155 277.755 205.976 277.828 205.963Z" fill="#263238"/>
<path d="M277.347 203.013C277.415 203.013 277.53 203.32 277.594 203.728C277.658 204.135 277.658 204.474 277.594 204.488C277.53 204.502 277.411 204.176 277.347 203.769C277.282 203.361 277.273 203.022 277.347 203.013Z" fill="#263238"/>
<path d="M276.856 200.059C276.929 200.059 277.044 200.37 277.108 200.778C277.172 201.186 277.172 201.525 277.108 201.534C277.044 201.543 276.92 201.227 276.851 200.819C276.782 200.412 276.787 200.073 276.856 200.059Z" fill="#263238"/>
<path d="M276.365 197.109C276.438 197.109 276.548 197.416 276.617 197.824C276.686 198.232 276.681 198.57 276.617 198.584C276.553 198.598 276.429 198.277 276.36 197.87C276.292 197.462 276.292 197.123 276.365 197.109Z" fill="#263238"/>
<path d="M275.865 194.16C275.938 194.16 276.053 194.467 276.122 194.874C276.191 195.282 276.186 195.621 276.122 195.635C276.058 195.648 275.934 195.328 275.865 194.92C275.796 194.513 275.796 194.192 275.865 194.16Z" fill="#263238"/>
<path d="M275.365 191.21C275.438 191.21 275.553 191.517 275.622 191.925C275.691 192.333 275.691 192.671 275.622 192.685C275.553 192.699 275.434 192.378 275.365 191.971C275.296 191.563 275.292 191.224 275.365 191.21Z" fill="#263238"/>
<path d="M274.861 188.261C274.93 188.261 275.044 188.568 275.118 188.975C275.191 189.383 275.186 189.722 275.118 189.736C275.049 189.749 274.93 189.429 274.861 189.021C274.792 188.614 274.787 188.275 274.861 188.261Z" fill="#263238"/>
<path d="M274.347 185.316C274.42 185.316 274.535 185.623 274.608 186.026C274.682 186.429 274.677 186.777 274.608 186.786C274.54 186.795 274.42 186.479 274.352 186.072C274.283 185.664 274.283 185.325 274.347 185.316Z" fill="#263238"/>
<path d="M273.824 182.366C273.897 182.366 274.012 182.673 274.081 183.081C274.15 183.489 274.154 183.827 274.081 183.841C274.008 183.855 273.893 183.534 273.824 183.127C273.755 182.719 273.76 182.38 273.824 182.366Z" fill="#263238"/>
<path d="M273.31 179.422C273.384 179.422 273.498 179.728 273.572 180.136C273.645 180.544 273.645 180.883 273.572 180.892C273.498 180.901 273.384 180.589 273.31 180.182C273.237 179.774 273.242 179.435 273.31 179.422Z" fill="#263238"/>
<path d="M272.787 176.477C272.861 176.477 272.976 176.783 273.049 177.191C273.122 177.599 273.122 177.938 273.049 177.947C272.976 177.956 272.861 177.64 272.787 177.237C272.714 176.834 272.714 176.49 272.787 176.477Z" fill="#263238"/>
<path d="M272.26 173.532C272.329 173.532 272.448 173.839 272.521 174.246C272.595 174.654 272.595 174.993 272.521 175.002C272.448 175.011 272.333 174.695 272.26 174.292C272.186 173.889 272.186 173.545 272.26 173.532Z" fill="#263238"/>
<path d="M271.723 170.587C271.797 170.587 271.916 170.894 271.989 171.301C272.063 171.709 272.063 172.048 271.989 172.061C271.916 172.075 271.801 171.755 271.728 171.347C271.655 170.939 271.655 170.6 271.723 170.587Z" fill="#263238"/>
<path d="M271.187 167.628C271.256 167.628 271.375 167.93 271.448 168.338C271.522 168.746 271.526 169.084 271.448 169.098C271.37 169.112 271.256 168.791 271.182 168.388C271.109 167.985 271.113 167.66 271.187 167.628Z" fill="#263238"/>
<path d="M270.641 164.701C270.714 164.701 270.834 165.008 270.907 165.416C270.98 165.824 270.985 166.162 270.907 166.176C270.829 166.19 270.714 165.869 270.641 165.462C270.568 165.054 270.572 164.715 270.641 164.701Z" fill="#263238"/>
<path d="M270.095 161.761C270.164 161.761 270.288 162.068 270.361 162.471C270.434 162.874 270.439 163.217 270.361 163.231C270.283 163.245 270.168 162.929 270.09 162.521C270.012 162.114 270.022 161.775 270.095 161.761Z" fill="#263238"/>
<path d="M269.54 158.821C269.613 158.821 269.733 159.128 269.811 159.531C269.889 159.934 269.889 160.277 269.811 160.291C269.733 160.305 269.618 159.989 269.54 159.581C269.462 159.173 269.471 158.834 269.54 158.821Z" fill="#263238"/>
<path d="M268.985 155.885C269.058 155.885 269.178 156.187 269.256 156.595C269.334 157.002 269.334 157.337 269.256 157.35C269.178 157.364 269.063 157.048 268.985 156.641C268.907 156.233 268.912 155.894 268.985 155.885Z" fill="#263238"/>
<path d="M268.425 152.945C268.494 152.945 268.618 153.247 268.691 153.654C268.765 154.062 268.779 154.401 268.691 154.415C268.604 154.428 268.499 154.108 268.421 153.705C268.343 153.302 268.352 152.972 268.425 152.945Z" fill="#263238"/>
<path d="M267.861 150.009C267.935 150.009 268.054 150.311 268.132 150.714C268.21 151.117 268.219 151.461 268.132 151.474C268.045 151.488 267.939 151.172 267.861 150.764C267.783 150.357 267.788 150.022 267.861 150.009Z" fill="#263238"/>
<path d="M267.288 147.068C267.357 147.068 267.481 147.375 267.559 147.778C267.637 148.181 267.646 148.525 267.559 148.539C267.471 148.552 267.366 148.236 267.288 147.829C267.21 147.421 267.215 147.082 267.288 147.068Z" fill="#263238"/>
<path d="M266.71 144.133C266.784 144.133 266.907 144.439 266.985 144.843C267.063 145.246 267.073 145.589 266.985 145.603C266.898 145.617 266.793 145.301 266.71 144.893C266.628 144.485 266.641 144.146 266.71 144.133Z" fill="#263238"/>
<path d="M266.132 141.201C266.201 141.201 266.325 141.504 266.407 141.907C266.49 142.31 266.495 142.653 266.407 142.667C266.32 142.681 266.215 142.365 266.132 141.957C266.05 141.55 266.059 141.215 266.132 141.201Z" fill="#263238"/>
<path d="M265.568 138.266C265.641 138.266 265.765 138.568 265.843 138.971C265.921 139.374 265.935 139.717 265.843 139.731C265.752 139.745 265.651 139.429 265.568 139.026C265.486 138.623 265.476 138.279 265.568 138.266Z" fill="#263238"/>
<path d="M264.958 135.334C265.027 135.334 265.155 135.637 265.233 136.04C265.311 136.443 265.325 136.786 265.233 136.8C265.141 136.814 265.041 136.498 264.958 136.09C264.875 135.683 264.885 135.348 264.958 135.334Z" fill="#263238"/>
<path d="M264.362 132.399C264.435 132.399 264.559 132.701 264.641 133.109C264.724 133.516 264.733 133.851 264.641 133.864C264.55 133.878 264.449 133.567 264.366 133.159C264.284 132.751 264.293 132.417 264.362 132.399Z" fill="#263238"/>
<path d="M263.912 130.191C263.986 130.191 264.077 130.329 264.119 130.535C264.16 130.741 264.119 130.919 264.064 130.933C264.009 130.947 263.903 130.796 263.862 130.59C263.821 130.383 263.844 130.205 263.912 130.191Z" fill="#263238"/>
<path d="M214.486 109.92C214.486 109.92 222.238 120.092 226.976 117.798C231.714 115.503 240.213 107.722 240.213 107.722L234.25 101.74L226.343 110.547L216.252 105.665L214.486 109.92Z" fill="#FFBE9D"/>
<path d="M257.394 90.739L249.515 90.1115C249.464 89.1955 249.515 85.6369 249.515 85.6369C249.515 85.6369 246.231 85.1285 246.194 81.8538C246.157 78.5791 246.721 71.0587 246.721 71.0587C248.587 70.2556 250.635 69.9654 252.651 70.2183C254.667 70.4711 256.579 71.2578 258.188 72.4968L258.674 72.8678L257.394 90.739Z" fill="#FFBE9D"/>
<path d="M247.487 76.6876C247.536 76.6469 247.576 76.5967 247.604 76.5399C247.632 76.4832 247.648 76.4212 247.651 76.358C247.654 76.2947 247.644 76.2315 247.622 76.1723C247.599 76.1132 247.564 76.0594 247.52 76.0143C247.457 75.951 247.377 75.9073 247.29 75.8885C247.203 75.8697 247.112 75.8767 247.029 75.9085C246.946 75.9403 246.874 75.9956 246.822 76.0677C246.769 76.1398 246.739 76.2255 246.735 76.3144C246.731 76.4033 246.753 76.4914 246.798 76.5681C246.843 76.6448 246.909 76.7068 246.989 76.7464C247.069 76.7859 247.159 76.8015 247.247 76.791C247.336 76.7806 247.419 76.7446 247.487 76.6876Z" fill="#263238"/>
<path d="M246.694 75.9364C246.744 75.9959 247.065 75.7486 247.519 75.744C247.974 75.7395 248.299 75.9776 248.35 75.9181C248.4 75.8585 248.322 75.7898 248.18 75.6799C247.986 75.5426 247.753 75.4705 247.515 75.4738C247.277 75.4727 247.046 75.5518 246.859 75.6982C246.717 75.8081 246.671 75.9135 246.694 75.9364Z" fill="#263238"/>
<path d="M251.9 76.3303C251.825 76.3795 251.767 76.4494 251.731 76.5314C251.696 76.6134 251.685 76.704 251.701 76.7919C251.716 76.8798 251.757 76.9613 251.818 77.0264C251.88 77.0914 251.959 77.1371 252.046 77.1579C252.133 77.1787 252.224 77.1737 252.308 77.1434C252.392 77.1131 252.466 77.059 252.519 76.9876C252.573 76.9162 252.605 76.8307 252.61 76.7416C252.616 76.6524 252.595 76.5636 252.551 76.486C252.52 76.4315 252.478 76.384 252.428 76.3463C252.378 76.3087 252.32 76.2817 252.259 76.2671C252.198 76.2525 252.135 76.2506 252.073 76.2614C252.011 76.2723 251.952 76.2957 251.9 76.3303Z" fill="#263238"/>
<path d="M251.602 76.3349C251.652 76.3899 251.973 76.1425 252.427 76.1425C252.881 76.1425 253.207 76.3715 253.253 76.3166C253.299 76.2616 253.253 76.1883 253.083 76.0784C252.893 75.9357 252.661 75.8586 252.423 75.8586C252.185 75.8586 251.953 75.9357 251.762 76.0784C251.625 76.2067 251.574 76.312 251.602 76.3349Z" fill="#263238"/>
<path d="M249.79 80.0584C249.556 79.9649 249.308 79.9122 249.056 79.9027C248.941 79.9027 248.85 79.8615 248.841 79.7974C248.836 79.6803 248.864 79.5643 248.923 79.463C249.038 79.1607 249.157 78.8585 249.281 78.547C249.62 77.772 249.879 76.9649 250.056 76.1379C249.644 76.8744 249.309 77.6509 249.056 78.4554C248.937 78.7714 248.827 79.0783 248.717 79.3714C248.638 79.5221 248.615 79.6957 248.652 79.8615C248.669 79.907 248.696 79.9481 248.731 79.9814C248.766 80.0148 248.808 80.0396 248.854 80.0538C248.921 80.0639 248.989 80.0639 249.056 80.0538C249.299 80.0942 249.547 80.0958 249.79 80.0584Z" fill="#263238"/>
<path d="M251.258 80.553C250.552 80.8688 249.807 81.0861 249.042 81.1988C249.196 81.4347 249.425 81.6119 249.692 81.7017C249.96 81.7914 250.249 81.7885 250.515 81.6935C251.496 81.3362 251.258 80.553 251.258 80.553Z" fill="white"/>
<path d="M249.515 85.5911C251.03 85.6173 252.519 85.195 253.794 84.3774C253.794 84.3774 252.78 86.7315 249.51 86.4384L249.515 85.5911Z" fill="#EB996E"/>
<path d="M246.666 71.906C246.666 71.906 248.583 73.0144 251.253 71.906C253.014 71.1824 255.028 70.9168 255.441 71.2877C255.853 71.6587 255.812 73.4174 257.459 74.0357C257.459 74.0357 257.096 77.3608 258.436 77.3425C259.775 77.3242 259.353 72.0938 259.353 72.0938L256.211 70.2618L252.702 69.3458L249.317 69.5702L246.666 70.074V71.906Z" fill="#263238"/>
<path d="M258.271 76.2616C258.326 76.2616 260.523 75.5929 260.449 77.8325C260.376 80.0721 258.156 79.5408 258.156 79.4767C258.156 79.4126 258.271 76.2616 258.271 76.2616Z" fill="#FFBE9D"/>
<path d="M258.853 78.6478C258.853 78.6478 258.89 78.6753 258.959 78.7073C259.004 78.7266 259.053 78.7365 259.103 78.7365C259.153 78.7365 259.202 78.7266 259.247 78.7073C259.392 78.6181 259.511 78.4924 259.591 78.3428C259.672 78.1933 259.711 78.0252 259.706 77.8555C259.715 77.6633 259.684 77.4714 259.614 77.2921C259.595 77.2221 259.559 77.1578 259.509 77.1044C259.46 77.051 259.398 77.0102 259.33 76.9853C259.285 76.9707 259.237 76.973 259.194 76.9915C259.151 77.0101 259.116 77.0437 259.096 77.086C259.064 77.1456 259.096 77.1914 259.064 77.1959C259.032 77.2005 259.018 77.1547 259.037 77.0631C259.053 77.008 259.086 76.9597 259.133 76.9257C259.196 76.8824 259.273 76.8644 259.348 76.8753C259.44 76.8968 259.525 76.9413 259.595 77.0046C259.665 77.0679 259.717 77.148 259.747 77.2372C259.836 77.4339 259.876 77.6493 259.862 77.8646C259.867 78.0642 259.812 78.2607 259.705 78.4294C259.598 78.5981 259.444 78.7314 259.261 78.8127C259.2 78.8286 259.136 78.8308 259.075 78.8189C259.013 78.807 258.954 78.7814 258.903 78.744C258.858 78.7028 258.844 78.6524 258.853 78.6478Z" fill="#EB996E"/>
<path d="M248.891 75.2036C248.817 75.3318 248.386 75.2265 247.873 75.2036C247.359 75.1807 246.923 75.2448 246.864 75.1074C246.804 74.97 247.244 74.6494 247.896 74.6769C248.547 74.7044 248.969 75.0845 248.891 75.2036Z" fill="#263238"/>
<path d="M253.922 75.2036C253.849 75.3318 253.418 75.2265 252.904 75.2036C252.39 75.1807 251.955 75.2448 251.895 75.1074C251.835 74.97 252.276 74.6494 252.927 74.6769C253.578 74.7044 254 75.0845 253.922 75.2036Z" fill="#263238"/>
<path d="M256.28 71.7411C256.646 72.2998 257.084 72.808 257.583 73.2525C258.086 73.698 258.745 73.9282 259.417 73.8937C259.751 73.8696 260.069 73.7398 260.323 73.5232C260.578 73.3066 260.757 73.0144 260.835 72.6892C260.86 72.5272 260.851 72.3617 260.807 72.2037C260.763 72.0457 260.685 71.899 260.58 71.7736C260.474 71.6481 260.342 71.5467 260.194 71.4763C260.046 71.4059 259.884 71.3682 259.72 71.3656C259.83 71.3817 259.942 71.3713 260.048 71.3352C260.153 71.2991 260.248 71.2384 260.325 71.1582C260.402 71.0779 260.458 70.9805 260.49 70.874C260.521 70.7674 260.527 70.6549 260.506 70.5459C260.485 70.4368 260.438 70.3342 260.369 70.2469C260.301 70.1595 260.212 70.0898 260.111 70.0436C260.01 69.9975 259.899 69.9761 259.788 69.9814C259.677 69.9867 259.569 70.0184 259.472 70.074C260.05 70.042 260.229 69.158 259.825 68.7504C259.602 68.5684 259.334 68.4473 259.05 68.3992C258.765 68.351 258.473 68.3773 258.202 68.4756C257.665 68.677 257.11 68.8303 256.546 68.9336C255.634 68.9287 254.756 68.5897 254.078 67.981C253.411 67.3741 252.668 66.8554 251.868 66.4375C250.819 66.0532 249.672 66.0274 248.606 66.3642C247.706 66.5806 246.88 67.0327 246.212 67.6741C245.881 67.9951 245.626 68.3867 245.467 68.8197C245.308 69.2527 245.249 69.7159 245.295 70.1748C245.355 70.6315 245.559 71.0575 245.876 71.3922C246.193 71.7269 246.607 71.9532 247.061 72.0388C248.37 72.2933 249.728 72.0996 250.914 71.4892C252.748 70.4725 256.239 71.0908 256.239 71.0908L256.28 71.7411Z" fill="#263238"/>
<path d="M259.702 69.5702C259.659 69.6046 259.611 69.6324 259.559 69.6527C259.463 69.703 259.316 69.7672 259.128 69.845C258.588 70.0552 258.025 70.1982 257.45 70.271C256.593 70.3877 255.723 70.3582 254.876 70.1839C253.862 69.9244 252.87 69.5797 251.913 69.1534C250.974 68.7373 249.95 68.5475 248.923 68.5993C248.511 68.6262 248.109 68.7407 247.744 68.935C247.38 69.1292 247.061 69.3989 246.809 69.7259C246.487 70.1862 246.353 70.7508 246.432 71.306C246.479 71.5088 246.54 71.7078 246.616 71.9014C246.616 71.9014 246.575 71.8602 246.515 71.7686C246.435 71.6253 246.376 71.471 246.341 71.3106C246.281 71.0204 246.279 70.7212 246.336 70.4303C246.392 70.1394 246.506 69.8626 246.671 69.616C246.93 69.26 247.262 68.9639 247.646 68.7481C248.03 68.5323 248.456 68.4019 248.895 68.3657C249.959 68.2958 251.023 68.486 251.996 68.9199C252.944 69.3381 253.922 69.6841 254.922 69.9549C255.746 70.1323 256.593 70.1786 257.431 70.0923C258.203 69.9927 258.964 69.8178 259.702 69.5702Z" fill="#455A64"/>
<path d="M260.247 73.1152C260.275 73.1152 260.174 73.335 259.899 73.5732C259.535 73.8919 259.079 74.086 258.597 74.1272C258.115 74.1684 257.633 74.0545 257.22 73.8022C256.908 73.6052 256.762 73.4174 256.794 73.3991C256.826 73.3808 256.991 73.509 257.298 73.651C257.695 73.839 258.135 73.9211 258.573 73.8892C259.013 73.8434 259.433 73.6857 259.793 73.4312C260.064 73.2526 260.22 73.0923 260.247 73.1152Z" fill="#455A64"/>
<path d="M259.702 71.9335C259.752 71.9655 259.532 72.3457 259.064 72.5838C258.596 72.822 258.147 72.7853 258.147 72.7212C258.147 72.6571 258.527 72.5884 258.936 72.3731C259.344 72.1579 259.647 71.906 259.702 71.9335Z" fill="#455A64"/>
<path d="M245.387 73.2159C245.359 73.2159 245.309 73.1014 245.318 72.8999C245.336 72.6349 245.439 72.3826 245.612 72.1808C245.782 71.9791 246.014 71.8391 246.272 71.7824C246.469 71.7411 246.593 71.7824 246.593 71.7824C246.593 71.7824 246.134 71.9152 245.79 72.3182C245.446 72.7213 245.456 73.2159 245.387 73.2159Z" fill="#263238"/>
<path d="M244.653 69.8954C244.871 70.3001 245.123 70.6861 245.405 71.0495C245.741 71.3646 246.101 71.6525 246.483 71.9106C245.998 71.822 245.556 71.5768 245.224 71.2127C244.893 70.8485 244.69 70.3857 244.648 69.8954H244.653Z" fill="#455A64"/>
<path d="M266.32 130.791L239.956 129.358C239.892 126.642 241.19 106.059 241.19 106.059L239.814 108.615L232.728 102.303L238.92 93.9449C239.895 92.6318 241.123 91.5266 242.532 90.6945C243.941 89.8623 245.503 89.32 247.125 89.0993C248.084 88.9711 248.818 88.907 249.29 88.8474C252.026 89.7085 254.961 89.7085 257.697 88.8474C258.885 88.8884 260.059 89.1124 261.179 89.5115C263.285 90.2595 265.187 91.4891 266.733 93.1022L274.15 105.546L265.155 111.193L263.857 107.282L266.32 130.791Z" fill="#0984E3"/>
<path d="M263.348 91.2657C263.171 91.3661 263.007 91.4893 262.862 91.6321C262.507 92.0606 262.327 92.6067 262.357 93.1618C262.412 94.5816 262.577 96.5647 262.756 98.7402C262.935 100.916 263.155 102.862 263.307 104.31C263.38 104.987 263.44 105.555 263.486 106C263.521 106.205 263.534 106.414 263.522 106.622C263.462 106.422 263.419 106.217 263.394 106.009C263.325 105.615 263.238 105.042 263.142 104.332C262.944 102.908 262.683 100.939 262.518 98.7586C262.353 96.5785 262.201 94.6045 262.188 93.1572C262.171 92.5662 262.391 91.9929 262.798 91.5634C262.91 91.4517 263.044 91.3644 263.192 91.3069C263.24 91.2813 263.294 91.2672 263.348 91.2657Z" fill="#263238"/>
<path d="M241.259 96.4869C241.312 96.9811 241.328 97.4788 241.305 97.9754C241.305 98.8914 241.282 100.165 241.245 101.566C241.208 102.968 241.162 104.236 241.117 105.157C241.115 105.654 241.075 106.15 240.997 106.641C240.937 106.147 240.921 105.649 240.947 105.152C240.947 104.236 240.947 102.963 241.006 101.562C241.066 100.16 241.089 98.8868 241.135 97.9708C241.133 97.4735 241.175 96.977 241.259 96.4869Z" fill="#263238"/>
<path d="M257.899 98.6395C257.773 98.7899 257.63 98.9251 257.473 99.0425L256.257 100.078C255.23 100.957 253.826 102.18 252.317 103.581C250.808 104.983 249.483 106.293 248.533 107.245L247.409 108.381C247.278 108.527 247.134 108.66 246.978 108.78C247.08 108.613 247.202 108.459 247.341 108.322C247.588 108.033 247.951 107.63 248.414 107.135C249.331 106.142 250.643 104.809 252.152 103.407C253.661 102.006 255.092 100.792 256.147 99.9493C256.675 99.528 257.11 99.1936 257.413 98.9692C257.563 98.8423 257.726 98.7317 257.899 98.6395Z" fill="#FAFAFA"/>
<path d="M258.959 107.447C258.775 107.397 258.596 107.328 258.426 107.241C258.087 107.094 257.605 106.865 257.014 106.577C255.826 106 254.216 105.143 252.491 104.113C250.767 103.082 249.253 102.056 248.184 101.287C247.648 100.897 247.221 100.581 246.932 100.348C246.766 100.242 246.612 100.118 246.474 99.9768C246.649 100.056 246.813 100.156 246.964 100.275L248.258 101.145C249.349 101.882 250.868 102.876 252.588 103.893C254.308 104.909 255.904 105.798 257.064 106.412L258.44 107.145C258.624 107.224 258.798 107.326 258.959 107.447Z" fill="#FAFAFA"/>
<path d="M206.9 91.4947C208.083 89.3741 207.556 86.5757 206.024 84.6979C204.492 82.8201 202.121 81.7667 199.726 81.3591C198.254 81.1072 196.745 81.0706 195.3 80.6904C193.855 80.3103 192.429 79.5088 191.764 78.176C191.415 79.8073 191.65 81.5093 192.429 82.985C191.591 82.8108 190.794 82.4781 190.081 82.0049C190.081 84.9773 190.828 88.0047 192.567 90.4138C194.305 92.8229 197.121 94.5358 200.098 94.5724C203.075 94.6091 206.083 92.7404 207.06 89.9558" fill="#455A64"/>
<path d="M190.081 80.837C189.961 82.2751 190.145 85.0643 190.695 86.3971C190.888 86.9134 191.19 87.3821 191.58 87.7711C191.779 87.9657 192.019 88.1117 192.284 88.1976C192.548 88.2834 192.828 88.3068 193.103 88.2658C193.961 88.0917 194.521 87.1574 195.397 87.0429C196.433 86.9009 197.277 87.991 198.318 88.023C199.171 88.0459 199.892 87.3314 200.203 86.5391C200.456 85.7269 200.61 84.8873 200.662 84.0384C200.716 83.1811 201.085 82.3739 201.699 81.7713C199.911 81.1187 198.053 80.6761 196.163 80.4523C193.016 80.0721 191.755 77.2463 191.755 77.2463C191.755 77.2463 190.837 80.6401 192.452 82.9667L190.081 80.837Z" fill="#0984E3"/>
<path d="M206.033 98.012L277.549 150.224C278.524 150.931 279.738 151.226 280.929 151.046C282.12 150.866 283.193 150.225 283.915 149.262C284.273 148.778 284.533 148.227 284.678 147.643C284.823 147.058 284.851 146.45 284.761 145.855C284.671 145.259 284.463 144.687 284.151 144.172C283.839 143.656 283.429 143.207 282.942 142.85L211.143 90.7619L206.033 98.012Z" fill="#263238"/>
<path d="M273.141 106.183L265.802 110.79L266.99 113.905L250.57 120.651L246.075 120.857L242.759 120.243C242.759 120.243 242.465 120.628 243.025 121.219C243.543 121.609 244.136 121.888 244.768 122.039L242.291 124.278L245.501 128.35L256.509 125.694C262.605 124.658 277.122 121.755 277.177 117.523C277.232 113.703 273.141 106.183 273.141 106.183Z" fill="#FFBE9D"/>
<path d="M214.234 98.6898C214.404 98.1906 214.817 97.8334 215.266 98.067C215.355 98.1724 215.416 98.2991 215.441 98.4347C215.467 98.5703 215.457 98.7103 215.413 98.841L213.977 103.508L215.353 100.201C215.523 99.702 215.977 99.3997 216.271 99.67C216.35 99.7781 216.401 99.9039 216.42 100.036C216.44 100.169 216.426 100.304 216.381 100.43L215.142 104.31L216.151 101.882C216.362 101.333 216.61 101.181 216.894 101.305C217.179 101.429 217.183 101.836 217.115 102.052L216.257 104.919C216.44 105.468 217.073 107.209 216.468 108.175C216.436 108.225 216.527 108.386 216.523 108.436L216.812 108.77L214.945 110.529C213.982 109.673 213.087 106.073 212.808 104.708C212.629 103.934 212.666 103.127 212.913 102.372L214.234 98.6898Z" fill="#FFBE9D"/>
<path d="M211.143 90.7619L207.299 87.7253L202.277 95.0533L206.033 97.9937L211.143 90.7619Z" fill="#F5F5F5"/>
<path d="M146.259 76.9715L144.402 71.5259L144.59 68.4435L146.984 70.7931L150.589 80.9286C150.648 81.0929 150.672 81.2673 150.661 81.4413C150.651 81.6154 150.605 81.7854 150.526 81.9411C150.448 82.0969 150.338 82.2352 150.205 82.3477C150.072 82.4602 149.917 82.5446 149.75 82.5957C149.438 82.6899 149.101 82.6636 148.807 82.5219C148.513 82.3803 148.283 82.1337 148.163 81.8309L146.259 76.9715Z" fill="#455A64"/>
<path d="M149.452 81.263C149.216 80.7892 149.014 80.2994 148.846 79.7974C148.484 78.8172 148.025 77.5806 147.516 76.2158C147.007 74.851 146.562 73.6098 146.2 72.6297C146.039 72.2129 145.902 71.8556 145.787 71.5488C145.721 71.4225 145.67 71.2887 145.636 71.1503C145.942 71.5853 146.185 72.0619 146.356 72.5655C146.741 73.4815 147.227 74.7319 147.732 76.1334C148.236 77.5348 148.69 78.8127 148.998 79.7424C149.19 80.2362 149.342 80.7447 149.452 81.263Z" fill="#263238"/>
<path d="M144.59 68.4435L144.471 70.4129L145.989 69.8175L144.59 68.4435Z" fill="#263238"/>
<path d="M146.87 70.7656C146.1 71.172 145.262 71.4329 144.397 71.5351C144.765 71.2985 145.172 71.1294 145.599 71.0359C146.004 70.8727 146.434 70.7812 146.87 70.7656Z" fill="#263238"/>
<path d="M150.186 77.4616L150.644 75.854C150.67 75.7646 150.678 75.6708 150.666 75.5785C150.654 75.4862 150.623 75.3973 150.575 75.3174C150.528 75.2375 150.464 75.1683 150.388 75.114C150.312 75.0598 150.226 75.0217 150.135 75.0021L148.397 74.6219C148.321 74.7218 148.271 74.8388 148.251 74.9626C148.231 75.0864 148.242 75.2132 148.282 75.3318C148.456 75.6479 149.658 75.9456 149.658 75.9456L149.516 77.5669L150.186 77.4616Z" fill="#AA6550"/>
<path d="M110.823 100.856C111.376 100.898 111.932 100.828 112.458 100.65C112.983 100.472 113.468 100.19 113.882 99.8213C114.296 99.4523 114.631 99.0038 114.868 98.5025C115.104 98.0012 115.237 97.4574 115.258 96.9037C115.345 94.6641 115.423 92.397 115.423 92.397C115.423 92.397 118.827 92.0764 119.093 88.733C119.359 85.3896 119.226 77.6036 119.226 77.6036C117.357 76.6554 115.268 76.2242 113.175 76.3547C111.083 76.4852 109.064 77.1726 107.328 78.3455L106.805 78.7028L106.993 96.7938C107.005 97.827 107.406 98.818 108.115 99.5704C108.824 100.323 109.791 100.782 110.823 100.856Z" fill="#FFBE9D"/>
<path d="M116.809 162.178L126.89 208.601L134.495 208.422L127.872 164.028L116.809 162.178Z" fill="#B78876"/>
<path d="M98.1959 160.607L95.7466 205.94L103.232 207.744L108.846 161.564L98.1959 160.607Z" fill="#B78876"/>
<path d="M128.954 164.129L124.844 129.234L100.604 128.785L97.7693 161.257L128.954 164.129Z" fill="#263238"/>
<path d="M121.23 137.982C121.23 138.046 117.322 138.563 112.483 139.136C107.644 139.708 103.718 140.121 103.709 140.052C103.7 139.983 107.617 139.47 112.456 138.898C117.295 138.325 121.225 137.918 121.23 137.982Z" fill="#455A64"/>
<path d="M135.531 209.201L135.499 208.353L126.89 208.601L126.964 211.399H127.496C129.867 211.459 139.549 211.541 141.118 211.056C142.866 210.529 135.531 209.201 135.531 209.201Z" fill="#0984E3"/>
<g opacity="0.6">
<path d="M130.069 211.253C129.913 210.571 129.503 209.975 128.922 209.585C128.332 209.179 127.617 208.994 126.904 209.063L126.968 211.285L130.069 211.253Z" fill="white"/>
</g>
<g opacity="0.6">
<path d="M139.118 209.966C139.118 209.966 141.696 210.584 141.388 210.982C141.081 211.381 131.298 211.637 126.963 211.399V211.22L138.384 211.014C138.384 211.014 138.623 210.002 139.118 209.966Z" fill="white"/>
</g>
<path d="M126.84 211.22H126.986H127.408H128.968C130.289 211.22 132.105 211.22 134.119 211.17C136.132 211.12 137.944 211.033 139.26 210.955L140.815 210.854L141.237 210.822H141.389H141.237H140.815L139.256 210.891C137.939 210.95 136.123 211.024 134.114 211.079C132.105 211.133 130.289 211.147 128.968 211.156H127.408H126.986L126.84 211.22Z" fill="#263238"/>
<path d="M138.393 211.138C138.455 210.894 138.546 210.659 138.664 210.437C138.814 210.23 138.986 210.039 139.178 209.869C138.921 209.967 138.706 210.152 138.572 210.391C138.418 210.608 138.354 210.875 138.393 211.138Z" fill="#263238"/>
<path d="M135.83 210.011C135.852 210.011 135.972 209.883 136.091 209.7C136.21 209.517 136.284 209.352 136.261 209.338C136.238 209.324 136.118 209.462 135.999 209.65C135.88 209.837 135.802 209.998 135.83 210.011Z" fill="#263238"/>
<path d="M135.123 209.686C135.123 209.709 135.274 209.622 135.421 209.494C135.568 209.366 135.664 209.246 135.646 209.228C135.628 209.21 135.495 209.297 135.348 209.425C135.201 209.553 135.105 209.668 135.123 209.686Z" fill="#263238"/>
<path d="M134.66 208.949C134.808 208.996 134.965 209.01 135.119 208.99C135.274 209.004 135.43 208.986 135.577 208.935C135.429 208.888 135.273 208.874 135.119 208.894C134.964 208.879 134.807 208.898 134.66 208.949Z" fill="#263238"/>
<path d="M134.495 208.422C134.648 208.511 134.823 208.554 134.999 208.546C135.175 208.568 135.352 208.541 135.513 208.468C135.344 208.454 135.173 208.454 135.004 208.468C134.836 208.437 134.666 208.422 134.495 208.422Z" fill="#263238"/>
<path d="M136.1 209.306C136.283 209.334 136.468 209.334 136.651 209.306C136.848 209.277 137.043 209.231 137.233 209.169C137.348 209.135 137.459 209.089 137.563 209.031C137.595 209.015 137.624 208.992 137.647 208.965C137.669 208.937 137.686 208.905 137.696 208.871C137.704 208.832 137.699 208.792 137.682 208.756C137.666 208.72 137.639 208.689 137.605 208.669C137.393 208.577 137.157 208.557 136.933 208.612C136.709 208.668 136.51 208.796 136.366 208.976C136.283 209.076 136.225 209.193 136.196 209.32C136.174 209.407 136.196 209.457 136.196 209.457C136.244 209.291 136.323 209.135 136.43 208.999C136.554 208.861 136.712 208.758 136.889 208.701C137.103 208.628 137.337 208.636 137.545 208.724C137.637 208.784 137.605 208.88 137.508 208.935C137.413 208.991 137.311 209.036 137.206 209.068C137.022 209.132 136.833 209.183 136.641 209.219C136.307 209.306 136.096 209.306 136.1 209.306Z" fill="#263238"/>
<path d="M136.224 209.329C136.224 209.329 136.306 209.205 136.274 208.972C136.254 208.838 136.199 208.711 136.114 208.605C136.063 208.53 135.995 208.467 135.915 208.424C135.835 208.38 135.746 208.356 135.655 208.353C135.602 208.364 135.555 208.396 135.525 208.442C135.495 208.487 135.484 208.543 135.495 208.596C135.511 208.677 135.546 208.754 135.595 208.821C135.67 208.934 135.761 209.036 135.866 209.123C135.954 209.216 136.065 209.286 136.187 209.324C136.187 209.324 136.072 209.233 135.917 209.077C135.825 208.987 135.745 208.885 135.678 208.775C135.595 208.669 135.54 208.477 135.678 208.45C135.75 208.456 135.82 208.478 135.884 208.513C135.947 208.549 136.002 208.597 136.045 208.656C136.125 208.752 136.183 208.865 136.215 208.985C136.228 209.099 136.231 209.214 136.224 209.329Z" fill="#263238"/>
<path d="M126.945 209.036C126.945 209.036 127.193 209.008 127.578 209.036C128.079 209.078 128.561 209.249 128.977 209.53C129.382 209.805 129.701 210.19 129.894 210.639C130.036 210.978 130.055 211.207 130.073 211.202C130.092 211.198 130.073 211.147 130.073 211.042C130.055 210.896 130.02 210.753 129.968 210.616C129.787 210.144 129.467 209.738 129.05 209.453C128.62 209.159 128.117 208.991 127.596 208.967C127.443 208.963 127.289 208.972 127.138 208.995C127.072 208.997 127.006 209.011 126.945 209.036Z" fill="#263238"/>
<path d="M131.128 210.451C131.541 210.528 131.961 210.556 132.38 210.533C132.801 210.542 133.222 210.499 133.632 210.405C133.632 210.378 133.068 210.405 132.38 210.437C131.692 210.469 131.128 210.424 131.128 210.451Z" fill="#263238"/>
<path d="M129.445 210.492C129.445 210.492 129.495 210.602 129.555 210.717C129.615 210.831 129.651 210.941 129.679 210.937C129.706 210.932 129.72 210.813 129.651 210.675C129.582 210.538 129.463 210.474 129.445 210.492Z" fill="#263238"/>
<path d="M128.789 209.764C128.789 209.764 128.83 209.865 128.917 209.943C129.005 210.021 129.101 210.075 129.119 210.057C129.138 210.039 129.083 209.956 128.991 209.874C128.899 209.792 128.812 209.764 128.789 209.764Z" fill="#263238"/>
<path d="M127.872 209.466C127.872 209.494 127.995 209.466 128.124 209.526C128.252 209.585 128.339 209.627 128.362 209.604C128.385 209.581 128.312 209.48 128.151 209.434C127.991 209.388 127.862 209.443 127.872 209.466Z" fill="#263238"/>
<path d="M127.225 209.306C127.225 209.334 127.266 209.37 127.335 209.393C127.404 209.416 127.473 209.393 127.487 209.393C127.501 209.393 127.446 209.329 127.372 209.306C127.298 209.283 127.234 209.306 127.225 209.306Z" fill="#263238"/>
<path d="M95.5263 205.55L94.2512 211.152H102.865L103.232 207.506L95.5263 205.55Z" fill="#0984E3"/>
<path d="M103.039 210.337C102.626 210.404 102.206 210.429 101.787 210.41C101.012 210.41 99.9527 210.41 98.7601 210.355L95.7375 210.227C95.318 210.23 94.899 210.196 94.4854 210.126C94.9007 210.059 95.3219 210.036 95.7421 210.057C96.5172 210.057 97.5768 210.057 98.7693 210.117L101.792 210.24C102.21 210.238 102.627 210.27 103.039 210.337Z" fill="#263238"/>
<path d="M99.3929 206.645C99.4683 207.853 99.3866 209.067 99.1498 210.254C99.0682 209.646 99.0682 209.03 99.1498 208.422C99.1519 207.822 99.2336 207.224 99.3929 206.645Z" fill="#263238"/>
<path opacity="0.6" d="M94.2512 211.152H102.865L102.948 210.337L94.4072 210.126L94.2512 211.056" fill="white"/>
<path d="M150.388 75.7166L146.26 77.2555C146.214 75.996 145.342 74.6907 145.342 75.3182C145.342 75.9456 145.044 79.1883 145.044 79.1883L138.517 90.5741C137.6 92.4061 135.963 93.4412 134.784 93.629L129.408 94.7786L130.922 101.873L138.407 100.041C139.366 99.8044 140.255 99.3468 141.005 98.705C141.755 98.0631 142.343 97.2548 142.723 96.3449L148.952 81.4325C149.368 80.4725 149.719 79.4856 150.002 78.4784C150.203 77.5693 150.332 76.6459 150.388 75.7166Z" fill="#B78876"/>
<path d="M92.2883 110.863C92.2883 110.863 98.5262 98.1494 99.0078 97.7555C101.989 95.3144 105.796 95.5571 105.796 95.5571L116.208 95.6441C116.208 95.6441 124.404 94.6182 129.179 93.8121L131.266 103.6L122.092 105.807L121.226 116.895L123.258 125.355C123.711 126.361 124.093 127.399 124.4 128.46L124.679 129.445L100.563 129.692C100.485 126.88 103.705 119.909 103.705 119.909L101.948 108.967L101.086 113.149L92.2883 110.863Z" fill="#455A64"/>
<path d="M121.716 108.519C121.299 108.421 120.864 108.421 120.446 108.519C119.954 108.642 119.488 108.851 119.07 109.137C118.526 109.524 118.004 109.942 117.506 110.387C116.895 110.949 116.154 111.352 115.35 111.56C114.409 111.741 113.435 111.643 112.548 111.28C111.574 110.895 110.677 110.338 109.901 109.636C109.085 108.931 108.323 108.115 107.502 107.346C106.724 106.574 105.831 105.925 104.856 105.422C103.943 104.967 102.96 104.669 101.948 104.543C100.222 104.317 98.4677 104.602 96.9025 105.363C95.8497 105.876 94.9011 106.58 94.1047 107.438C93.8249 107.744 93.6231 107.996 93.49 108.17C93.4262 108.262 93.3557 108.35 93.2791 108.431C93.324 108.329 93.381 108.232 93.4488 108.143C93.6283 107.876 93.8244 107.621 94.0359 107.378C94.8161 106.482 95.7632 105.747 96.8246 105.212C98.4129 104.415 100.202 104.107 101.966 104.328C103.005 104.449 104.015 104.748 104.952 105.212C105.949 105.723 106.862 106.384 107.658 107.172C108.488 107.955 109.245 108.766 110.048 109.462C110.8 110.149 111.67 110.695 112.616 111.074C113.464 111.429 114.396 111.531 115.3 111.367C116.077 111.174 116.795 110.793 117.391 110.259C117.899 109.817 118.432 109.404 118.987 109.022C119.417 108.741 119.894 108.54 120.395 108.427C120.715 108.36 121.044 108.36 121.363 108.427C121.485 108.439 121.604 108.469 121.716 108.519Z" fill="#FAFAFA"/>
<path d="M121.267 118.622C121.267 118.649 120.987 118.649 120.51 118.759C119.835 118.941 119.193 119.227 118.607 119.607C117.85 120.065 117.029 120.733 116.029 121.375C114.936 122.074 113.71 122.542 112.428 122.749C111.15 122.947 109.845 122.909 108.58 122.639C107.547 122.42 106.555 122.04 105.64 121.512C105.291 121.31 104.954 121.089 104.631 120.848C104.356 120.614 104.122 120.422 103.938 120.248C103.749 120.073 103.576 119.881 103.42 119.675C104.118 120.324 104.887 120.891 105.713 121.365C106.621 121.861 107.599 122.217 108.612 122.423C109.854 122.677 111.131 122.706 112.383 122.51C113.632 122.308 114.829 121.862 115.905 121.196C116.891 120.573 117.74 119.914 118.51 119.469C119.115 119.093 119.781 118.823 120.478 118.672C120.68 118.639 120.884 118.622 121.088 118.622C121.147 118.612 121.208 118.612 121.267 118.622Z" fill="#FAFAFA"/>
<path d="M124.757 97.0685C125.025 96.9282 125.318 96.8455 125.62 96.8258C126.342 96.7333 127.077 96.7925 127.775 96.9998C128.474 97.2044 129.121 97.554 129.674 98.0257C129.915 98.2071 130.114 98.4364 130.261 98.699C130.017 98.5342 129.785 98.3537 129.564 98.1586C129.001 97.7484 128.371 97.4386 127.702 97.2426C127.029 97.0468 126.328 96.9677 125.629 97.009C125.34 97.0468 125.049 97.0667 124.757 97.0685Z" fill="#FAFAFA"/>
<path d="M109.718 128.79C110.371 128.695 111.014 128.542 111.639 128.332C112.31 128.079 112.959 127.773 113.58 127.416L115.873 126.074C116.645 125.623 117.463 125.257 118.313 124.979C119.013 124.768 119.738 124.65 120.469 124.626C120.961 124.613 121.454 124.644 121.941 124.718C122.12 124.738 122.296 124.781 122.464 124.846C121.803 124.792 121.14 124.776 120.478 124.796C119.764 124.844 119.059 124.976 118.377 125.19C117.547 125.475 116.747 125.84 115.988 126.28C115.171 126.738 114.41 127.196 113.694 127.608C113.059 127.966 112.393 128.265 111.704 128.501C111.437 128.589 111.166 128.663 110.892 128.721C110.649 128.762 110.433 128.794 110.263 128.813C110.081 128.824 109.898 128.816 109.718 128.79Z" fill="#FAFAFA"/>
<path d="M150.388 75.7166V74.6861C150.387 74.5543 150.345 74.4261 150.268 74.3194C150.19 74.2126 150.081 74.1327 149.956 74.0907L148.021 73.4266C147.944 73.525 147.893 73.6412 147.873 73.7645C147.853 73.8878 147.864 74.0142 147.906 74.1319C148.08 74.4525 149.259 74.7502 149.259 74.7502L149.117 76.3669L150.388 75.7166Z" fill="#B78876"/>
<path d="M93.3294 111.134C93.3294 111.134 89.6601 117.834 92.2882 120.381C94.765 122.785 103.512 118.672 103.512 118.672L102.64 113.25L98.2601 114.811L99.2692 112.677L93.3294 111.134Z" fill="#B78876"/>
<path d="M117.818 74.4342C123.826 75.5517 120.79 83.2782 122.088 85.8201C122.569 86.7361 123.436 87.5055 124.111 88.3528C124.785 89.2001 125.276 90.2764 124.863 91.2382C124.51 92.0718 123.514 92.7588 123.666 93.6381C123.825 94.1012 124.085 94.5234 124.427 94.8747C124.761 95.3574 124.972 95.9141 125.043 96.4966C125.113 97.0791 125.04 97.67 124.831 98.2181C124.372 99.3589 123.597 100.346 122.597 101.062C119.666 103.352 115.153 104.021 111.474 102.748C110.387 102.372 109.277 101.832 108.117 101.992C107.427 102.157 106.756 102.39 106.112 102.688C103.512 103.604 100.292 102.29 99.0949 100.142C97.8977 97.9937 98.5582 95.3007 100.342 93.4641C101.618 92.145 103.516 91.0138 103.645 89.3146C103.773 87.6154 102.058 85.962 102.838 84.4232C103.342 83.4293 104.736 82.9163 105.236 81.9179C105.736 80.9195 105.145 79.7058 105.113 78.5745C105.067 77.0494 106.103 75.6525 107.268 74.4891C108.731 73.0235 110.612 71.6908 112.864 71.4572C115.116 71.2236 117.671 72.5152 117.818 74.4342Z" fill="#263238"/>
<path d="M114.621 103.554C115.072 103.521 115.518 103.431 115.946 103.284C116.443 103.097 116.898 102.816 117.285 102.455C117.792 101.974 118.157 101.365 118.34 100.691C118.567 99.8744 118.52 99.0061 118.207 98.2181C118.056 97.7876 117.859 97.3525 117.675 96.8899C117.467 96.414 117.341 95.9059 117.304 95.3877C117.278 94.8242 117.452 94.2696 117.795 93.8213C118.147 93.3777 118.559 92.9847 119.019 92.6534C119.479 92.3208 119.899 91.9367 120.271 91.5084C120.461 91.3003 120.606 91.0556 120.698 90.7894C120.789 90.5232 120.825 90.241 120.803 89.9604C120.698 89.3969 120.436 88.8746 120.047 88.4536C119.68 87.9956 119.281 87.5834 118.95 87.107C118.606 86.6405 118.399 86.0867 118.354 85.5086C118.333 84.961 118.407 84.4139 118.574 83.8919C118.882 82.8843 119.276 81.982 119.492 81.0843C119.716 80.2646 119.8 79.4129 119.739 78.5653C119.7 77.953 119.532 77.3558 119.246 76.8129C118.96 76.2699 118.562 75.7933 118.079 75.4143C117.708 75.1546 117.296 74.9609 116.859 74.8418H116.946C117.034 74.8521 117.122 74.8689 117.207 74.8922C117.537 74.9919 117.847 75.1468 118.125 75.3502C118.634 75.7263 119.056 76.2072 119.363 76.7603C119.67 77.3133 119.855 77.9258 119.904 78.5562C119.976 79.4237 119.9 80.297 119.68 81.1393C119.478 82.0553 119.079 82.9713 118.79 83.956C118.634 84.4535 118.564 84.9739 118.583 85.4949C118.629 86.0323 118.825 86.5463 119.148 86.9788C119.464 87.4368 119.863 87.849 120.235 88.307C120.653 88.7635 120.935 89.3286 121.047 89.9375C121.071 90.2496 121.031 90.5633 120.931 90.86C120.831 91.1566 120.672 91.4301 120.464 91.6641C120.078 92.105 119.643 92.5 119.166 92.8412C118.721 93.1586 118.323 93.5362 117.983 93.9633C117.668 94.3685 117.506 94.8709 117.524 95.3831C117.57 96.3953 118.106 97.2746 118.395 98.1586C118.712 98.9851 118.749 99.8922 118.501 100.742C118.308 101.446 117.918 102.082 117.377 102.574C116.978 102.936 116.51 103.215 116.001 103.394C115.678 103.502 115.342 103.567 115.001 103.586C114.913 103.593 114.824 103.593 114.735 103.586C114.666 103.563 114.621 103.558 114.621 103.554Z" fill="#455A64"/>
<path d="M105.443 81.066C105.401 80.8363 105.381 80.6032 105.383 80.3698C105.362 79.7334 105.391 79.0964 105.47 78.4646C105.577 77.5139 105.89 76.598 106.388 75.7807C107.039 74.8024 107.925 74.0025 108.965 73.454C111.167 72.2678 113.644 72.2953 115.107 73.0281C115.704 73.2932 116.202 73.7406 116.529 74.3059C116.615 74.4589 116.677 74.6242 116.712 74.796C116.74 74.9105 116.749 74.9746 116.74 74.9746C116.731 74.9746 116.676 74.7319 116.446 74.3517C116.106 73.8281 115.615 73.4194 115.038 73.1792C113.616 72.5106 111.213 72.5151 109.075 73.6647C108.069 74.1917 107.208 74.9596 106.571 75.8998C106.076 76.6861 105.753 77.5679 105.622 78.4875C105.528 79.1108 105.476 79.7396 105.466 80.3698C105.476 80.6021 105.468 80.8349 105.443 81.066Z" fill="#455A64"/>
<path d="M115.607 76.1242C115.219 76.036 114.816 76.036 114.428 76.1242C113.914 76.2882 113.447 76.5712 113.063 76.9501C112.68 77.3289 112.392 77.793 112.222 78.3043C111.986 79.0137 111.863 79.7553 111.855 80.5027C111.823 81.3133 111.855 82.1835 111.832 83.1087C111.825 84.0887 111.587 85.0533 111.14 85.9254C110.64 86.8414 109.676 87.4185 109.305 88.3665C109.145 88.843 109.129 89.3558 109.259 89.8413C109.369 90.3314 109.543 90.8077 109.69 91.2886C109.85 91.7669 109.929 92.2683 109.924 92.7725C109.891 93.2537 109.755 93.7221 109.525 94.1465C109.079 94.8966 108.576 95.6116 108.021 96.2854C107.549 96.8617 107.221 97.5413 107.062 98.2685C106.967 98.8743 107.043 99.4944 107.282 100.059C107.459 100.493 107.679 100.909 107.938 101.3C108.144 101.626 108.319 101.868 108.438 102.038C108.501 102.12 108.558 102.208 108.608 102.299C108.527 102.231 108.456 102.152 108.397 102.065C108.268 101.905 108.08 101.671 107.86 101.351C107.582 100.964 107.349 100.548 107.163 100.11C106.896 99.527 106.802 98.88 106.892 98.2456C107.046 97.4873 107.378 96.7762 107.86 96.1709C108.399 95.498 108.889 94.7878 109.328 94.0457C109.542 93.6434 109.667 93.1998 109.695 92.745C109.698 92.2683 109.621 91.7944 109.465 91.3435C109.323 90.8855 109.14 90.3909 109.007 89.8779C108.866 89.3465 108.887 88.7854 109.066 88.2658C109.287 87.7755 109.598 87.3311 109.984 86.9559C110.334 86.6072 110.642 86.2182 110.901 85.7972C111.336 84.9569 111.568 84.0269 111.58 83.0812C111.63 82.1652 111.58 81.3042 111.626 80.4844C111.641 79.7168 111.777 78.9564 112.029 78.231C112.213 77.7015 112.522 77.2242 112.93 76.8397C113.338 76.4553 113.833 76.1753 114.373 76.0234C114.673 75.9496 114.986 75.9403 115.29 75.996C115.367 76.0094 115.442 76.0294 115.515 76.0555C115.584 76.1105 115.607 76.1196 115.607 76.1242Z" fill="#455A64"/>
<path d="M98.1591 161.294L98.1133 162.178L108.42 165.086L108.759 162.269L98.1591 161.294Z" fill="#AA6550"/>
<path d="M117.029 163.19L117.332 164.569L128.225 166.387L127.872 164.028L117.029 163.19Z" fill="#AA6550"/>
</svg>
