<svg width="27" height="27" viewBox="0 0 27 27" fill="none" xmlns="http://www.w3.org/2000/svg">
<path d="M26.1536 2.58151H10.326C9.85931 2.58151 9.47961 2.96121 9.47961 3.42791V6.89813C9.47961 7.36483 9.85931 7.74452 10.326 7.74452H26.1536C26.6203 7.74452 27 7.36483 27 6.89813V3.42791C27 2.96121 26.6203 2.58151 26.1536 2.58151Z" fill="#333333"/>
<path d="M5.50157 2.58151H0.846395C0.379693 2.58151 0 2.96121 0 3.42791V6.89813C0 7.36483 0.379693 7.74452 0.846395 7.74452H5.50157C5.96827 7.74452 6.34796 7.36483 6.34796 6.89813V3.42791C6.34796 2.96121 5.96827 2.58151 5.50157 2.58151Z" fill="#333333"/>
<path d="M5.50157 10.9608H0.846395C0.379693 10.9608 0 11.3405 0 11.8072V15.2774C0 15.7441 0.379693 16.1238 0.846395 16.1238H5.50157C5.96827 16.1238 6.34796 15.7441 6.34796 15.2774V11.8072C6.34796 11.3405 5.96827 10.9608 5.50157 10.9608Z" fill="#333333"/>
<path d="M26.1536 10.9608H10.326C9.85931 10.9608 9.47961 11.3405 9.47961 11.8072V15.2774C9.47961 15.7441 9.85931 16.1238 10.326 16.1238H26.1536C26.6203 16.1238 27 15.7441 27 15.2774V11.8072C27 11.3405 26.6203 10.9608 26.1536 10.9608Z" fill="#333333"/>
<path d="M5.50157 19.2555H0.846395C0.379693 19.2555 0 19.6352 0 20.1019V23.5721C0 24.0388 0.379693 24.4185 0.846395 24.4185H5.50157C5.96827 24.4185 6.34796 24.0388 6.34796 23.5721V20.1019C6.34796 19.6352 5.96827 19.2555 5.50157 19.2555Z" fill="#333333"/>
<path d="M26.1536 19.2555H10.326C9.85931 19.2555 9.47961 19.6352 9.47961 20.1019V23.5721C9.47961 24.0388 9.85931 24.4185 10.326 24.4185H26.1536C26.6203 24.4185 27 24.0388 27 23.5721V20.1019C27 19.6352 26.6203 19.2555 26.1536 19.2555Z" fill="#333333"/>
</svg>
