<svg width="24" height="24" viewBox="0 0 24 24" fill="none" xmlns="http://www.w3.org/2000/svg">
<g clip-path="url(#clip0_114_404)">
<path d="M23.5785 9.43388L20.5755 6.98643V3.07229C20.5755 2.63152 20.2169 2.27287 19.7761 2.27287H17.8866C17.4458 2.27287 17.0872 2.63152 17.0872 3.07229V4.14328L13.0746 0.873026C12.7844 0.636545 12.4018 0.506241 11.9975 0.506241C11.5947 0.506241 11.214 0.635746 10.9253 0.870991L0.421514 9.4338C-0.0557363 9.82268 -0.0271028 10.1614 0.0324172 10.3287C0.0917918 10.4956 0.282997 10.7757 0.896075 10.7757H2.33437V22.0363C2.33437 22.84 2.9864 23.4937 3.78784 23.4937H8.32997C9.12466 23.4937 9.74711 22.8535 9.74711 22.0363V17.4186C9.74711 17.0228 10.1108 16.6624 10.5102 16.6624H13.5625C13.9432 16.6624 14.2529 17.0016 14.2529 17.4186V22.0363C14.2529 22.8263 14.9352 23.4937 15.7427 23.4937H20.2122C21.0136 23.4937 21.6656 22.8399 21.6656 22.0363V10.7757H23.1039C23.717 10.7757 23.9081 10.4956 23.9676 10.3287C24.0271 10.1614 24.0557 9.82268 23.5785 9.43388Z" fill="black"/>
</g>
<defs>
<clipPath id="clip0_114_404">
<rect width="24" height="24" fill="white"/>
</clipPath>
</defs>
</svg>
