<svg width="24" height="24" viewBox="0 0 24 24" fill="none" xmlns="http://www.w3.org/2000/svg">
<g clip-path="url(#clip0_114_421)">
<path d="M23.8895 9.10748L21.4972 6.67488C21.4242 6.60066 21.3247 6.55977 21.2171 6.55977C21.095 6.55977 20.9703 6.61368 20.8747 6.70765L12.0667 15.3696C11.9764 15.4584 11.8844 15.5969 11.8436 15.7048L10.3981 19.4614C10.3511 19.5856 10.3686 19.7256 10.4448 19.836C10.5224 19.9482 10.6488 20.0152 10.7832 20.0152C10.8296 20.0152 10.8753 20.0072 10.921 19.9909L14.6976 18.6095C14.8079 18.5701 14.9481 18.4803 15.0384 18.3914L23.8464 9.72944C23.9431 9.63431 23.999 9.50914 24 9.38576C24.0008 9.27948 23.9614 9.18055 23.8895 9.10748Z" fill="#333333"/>
<path d="M16.7301 19.4278C16.5566 19.4278 16.343 19.6774 16.336 19.6859C16.0655 19.9516 15.7007 20.1805 15.3352 20.314L11.5385 21.7235C11.2506 21.8269 11.0036 21.877 10.7828 21.877C10.0627 21.877 9.37809 21.5087 8.95154 20.8918C8.53454 20.2886 8.44026 19.5188 8.69932 18.8325L10.1481 15.0614C10.2841 14.7061 10.5196 14.3476 10.7941 14.0777L16.3768 8.58627C16.8121 8.14186 16.7978 7.66908 16.7295 7.48122C16.5693 7.04087 16.3079 6.64883 16.0123 6.40551L10.1736 1.60796C9.68739 1.20779 8.86461 0.917389 8.21718 0.917389H1.48955C0.668191 0.917453 0 1.57326 0 2.37934C0.000128982 2.57287 0.010383 21.7324 0.010383 21.8328C0.010383 22.5648 0.522893 23.076 1.2568 23.076C1.72184 23.076 15.4803 23.0826 15.4803 23.0826C16.2854 23.0826 16.9404 22.4167 16.9404 21.5982V19.8563C16.9404 19.5719 16.8697 19.4278 16.7301 19.4278ZM9.13702 2.83103L15.5694 7.88248H10.1425C9.18552 7.88248 9.13702 7.06138 9.13702 6.89674V2.83103ZM2.62343 9.8817H10.2334C10.7676 9.8817 11.2007 10.3148 11.2007 10.8491C11.2007 11.3833 10.7676 11.8164 10.2334 11.8164H2.62343C2.08919 11.8164 1.65606 11.3833 1.65606 10.8491C1.65606 10.3148 2.08919 9.8817 2.62343 9.8817ZM6.81534 21.5546H2.62343C2.08919 21.5546 1.65606 21.1214 1.65606 20.5872C1.65606 20.053 2.08919 19.6198 2.62343 19.6198H6.81534C7.34959 19.6198 7.78271 20.053 7.78271 20.5872C7.78271 21.1214 7.34959 21.5546 6.81534 21.5546ZM6.81534 16.6533H2.62343C2.08919 16.6533 1.65606 16.2201 1.65606 15.6859C1.65606 15.1516 2.08919 14.7185 2.62343 14.7185H6.81534C7.34959 14.7185 7.78271 15.1516 7.78271 15.6859C7.78271 16.2201 7.34959 16.6533 6.81534 16.6533ZM10.7828 21.9415C10.7814 21.9415 10.7801 21.9414 10.7787 21.9414C10.7802 21.9414 10.7817 21.9415 10.7832 21.9415C10.783 21.9415 10.783 21.9415 10.7828 21.9415Z" fill="#333333"/>
</g>
<defs>
<clipPath id="clip0_114_421">
<rect width="24" height="24" fill="white"/>
</clipPath>
</defs>
</svg>
