<svg width="26" height="26" viewBox="0 0 26 26" fill="none" xmlns="http://www.w3.org/2000/svg">
<g clip-path="url(#clip0_337_403)">
<path d="M14.0177 6.31262C11.2101 4.4302 7.40707 5.18043 5.52466 7.98807C3.64224 10.7957 4.39247 14.5987 7.2001 16.4811C9.6873 18.1487 12.9554 17.7476 14.9765 15.6832L18.5453 18.3768C19.1525 18.837 20.0211 18.6894 20.4446 18.0577L20.506 17.9662C20.9295 17.3344 20.7361 16.4749 20.0799 16.088L16.2328 13.8095C17.3771 11.1527 16.5049 7.9802 14.0177 6.31262ZM13.9476 13.6353C12.7117 15.4786 10.2137 15.9714 8.37048 14.7355C6.5272 13.4997 6.03443 11.0017 7.27027 9.15844C8.50612 7.31517 11.0041 6.82239 12.8474 8.05824C14.6937 9.29613 15.1834 11.792 13.9476 13.6353Z" fill="#333333" fill-opacity="0.09"/>
</g>
<defs>
<clipPath id="clip0_337_403">
<rect width="18" height="18" fill="white" transform="translate(0.512695 15.4634) rotate(-56.1596)"/>
</clipPath>
</defs>
</svg>
