<svg width="32" height="32" viewBox="0 0 32 32" fill="none" xmlns="http://www.w3.org/2000/svg">
<g clip-path="url(#clip0_114_440)">
<path d="M13.1068 19.6934C13.498 19.5415 13.6997 19.1409 13.5864 18.736C13.4411 18.2242 13.2356 17.726 12.9757 17.255C12.8434 17.0155 12.569 16.8666 12.2592 16.8666C12.1392 16.8666 12.0201 16.8897 11.915 16.9333L11.9052 16.9376C11.7831 16.9919 11.6514 17.0194 11.5135 17.0194C11.2389 17.0194 10.969 16.9065 10.7733 16.7101C10.4684 16.4033 10.3875 15.9309 10.5721 15.5343C10.7461 15.1596 10.6001 14.7089 10.2411 14.5089C9.78111 14.2502 9.28921 14.0431 8.77897 13.8937C8.70641 13.8724 8.63148 13.8617 8.55613 13.8617C8.22233 13.8617 7.92227 14.0733 7.80927 14.3888C7.67088 14.7773 7.24177 15.0817 6.82828 15.0817C6.38906 15.0804 5.99588 14.7991 5.85027 14.3829C5.73965 14.0644 5.43891 13.8504 5.10189 13.8504C5.02823 13.8504 4.95483 13.8607 4.88474 13.8808C4.62528 13.9544 4.36684 14.0445 4.11665 14.1482C3.87894 14.2467 3.64403 14.3597 3.41839 14.484C3.05733 14.6827 2.90831 15.1323 3.0795 15.5086C3.26122 15.9058 3.17711 16.3772 2.87068 16.6814C2.68751 16.8629 2.40537 16.9713 2.11584 16.9713C1.96317 16.9714 1.81688 16.9406 1.69106 16.8815C1.5852 16.8323 1.47255 16.8074 1.35633 16.8074C1.07207 16.8074 0.807597 16.9611 0.66453 17.2111C0.402185 17.6773 0.193107 18.1746 0.0432442 18.6888C-0.0743354 19.091 0.142558 19.5166 0.537435 19.6579C0.953891 19.8064 1.23255 20.2008 1.23059 20.6398C1.22906 21.0511 0.972072 21.4342 0.590363 21.5947L0.52826 21.6185C0.13916 21.7521 -0.0841903 22.1815 0.0294813 22.5828C0.174587 23.0949 0.380181 23.5933 0.640402 24.0642C0.773444 24.3051 1.04777 24.4547 1.35633 24.4547C1.47365 24.4547 1.59004 24.4321 1.69284 24.3894C1.82673 24.334 1.96683 24.3058 2.10896 24.3058C2.38761 24.3058 2.64835 24.4136 2.84239 24.609C3.14712 24.9165 3.22809 25.389 3.04424 25.7842C2.86932 26.1586 3.01502 26.6098 3.37549 26.8113C3.84139 27.0724 4.33396 27.279 4.8392 27.4254C4.91099 27.4463 4.98516 27.4568 5.05975 27.4568C5.39473 27.4568 5.69514 27.2447 5.80736 26.9291C5.94525 26.5408 6.37589 26.2367 6.7881 26.2367C7.22732 26.239 7.62033 26.5206 7.76561 26.9363C7.87614 27.2549 8.17688 27.469 8.51407 27.469C8.58739 27.469 8.66062 27.4588 8.73182 27.4385C9.24198 27.293 9.73515 27.09 10.1975 26.8352C10.5585 26.6365 10.7076 26.187 10.5368 25.8113C10.3552 25.4133 10.4394 24.9412 10.7457 24.637C10.9284 24.456 11.2108 24.3479 11.5011 24.3479C11.6536 24.3479 11.7994 24.3786 11.9235 24.437C12.0297 24.4867 12.1429 24.512 12.2598 24.512C12.2598 24.512 12.2598 24.512 12.2599 24.512C12.5454 24.512 12.8103 24.3576 12.9517 24.108C13.2154 23.639 13.4244 23.1417 13.5728 22.6303C13.69 22.2287 13.4733 21.8034 13.0788 21.6618C12.6627 21.5132 12.3842 21.1184 12.386 20.6794C12.3879 20.2627 12.6706 19.8763 13.1068 19.6934ZM9.6016 20.63C9.6016 22.1613 8.35588 23.407 6.82455 23.407C5.29321 23.407 4.04749 22.1612 4.04749 20.63C4.04749 19.0989 5.29321 17.853 6.82455 17.853C8.35588 17.853 9.6016 19.0988 9.6016 20.63Z" fill="#333333"/>
<path d="M31.9422 12.7332C31.8863 12.2324 31.3798 11.9224 30.9427 11.9224L30.9319 11.9224C30.3338 11.9382 29.7612 11.5549 29.5245 10.9799C29.2842 10.3939 29.4395 9.70967 29.9111 9.27716C30.2619 8.95509 30.3056 8.4106 30.0114 8.03909C29.5845 7.49494 29.0932 6.99778 28.5514 6.56153C28.3895 6.4312 28.186 6.35941 27.9785 6.35941C27.7209 6.35941 27.4738 6.46892 27.3 6.66058C27.0257 6.96371 26.5778 7.15206 26.1307 7.15206C25.9342 7.15214 25.7505 7.1168 25.5845 7.04714C24.9912 6.79889 24.617 6.19834 24.6536 5.55394C24.6825 5.06978 24.3277 4.64746 23.8473 4.59258C23.1674 4.51272 22.4604 4.51034 21.7708 4.58663C21.2986 4.63888 20.9412 5.05211 20.9573 5.52829C20.9802 6.1669 20.6021 6.75718 20.0168 6.99693C19.8535 7.06362 19.6729 7.09743 19.4803 7.09743C19.0342 7.09752 18.5863 6.91002 18.3104 6.60715C18.1372 6.41854 17.8912 6.31031 17.6356 6.31031C17.4336 6.31031 17.2339 6.37853 17.0711 6.50443C16.5198 6.93686 16.0174 7.43352 15.5783 7.98038C15.2755 8.35691 15.3186 8.90598 15.6767 9.23068C16.1565 9.66498 16.3119 10.3547 16.0632 10.9472C15.8302 11.5034 15.2667 11.8778 14.6597 11.88L14.5665 11.8775C14.0819 11.845 13.665 12.2039 13.6084 12.6842C13.5271 13.3766 13.5257 14.0826 13.6043 14.7827C13.6606 15.2835 14.161 15.5936 14.5922 15.5936C15.2261 15.5936 15.7872 15.9635 16.0217 16.5356C16.2612 17.1224 16.1061 17.8067 15.6361 18.2378C15.2845 18.5592 15.2403 19.1041 15.5352 19.4782C15.9678 20.0274 16.4599 20.5244 16.9976 20.9549C17.1587 21.0842 17.3616 21.1554 17.5688 21.1554C17.8273 21.1554 18.0748 21.0457 18.2479 20.8542C18.5208 20.5517 18.9687 20.3639 19.4167 20.3639C19.6137 20.3639 19.798 20.399 19.9631 20.4679C20.5559 20.7175 20.9293 21.3184 20.8926 21.9622C20.864 22.4453 21.2185 22.8675 21.6998 22.9236C22.0519 22.9644 22.4096 22.985 22.7629 22.985C23.1001 22.985 23.4409 22.9662 23.7759 22.929C24.2482 22.8768 24.6055 22.4637 24.5893 21.9882C24.567 21.3488 24.9456 20.758 25.5308 20.5182C25.6928 20.4521 25.8725 20.4185 26.0649 20.4185C26.5127 20.4185 26.961 20.6057 27.2352 20.9074C27.408 21.097 27.6545 21.2058 27.9112 21.2058C28.1143 21.2058 28.3143 21.137 28.4756 21.0112C29.0297 20.5765 29.5321 20.0797 29.9684 19.5352C30.2705 19.1594 30.2276 18.6108 29.8701 18.2855C29.3907 17.8515 29.2358 17.1614 29.4844 16.5684C29.7208 16.0054 30.3162 15.641 31.0022 15.6391C31.0104 15.6393 31.0186 15.6394 31.0267 15.6394H31.0268C31.4983 15.6394 31.8816 15.3002 31.9382 14.8313C32.0192 14.1398 32.0206 13.434 31.9422 12.7332ZM25.5734 13.7486C25.5734 15.2798 24.3277 16.5256 22.7963 16.5256C21.265 16.5256 20.0193 15.2798 20.0193 13.7486C20.0193 12.2173 21.265 10.9715 22.7963 10.9715C24.3277 10.9715 25.5734 12.2173 25.5734 13.7486Z" fill="#333333"/>
</g>
<defs>
<clipPath id="clip0_114_440">
<rect width="32" height="32" fill="white"/>
</clipPath>
</defs>
</svg>
