<svg width="22" height="22" viewBox="0 0 22 22" fill="none" xmlns="http://www.w3.org/2000/svg">
<path d="M19.5351 6.32949C18.4992 4.73023 17.0432 3.45609 15.3245 2.64458C15.2152 2.59297 15.1142 2.56787 15.0158 2.56787C14.8826 2.56787 14.4481 2.62422 14.4481 3.34859V4.54934C14.4481 5.15804 14.8187 5.43641 14.9324 5.50723C17.1386 6.88251 18.4557 9.24931 18.4557 11.8384C18.4557 15.9495 15.111 19.2941 10.9999 19.2941C6.88883 19.2941 3.54426 15.9495 3.54426 11.8384C3.54426 9.20878 4.89329 6.82271 7.153 5.45562C7.45572 5.2725 7.61564 4.95327 7.61564 4.53243V3.31477C7.61564 2.77636 7.27219 2.58532 6.97813 2.58532C6.86218 2.58532 6.73852 2.61387 6.63015 2.66569C4.92346 3.48193 3.47844 4.75601 2.45134 6.35026C1.3961 7.98815 0.838348 9.88587 0.838348 11.8384C0.838348 17.4415 5.39686 22 11 22C16.6031 22 21.1616 17.4415 21.1616 11.8384C21.1616 9.87714 20.5992 7.97218 19.5351 6.32949Z" fill="white"/>
<path d="M10.3216 7.91479H11.7422C12.1152 7.91479 12.4187 7.61132 12.4187 7.23831V0.676478C12.4187 0.303468 12.1152 0 11.7422 0H10.3216C9.94861 0 9.64514 0.303468 9.64514 0.676478V7.23831C9.64514 7.61132 9.94854 7.91479 10.3216 7.91479Z" fill="white"/>
</svg>
