<?xml version="1.0" encoding="UTF-8"?>
<!DOCTYPE svg PUBLIC "-//W3C//DTD SVG 1.1//EN" "http://www.w3.org/Graphics/SVG/1.1/DTD/svg11.dtd">
<!-- Creator: CorelDRAW 2021.5 -->
<svg xmlns="http://www.w3.org/2000/svg" xml:space="preserve" width="2.76241in" height="2.76511in" version="1.1" style="shape-rendering:geometricPrecision; text-rendering:geometricPrecision; image-rendering:optimizeQuality; fill-rule:evenodd; clip-rule:evenodd"
viewBox="0 0 2285.78 2288"
 xmlns:xlink="http://www.w3.org/1999/xlink"
 xmlns:xodm="http://www.corel.com/coreldraw/odm/2003">
 <defs>
  <style type="text/css">
   <![CDATA[
    .fil0 {fill:#FEFEFE}
   ]]>
  </style>
 </defs>
 <g id="Layer_x0020_1">
  <metadata id="CorelCorpID_0Corel-Layer"/>
  <path class="fil0" d="M1120.06 69.51c36.6,-8.76 71.71,8.51 106.09,20.49 33.42,11.65 65.88,23.45 98.14,36.45 101.12,40.75 217.57,103.78 307.43,166.41 101.38,70.65 233.69,194.84 307.45,296.42 131.66,181.34 195.35,313.59 270.4,538.22 17.18,51.44 7.46,55.29 -7.36,104.96 -89.17,298.81 -212.98,585.59 -350.39,862.34 -11.43,23.02 -8.78,28.69 -33.02,36.35 -17.31,5.47 -34.05,9.11 -51.77,13.54 -405.86,101.43 -785.53,106.47 -1191.52,-1.16 -61,-16.17 -53.95,-6.14 -83.49,-51.32 -190.2,-290.94 -334.89,-545.53 -421.76,-925.07 -9.85,-43.06 6.64,-63.84 23.64,-100.98 46.93,-102.52 75.48,-168.49 134.84,-269.25 17.61,-29.89 33.58,-56.18 50.75,-84.05 115.53,-187.47 276.69,-361.03 461.25,-481.72 109.63,-71.69 231.6,-126.28 379.32,-161.63zm-1120.06 1065.37c0,28.3 16.29,90.5 23.78,115.58l31.96 112.04c19.89,72.71 83.35,231.23 119.28,303.45 8.58,17.24 13.99,29.72 22.01,47.67l48.97 95.04c75.1,129.31 100.22,179.56 186.91,314.79 9.57,14.93 17.75,26.96 28.21,41.47 17.68,24.54 12.48,20.8 44.61,29.72 298.93,82.94 640.68,117.69 958.98,75.13 102.8,-13.75 301.93,-46.66 398.99,-79.48 22.64,-7.66 21.78,-17.95 31.63,-38.05 14.83,-30.27 29.15,-58.35 44.89,-89.82l44.86 -94.51c73.05,-145.21 186.09,-436.42 236.01,-586.22 11.09,-33.27 22.83,-65.31 32.91,-101.81 39.58,-143.29 45.03,-71.39 0.09,-215.75 -57.18,-183.7 -207.91,-463.57 -339.1,-594.62 -46,-45.95 -76.67,-90.19 -145.09,-142.93 -13.56,-10.45 -26.41,-21.81 -40.74,-33.59 -48.19,-39.6 -157.29,-113.15 -214.71,-142.99 -80.04,-41.6 -163.44,-83.15 -250.34,-112 -135.79,-45.08 -94.93,-49.82 -216.27,-15.38 -42.27,12 -68.53,22.71 -106.79,37.21 -71.99,27.28 -132.23,58.45 -192.93,95.08 -84.69,51.1 -99.27,67.88 -167.45,120.56 -119.13,92.06 -250.7,255.81 -336.33,383.71 -58.3,87.09 -109.19,182.18 -156.08,275.95 -11.46,22.93 -88.26,183.35 -88.26,199.75z"/>
  <path class="fil0" d="M458.09 1401.03c73.52,3.28 357.56,-11.34 399.59,14.28 41.55,25.33 27.67,121.71 27.67,179.46l0.35 239.39 237.96 210.81c6.13,-171.78 0.97,-427.41 0.93,-608.13 -0.02,-111.56 -81.55,-219.76 -173.77,-258.61 -62.65,-26.39 -342.65,-18.86 -421.25,-20.17 -69.44,-1.15 -225.52,-11.3 -285.24,-1.99 8.06,7.39 14.28,17.62 22.63,27.83l138.58 153.99c13.58,16.69 43.3,47.58 52.55,63.14z"/>
  <path class="fil0" d="M1158.42 2044.28c22.6,-12.44 43.9,-37.32 62.82,-55.09 8.4,-7.89 14.08,-11.27 22.56,-19.45l126.52 -114.92c23.31,-24.25 27.39,-11.64 27.06,-55.39l0.26 -330.26c3.85,-54.17 39.39,-66.38 93.43,-67.36 110.58,-2.01 222.34,0.69 333.13,-0.17 16.99,-23.1 33.21,-38.49 53.12,-61.7 18.96,-22.11 32.81,-38.57 53.63,-62.55l107.1 -122.3c-133.68,-6.89 -294.47,3.23 -430.81,4.97 -166.25,2.13 -271.8,-19.03 -365.44,83.16 -97.4,106.28 -83.55,184.69 -83.55,356.2 0,147.8 -2.19,297.27 0.19,444.87z"/>
  <path class="fil0" d="M1365.27 767.59c24.1,31.37 60.89,47.11 70.59,102.68 8.34,47.82 -13.23,104.56 -32.8,134.64 -65.07,99.99 -197.27,30.01 -255.79,28.65 -66.94,-1.55 -190.53,71.06 -261.05,-23.1 -19.52,-26.07 -42.9,-84.99 -37.84,-131.25 6.68,-61.22 52.52,-84.87 63.9,-105.52 -149.1,-37.06 -235.03,-106.05 -271.22,-117.98 -30.84,28.84 -155.84,228.26 -171.76,285.67 82.68,89.89 265.51,146.42 404.03,179.94 55.92,13.53 43.54,13.86 85.78,-12.09 118.35,-72.71 244.72,-68.47 362.86,-0.2 44.27,25.58 26.2,25.97 86.99,12.92 93.51,-20.08 180.16,-49.01 264.16,-88.43 26.14,-12.27 50.64,-25.62 75.15,-41.08l74.82 -45.76c-10.48,-49.89 -150.73,-267.35 -183.26,-291.73 -88.78,32.83 -121.48,72.27 -274.55,112.65z"/>
  <path class="fil0" d="M941.97 753.33c40.61,-10.25 80.7,-50.48 98.7,-82.85 19.01,-34.2 42.55,-100.32 37.7,-146.97 -80.6,-0.95 -175,-51.11 -232.91,-79.88 -40.12,18.26 -147.64,138.54 -178.78,180.26 26.11,29.35 149.59,88.87 198.78,105.57 20.92,7.1 59.87,15.96 76.51,23.88z"/>
  <path class="fil0" d="M1205.79 524.81c4.56,103.16 53.75,201.16 127.88,223.56 14.92,-9.38 117.83,-38.73 147.61,-50.73 49.94,-20.13 92.71,-43.17 139.22,-65.43 -19.78,-39.94 -141.47,-155.01 -180.43,-184.48 -57.49,16.16 -105.82,63.89 -234.28,77.09z"/>
  <path class="fil0" d="M1082.28 489.7c-2.17,-31.21 -30.87,-16.25 -42.18,-81.48 61.69,0.74 74.06,-23.15 102.67,-52.63 28.46,29.32 41.7,53.48 103.15,52.78 -6.07,33.22 -20.18,56.59 -42.48,66.47l0.08 16.31c114.89,-12.96 132.58,-40.12 205.69,-64.75l-4.55 -7.05c-3.7,-4.71 -1.09,-2.5 -7.22,-8.54 -6.51,-6.4 -9.67,-7.52 -15.78,-11.85 -12.31,-8.73 -19.5,-14.84 -32.04,-23.71 -19.03,-13.46 -44.69,-33.19 -65.63,-45.77 -18.56,-11.16 -122.82,-77.42 -138.12,-79.71 -31.05,-4.65 -233.1,135.96 -267.8,163.98 23.97,32.24 150.48,67.46 204.23,75.94z"/>
  <path class="fil0" d="M949.7 1151.03c98.95,20.83 161.31,103.02 188.33,202.95 18.21,-21.1 17.72,-53.93 70.87,-125.05 30.01,-40.16 64.76,-53.68 118.05,-80.76 -41.25,-32.59 -116.35,-65.45 -184.16,-65.97 -53.57,-0.41 -170.13,35.79 -193.1,68.83z"/>
 </g>
</svg>
