<?xml version="1.0" encoding="UTF-8"?>
<!DOCTYPE svg PUBLIC "-//W3C//DTD SVG 1.1//EN" "http://www.w3.org/Graphics/SVG/1.1/DTD/svg11.dtd">
<!-- Creator: CorelDRAW 2021.5 -->
<svg xmlns="http://www.w3.org/2000/svg" xml:space="preserve" width="12.8526in" height="2.76511in" version="1.1" style="shape-rendering:geometricPrecision; text-rendering:geometricPrecision; image-rendering:optimizeQuality; fill-rule:evenodd; clip-rule:evenodd"
viewBox="0 0 22640.4 4870.84"
 xmlns:xlink="http://www.w3.org/1999/xlink"
 xmlns:xodm="http://www.corel.com/coreldraw/odm/2003">
 <defs>
  <style type="text/css">
   <![CDATA[
    .fil0 {fill:#FEFEFE}
    .fil1 {fill:#FEFEFE;fill-rule:nonzero}
   ]]>
  </style>
 </defs>
 <g id="Layer_x0020_1">
  <metadata id="CorelCorpID_0Corel-Layer"/>
  <g id="_2817425670896">
   <path class="fil0" d="M2384.46 147.98c77.92,-18.65 152.65,18.11 225.86,43.62 71.14,24.79 140.25,49.91 208.94,77.59 215.27,86.75 463.17,220.93 654.47,354.26 215.82,150.41 497.5,414.79 654.52,631.05 280.28,386.05 415.88,667.58 575.63,1145.8 36.58,109.51 15.88,117.7 -15.67,223.44 -189.82,636.12 -453.4,1246.65 -745.92,1835.79 -24.34,49.01 -18.69,61.08 -70.3,77.38 -36.86,11.65 -72.48,19.38 -110.22,28.82 -864.02,215.92 -1672.29,226.66 -2536.59,-2.46 -129.86,-34.43 -114.86,-13.08 -177.74,-109.25 -404.91,-619.36 -712.94,-1161.36 -897.87,-1969.34 -20.98,-91.68 14.14,-135.91 50.33,-214.98 99.9,-218.24 160.68,-358.7 287.05,-573.19 37.49,-63.63 71.49,-119.6 108.05,-178.93 245.96,-399.11 589.03,-768.58 981.93,-1025.51 233.4,-152.62 493.04,-268.84 807.53,-344.1zm-2384.46 2268.02c0,60.25 34.67,192.65 50.62,246.05l68.05 238.52c42.33,154.78 177.44,492.25 253.93,646.01 18.26,36.7 29.77,63.27 46.85,101.48l104.24 202.33c159.87,275.29 213.35,382.25 397.91,670.14 20.37,31.78 37.8,57.39 60.06,88.28 37.64,52.24 26.57,44.29 94.96,63.26 636.39,176.56 1363.91,250.55 2041.54,159.93 218.85,-29.27 642.77,-99.33 849.39,-169.21 48.2,-16.3 46.38,-38.21 67.34,-81 31.57,-64.45 62.06,-124.21 95.56,-191.22l95.49 -201.2c155.51,-309.13 396.16,-929.07 502.43,-1247.99 23.6,-70.84 48.59,-139.03 70.06,-216.73 84.26,-305.04 95.87,-151.98 0.2,-459.3 -121.73,-391.08 -442.61,-986.88 -721.9,-1265.87 -97.93,-97.83 -163.21,-192 -308.87,-304.27 -28.86,-22.25 -56.22,-46.42 -86.73,-71.5 -102.59,-84.3 -334.84,-240.88 -457.08,-304.41 -170.4,-88.56 -347.95,-177.02 -532.94,-238.43 -289.08,-95.97 -202.09,-106.07 -460.41,-32.73 -89.99,25.54 -145.89,48.35 -227.35,79.22 -153.25,58.08 -281.49,124.43 -410.73,202.41 -180.29,108.79 -211.34,144.5 -356.48,256.66 -253.62,195.97 -533.7,544.58 -716,816.86 -124.12,185.4 -232.46,387.84 -332.27,587.45 -24.4,48.82 -187.9,390.33 -187.9,425.25z"/>
   <path class="fil0" d="M975.22 2982.59c156.51,6.98 761.19,-24.14 850.66,30.4 88.45,53.93 58.91,259.11 58.91,382.05l0.75 509.62 506.59 448.78c13.06,-365.69 2.06,-909.9 1.99,-1294.63 -0.04,-237.5 -173.62,-467.83 -369.94,-550.54 -133.36,-56.18 -729.46,-40.15 -896.79,-42.94 -147.82,-2.45 -480.1,-24.07 -607.23,-4.23 17.15,15.74 30.4,37.51 48.17,59.24l295.01 327.83c28.91,35.54 92.18,101.28 111.88,134.41z"/>
   <path class="fil0" d="M2466.12 4351.99c48.11,-26.49 93.47,-79.46 133.73,-117.29 17.87,-16.8 29.97,-24 48.03,-41.42l269.34 -244.64c49.61,-51.63 58.31,-24.77 57.6,-117.91l0.55 -703.07c8.2,-115.31 83.85,-141.32 198.9,-143.41 235.41,-4.28 473.33,1.46 709.18,-0.36 36.17,-49.18 70.7,-81.95 113.09,-131.36 40.37,-47.06 69.86,-82.11 114.17,-133.17l228 -260.36c-284.59,-14.66 -626.89,6.87 -917.14,10.59 -353.92,4.54 -578.62,-40.51 -777.98,177.03 -207.35,226.26 -177.87,393.18 -177.87,758.31 0,314.65 -4.67,632.85 0.41,947.06z"/>
   <path class="fil0" d="M2906.47 1634.08c51.31,66.79 129.63,100.3 150.29,218.6 17.76,101.8 -28.16,222.59 -69.83,286.64 -138.52,212.86 -419.95,63.89 -544.54,61 -142.5,-3.31 -405.6,151.28 -555.73,-49.18 -41.56,-55.5 -91.32,-180.93 -80.57,-279.42 14.22,-130.32 111.82,-180.68 136.04,-224.64 -317.42,-78.89 -500.34,-225.78 -577.39,-251.17 -65.66,61.39 -331.77,485.94 -365.65,608.15 176.02,191.37 565.23,311.72 860.12,383.07 119.05,28.81 92.68,29.51 182.6,-25.74 251.96,-154.79 520.97,-145.77 772.48,-0.43 94.24,54.46 55.77,55.29 185.18,27.5 199.07,-42.75 383.53,-104.33 562.35,-188.26 55.65,-26.12 107.81,-54.53 159.97,-87.45l159.29 -97.43c-22.31,-106.2 -320.88,-569.14 -390.13,-621.06 -189,69.89 -258.61,153.85 -584.48,239.81z"/>
   <path class="fil0" d="M2005.32 1603.73c86.45,-21.83 171.81,-107.47 210.12,-176.38 40.47,-72.8 90.57,-213.57 80.26,-312.87 -171.58,-2.03 -372.55,-108.8 -495.82,-170.06 -85.41,38.86 -314.3,294.93 -380.6,383.74 55.59,62.47 318.46,189.19 423.16,224.73 44.54,15.12 127.45,33.97 162.89,50.83z"/>
   <path class="fil0" d="M2566.96 1117.25c9.72,219.62 114.42,428.24 272.25,475.92 31.76,-19.97 250.85,-82.45 314.25,-108 106.32,-42.85 197.36,-91.9 296.38,-139.29 -42.1,-85.03 -301.17,-329.99 -384.11,-392.74 -122.38,34.41 -225.28,136.01 -498.76,164.11z"/>
   <path class="fil0" d="M2304.02 1042.5c-4.61,-66.43 -65.72,-34.59 -89.8,-173.45 131.33,1.57 157.66,-49.29 218.58,-112.04 60.59,62.41 88.76,113.86 219.59,112.36 -12.91,70.71 -42.96,120.46 -90.44,141.51l0.17 34.72c244.58,-27.6 282.25,-85.41 437.88,-137.84l-9.7 -15.01c-7.88,-10.02 -2.32,-5.33 -15.38,-18.17 -13.86,-13.63 -20.58,-16.01 -33.59,-25.23 -26.2,-18.58 -41.51,-31.59 -68.21,-50.47 -40.52,-28.66 -95.14,-70.66 -139.71,-97.45 -39.52,-23.75 -261.46,-164.82 -294.04,-169.7 -66.11,-9.9 -496.24,289.45 -570.11,349.09 51.03,68.64 320.36,143.61 434.77,161.67z"/>
   <path class="fil0" d="M2021.78 2450.39c210.66,44.34 343.42,219.3 400.94,432.06 38.77,-44.91 37.71,-114.81 150.88,-266.21 63.89,-85.49 137.87,-114.27 251.32,-171.92 -87.81,-69.38 -247.7,-139.33 -392.05,-140.45 -114.05,-0.88 -362.19,76.18 -411.08,146.53z"/>
  </g>
  <path class="fil1" d="M5555.84 3445.01l0 -1719.92 827.03 0c195.17,0 346.02,50.01 452.55,150.04 106.53,100.02 159.79,237.86 159.79,413.51 0,175.65 -53.26,313.49 -159.79,413.51 -106.53,100.03 -257.38,150.04 -452.55,150.04l-378.14 0 0 592.83 -448.89 0zm448.89 -936.81l300.07 0c175.65,0 263.48,-73.19 263.48,-219.57 0,-146.37 -87.83,-219.56 -263.48,-219.56l-300.07 0 0 439.13zm1200.29 936.81l0 -1719.92 329.35 0 790.43 985.6 0 -985.6 414.73 0 0 1719.92 -326.9 0 -790.44 -985.6 0 985.6 -417.17 0zm1849.22 0l0 -1719.92 829.47 0c185.41,0 328.94,40.25 430.59,120.76 101.65,80.51 152.47,188.26 152.47,323.25 0,89.46 -22.36,167.52 -67.08,234.2 -44.73,66.68 -106.94,116.29 -186.63,148.82 95.96,29.28 169.96,78.48 222,147.6 52.05,69.12 78.07,154.91 78.07,257.38 0,151.25 -54.08,270.39 -162.23,357.4 -108.15,87.02 -255.75,130.52 -442.78,130.52l-853.87 0zm429.37 -1036.83l319.59 0c81.32,0 141.1,-14.64 179.32,-43.91 38.22,-29.27 57.33,-74 57.33,-134.18 0,-60.18 -19.11,-104.5 -57.33,-132.96 -38.22,-28.46 -97.99,-42.69 -179.32,-42.69l-319.59 0 0 353.74zm0 707.49l363.5 0c82.95,0 143.53,-15.86 181.75,-47.58 38.22,-31.71 57.33,-79.28 57.33,-142.71 0,-63.44 -19.11,-110.6 -57.33,-141.5 -38.22,-30.9 -98.8,-46.35 -181.75,-46.35l-363.5 0 0 378.14zm1327.15 329.35l0 -1719.92 712.37 0c185.41,0 328.53,44.32 429.37,132.95 100.84,88.64 151.25,212.65 151.25,372.05 0,128.48 -34.15,233.79 -102.46,315.93 -68.31,82.13 -165.08,137.03 -290.31,164.68 78.07,26.02 143.94,88.64 197.61,187.85l297.63 546.47 -278.12 0 -297.63 -548.91c-34.16,-63.43 -73.6,-106.12 -118.32,-128.08 -44.73,-21.96 -102.06,-32.94 -171.99,-32.94l-275.67 0 0 709.93 -253.72 0zm253.72 -900.22l417.17 0c250.46,0 375.69,-103.28 375.69,-309.83 0,-204.93 -125.23,-307.39 -375.69,-307.39l-417.17 0 0 617.22zm1900.45 922.17c-195.17,0 -348.87,-54.89 -461.09,-164.68 -112.23,-109.78 -168.34,-259.81 -168.34,-450.11 0,-121.98 24.81,-229.73 74.41,-323.24 49.61,-93.52 118.32,-166.31 206.15,-218.35 87.83,-52.04 188.66,-78.07 302.51,-78.07 164.27,0 293.57,52.45 387.9,157.36 94.33,104.9 141.49,249.24 141.49,433.03l0 82.94 -873.38 0c17.89,247.22 148.82,370.82 392.77,370.82 68.31,0 135.4,-10.58 201.27,-31.71 65.86,-21.15 128.08,-56.11 186.63,-104.91l73.19 170.78c-53.67,48.79 -122.79,87.01 -207.36,114.66 -84.57,27.65 -169.96,41.47 -256.16,41.47zm-36.6 -1061.23c-102.46,0 -183.78,31.71 -243.96,95.14 -60.18,63.43 -96.77,148 -109.78,253.72l666.01 0c-4.88,-110.6 -34.16,-196.39 -87.83,-257.38 -53.67,-61 -128.49,-91.49 -224.44,-91.49zm788 1478.4l0 -1629.66 241.52 0 0 202.49c34.16,-68.3 86.2,-122.79 156.14,-163.45 69.93,-40.66 150.44,-61 241.52,-61 105.72,0 198.01,25.21 276.89,75.63 78.88,50.42 139.87,121.57 182.97,213.47 43.1,91.89 64.65,201.27 64.65,328.13 0,126.86 -21.55,236.64 -64.65,329.35 -43.1,92.7 -104.09,163.86 -182.97,213.47 -78.88,49.61 -171.17,74.41 -276.89,74.41 -87.83,0 -166.3,-19.11 -235.42,-57.33 -69.12,-38.22 -121.57,-90.67 -157.35,-157.35l0 631.86 -246.4 0zm578.19 -607.46c102.46,0 184.19,-36.6 245.18,-109.78 60.99,-73.19 91.48,-178.91 91.48,-317.15 0,-138.25 -30.49,-243.56 -91.48,-315.93 -60.99,-72.38 -142.72,-108.56 -245.18,-108.56 -102.47,0 -184.19,36.19 -245.18,108.56 -61,72.38 -91.49,177.69 -91.49,315.93 0,138.24 30.49,243.96 91.49,317.15 60.99,73.19 142.71,109.78 245.18,109.78zm1380.81 190.29c-120.35,0 -224.44,-25.21 -312.26,-75.63 -87.83,-50.42 -155.73,-121.57 -203.71,-213.47 -47.98,-91.89 -71.97,-201.27 -71.97,-328.12 0,-126.87 24,-236.24 71.97,-328.13 47.98,-91.89 115.88,-163.05 203.71,-213.47 87.82,-50.42 191.91,-75.63 312.26,-75.63 117.11,0 219.57,25.21 307.4,75.63 87.83,50.42 156.13,121.57 204.93,213.47 48.79,91.89 73.19,201.27 73.19,328.13 0,126.86 -24.4,236.23 -73.19,328.12 -48.8,91.89 -117.1,163.05 -204.93,213.47 -87.83,50.42 -190.29,75.63 -307.4,75.63zm0 -190.29c100.84,0 182.16,-36.6 243.97,-109.78 61.8,-73.19 92.7,-178.91 92.7,-317.15 0,-138.25 -30.9,-243.56 -92.7,-315.93 -61.81,-72.38 -143.13,-108.56 -243.97,-108.56 -102.46,0 -184.59,36.19 -246.39,108.56 -61.81,72.38 -92.71,177.69 -92.71,315.93 0,138.24 30.9,243.96 92.71,317.15 61.8,73.19 143.93,109.78 246.39,109.78zm1278.36 190.29c-97.59,0 -188.66,-12.61 -273.24,-37.82 -84.57,-25.2 -155.32,-60.58 -212.24,-106.12l70.75 -165.89c60.18,42.28 126.45,74.82 198.83,97.59 72.38,22.77 145.15,34.16 218.35,34.16 86.2,0 151.25,-15.45 195.16,-46.35 43.91,-30.9 65.87,-72.38 65.87,-124.42 0,-42.29 -14.63,-75.23 -43.91,-98.81 -29.27,-23.59 -73.19,-41.88 -131.73,-54.89l-231.77 -46.35c-204.93,-42.28 -307.39,-148 -307.39,-317.15 0,-112.23 44.73,-201.68 134.18,-268.36 89.46,-66.68 206.56,-100.03 351.31,-100.03 82.94,0 162.23,12.2 237.86,36.6 75.63,24.4 138.66,60.99 189.07,109.78l-70.75 165.89c-48.79,-42.28 -104.9,-74.82 -168.33,-97.59 -63.43,-22.77 -126.05,-34.16 -187.85,-34.16 -84.57,0 -148.82,15.86 -192.73,47.58 -43.91,31.71 -65.87,74.41 -65.87,128.08 0,81.32 53.67,133.36 161.01,156.13l231.76 46.35c105.72,21.15 185.81,56.92 240.3,107.34 54.48,50.42 81.72,118.73 81.72,204.93 0,113.85 -44.73,202.9 -134.18,267.14 -89.46,64.24 -208.18,96.36 -356.18,96.36zm741.64 -1488.16l0 -256.16 287.87 0 0 256.16 -287.87 0zm21.96 1466.2l0 -1190.53 246.4 0 0 1190.53 -246.4 0zm1100.26 21.96c-149.63,0 -261.03,-38.22 -334.22,-114.66 -73.19,-76.45 -109.78,-187.04 -109.78,-331.79l0 -575.75 -231.76 0 0 -190.29 231.76 0 0 -358.62 246.4 0 0 358.62 368.38 0 0 190.29 -368.38 0 0 556.23c0,86.2 18.3,151.26 54.89,195.17 36.59,43.91 96.36,65.87 179.31,65.87 26.02,0 51.23,-2.84 75.63,-8.54 24.4,-5.69 48.79,-12.61 73.19,-20.74l39.03 185.41c-24.39,14.63 -58.14,26.42 -101.24,35.37 -43.1,8.95 -84.17,13.42 -123.2,13.42zm888.02 0c-120.35,0 -224.44,-25.21 -312.26,-75.63 -87.83,-50.42 -155.73,-121.57 -203.71,-213.47 -47.98,-91.89 -71.97,-201.27 -71.97,-328.12 0,-126.87 24,-236.24 71.97,-328.13 47.98,-91.89 115.88,-163.05 203.71,-213.47 87.82,-50.42 191.91,-75.63 312.26,-75.63 117.11,0 219.57,25.21 307.4,75.63 87.83,50.42 156.13,121.57 204.93,213.47 48.79,91.89 73.19,201.27 73.19,328.13 0,126.86 -24.4,236.23 -73.19,328.12 -48.8,91.89 -117.1,163.05 -204.93,213.47 -87.83,50.42 -190.29,75.63 -307.4,75.63zm0 -190.29c100.84,0 182.16,-36.6 243.97,-109.78 61.8,-73.19 92.7,-178.91 92.7,-317.15 0,-138.25 -30.9,-243.56 -92.7,-315.93 -61.81,-72.38 -143.13,-108.56 -243.97,-108.56 -102.46,0 -184.59,36.19 -246.39,108.56 -61.81,72.38 -92.71,177.69 -92.71,315.93 0,138.24 30.9,243.96 92.71,317.15 61.8,73.19 143.93,109.78 246.39,109.78zm861.18 168.33l0 -1190.53 239.08 0 0 212.24c61.81,-141.49 190.29,-220.37 385.46,-236.64l80.51 -4.88 17.07 209.8 -148.82 14.64c-216.31,21.15 -324.46,132.55 -324.46,334.23l0 661.13 -248.84 0zm1105.14 439.13l212.25 -470.84 -497.68 -1158.82 263.47 0 365.94 905.1 370.82 -905.1 253.72 0 -709.93 1629.66 -258.6 0z"/>
 </g>
</svg>
