<?xml version="1.0" encoding="UTF-8" standalone="no"?> <svg id="_1_-_10" data-name="1 - 10" xmlns="http://www.w3.org/2000/svg" viewBox="0 0 48 48"><defs><style>.cls-1{fill:#eaeff0;}.cls-2{fill:#d9e1e2;}.cls-3{fill:#b8c0c1;}.cls-4{fill:#8fa5a5;}.cls-5{fill:#7b8c8c;}</style></defs><title>Paper</title><g id="Paper"><path class="cls-1" d="M40.414,11.414,31.586,2.586A2,2,0,0,0,30.172,2H12A5,5,0,0,0,7,7V41a5,5,0,0,0,5,5H36a5,5,0,0,0,5-5V12.828A2,2,0,0,0,40.414,11.414Z"/><path class="cls-2" d="M8.293,3.673A4.96,4.96,0,0,0,7,7V41a5,5,0,0,0,5,5H36a4.964,4.964,0,0,0,3.707-1.673Z"/><path class="cls-3" d="M40.414,11.414,31.586,2.586a1.988,1.988,0,0,0-.586-.4V9a3,3,0,0,0,3,3h6.814A1.988,1.988,0,0,0,40.414,11.414Z"/><path class="cls-4" d="M25,13H14a1,1,0,0,1,0-2H25a1,1,0,0,1,0,2Z"/><path class="cls-4" d="M35,18a1,1,0,0,0-1-1H17a1,1,0,0,0,0,2H34A1,1,0,0,0,35,18Z"/><path class="cls-4" d="M35,23a1,1,0,0,0-1-1H14a1,1,0,0,0,0,2H34A1,1,0,0,0,35,23Z"/><path class="cls-4" d="M35,28a1,1,0,0,0-1-1H14a1,1,0,0,0,0,2H34A1,1,0,0,0,35,28Z"/><path class="cls-4" d="M35,33a1,1,0,0,0-1-1H14a1,1,0,0,0,0,2H34A1,1,0,0,0,35,33Z"/><path class="cls-5" d="M14,29H27.864l-1.546-2H14a1,1,0,0,0,0,2Z"/><path class="cls-5" d="M13,23a1,1,0,0,0,1,1H24l-1.545-2H14A1,1,0,0,0,13,23Z"/><path class="cls-5" d="M30.182,32H14a1,1,0,0,0,0,2H31.727Z"/><path class="cls-5" d="M29,37H14a1,1,0,0,0,0,2H29a1,1,0,0,0,0-2Z"/><path class="cls-5" d="M13,12a1,1,0,0,0,1,1h1.5l-1.539-1.992A1,1,0,0,0,13,12Z"/><path class="cls-5" d="M16,18a1,1,0,0,0,1,1h3.136l-1.545-2H17A1,1,0,0,0,16,18Z"/></g></svg>