<?xml version="1.0" encoding="utf-8"?>
<!-- Generator: Adobe Illustrator 23.0.3, SVG Export Plug-In . SVG Version: 6.00 Build 0)  -->
<svg version="1.1" id="Layer_1" xmlns="http://www.w3.org/2000/svg" xmlns:xlink="http://www.w3.org/1999/xlink" x="0px" y="0px"
	 viewBox="0 0 512 512" style="enable-background:new 0 0 512 512;" xml:space="preserve">
<style type="text/css">
	.st0{fill:#E5DCDD;}
	.st1{fill:#005891;}
	.st2{opacity:6.000000e-02;}
	.st3{fill:#17292D;}
	.st4{fill:#BB0706;}
</style>
<title>pdf-flat</title>
<path class="st0" d="M460.8,153.6V448c0,35.3-28.7,64-64,64H115.2c-35.3,0-64-28.7-64-64V64c0-35.3,28.7-64,64-64h192.1l33.4,33.4
	L460.8,153.6z"/>
<path class="st1" d="M460.8,153.6h-89.6c-35.3,0-64-28.7-64-64V0h0.1L460.8,153.6z"/>
<g class="st2">
	<path class="st3" d="M371.2,153.6c-35.3,0-64-28.7-64-64v25.6c0,35.3,28.7,64,64,64l0,0h89.6v-25.6H371.2z"/>
</g>
<path class="st4" d="M345.5,363.6L345.5,363.6c-0.3-3.3-3.4-19.3-30.7-18.6c-19.3,0.5-28.1,1.5-31.5,2.1
	c-4.1-4.4-18.4-20.2-24.6-33.1c1.7-5.4,8.4-27.4,8.1-42.2c-0.3-13.4-2.8-28.6-19.3-28.6h-0.3c-4.8,0.1-8.6,1.6-11.3,4.6
	c-4.3,4.8-5.5,12.6-4.2,26.3c1.3,13,7,27.7,8.6,31.7c-1.3,4.1-6.4,19.5-12.7,34.7c-5.9,14.3-10.4,23.1-11.9,26
	c-5.2,1.9-26.1,9.8-36.2,19.4c-9.4,9-17.9,19.6-10,30.6c2.6,3.7,7.6,5.9,13.2,5.9h0.2c10.1,0,20.9-6.7,29.6-18.3
	c13.1-17.6,20.1-29.5,22.2-33.2c5-1.4,23.5-6.6,29.8-8.1c5.4-1.3,11.7-2.5,14.5-3c4.9,4.8,24.4,22,43.8,21.4
	c9-0.3,15.5-2.7,19.3-7.1C344.6,371.2,345.9,367.4,345.5,363.6z M246.6,254.3c1.1,0,3.7,0,3.8,9.8c0.1,6.5-2.5,17.2-4.5,24.4
	c-2.2-6.7-3.4-13.7-3.5-20.8C242.4,257.9,245,254.3,246.6,254.3z M242.4,357.3l2.3-5.3c3.3-7.6,6.6-16.8,8.7-22.8
	c4.7,7.4,9.9,14.4,15.5,21.1c-3.1,0.6-7.5,1.6-13.6,3C250,354.7,245.7,356.1,242.4,357.3L242.4,357.3z M183,408.9
	c-1.3,0.5-2.7,0.3-3.9-0.4l0,0c-1.1-0.7-1.2-1.2-1-2.1c1.4-6.5,17.2-17.4,27.1-22.6C199.5,393.5,190.3,406.8,183,408.9z
	 M325.6,359.4c0.9,0.7,1.4,1.7,1.4,2.8c0,2.4-0.9,3.9-2.8,4.7c-5.8,2.4-18.6-1.3-29.5-9.6C306,355.8,320.8,355.4,325.6,359.4
	L325.6,359.4z"/>
</svg>
