<?xml version="1.0" encoding="iso-8859-1"?>
<!-- Generator: Adobe Illustrator 16.0.0, SVG Export Plug-In . SVG Version: 6.00 Build 0)  -->
<!DOCTYPE svg PUBLIC "-//W3C//DTD SVG 1.1//EN" "http://www.w3.org/Graphics/SVG/1.1/DTD/svg11.dtd">
<svg version="1.1" xmlns="http://www.w3.org/2000/svg" xmlns:xlink="http://www.w3.org/1999/xlink" x="0px" y="0px" width="512px"
	 height="512px" viewBox="0 0 512 512" style="enable-background:new 0 0 512 512;" xml:space="preserve">
<g id="_x35_68_x2C__education_x2C__gear_x2C__setting_x2C__book">
	<g>
		<g>
			<path style="fill:#D7DEED;" d="M55.14,430.14c11.05,0,20,8.95,20,20s-8.95,20-20,20s-20-8.95-20-20S44.09,430.14,55.14,430.14z"
				/>
			<path style="fill:#D7DEED;" d="M460.14,40.14c13.81,0,25,11.19,25,25c0,13.811-11.19,25-25,25s-25-11.189-25-25
				C435.14,51.33,446.33,40.14,460.14,40.14z"/>
			<path style="fill:#AFB9D2;" d="M330.06,303.689v0.09c-26.91,6.9-33.57-9.02-77.439,4.61l-0.021-0.08V204.93
				c43.89-13.64,50.55,6.9,77.46,0V303.689z"/>
			<path style="fill:#D7DEED;" d="M252.6,308.399c-43.899-13.64-50.55,2.28-77.46-4.62v-0.09v-98.76c26.91,6.9,33.561-13.64,77.46,0
				v103.38l0.021,0.08C252.609,308.399,252.609,308.399,252.6,308.399z"/>
			<path style="fill:#232B3F;" d="M475.14,233.07v46.109c0,9.37-7.21,17.17-16.56,17.91l-33.851,2.649
				c-4.21,16.601-10.71,32.221-19.229,46.54l22.01,25.841c6.07,7.13,5.649,17.72-0.97,24.34l-32.58,32.58
				c-6.62,6.619-17.221,7.04-24.351,0.97l-25.84-22c-14.31,8.52-29.939,15.02-46.54,19.229l-2.649,33.851
				c-0.73,9.34-8.53,16.55-17.91,16.55h-46.1c-9.37,0-17.16-7.19-17.91-16.52l-2.71-33.881c-16.511-4.21-32.141-10.71-46.45-19.229
				l-25.84,22.01c-7.13,6.07-17.73,5.64-24.351-0.979l-32.58-32.58c-6.619-6.62-7.04-17.21-0.97-24.34l22.01-25.841
				c-8.52-14.31-15.109-29.939-19.319-46.54l-33.761-2.649c-9.35-0.74-16.56-8.53-16.56-17.91V233.07c0-9.36,7.19-17.15,16.53-17.9
				l33.79-2.72c4.21-16.5,10.8-32.13,19.319-46.45l-22.01-25.84c-6.07-7.13-5.649-17.721,0.97-24.34l32.58-32.58
				c6.62-6.62,17.221-7.04,24.351-0.971l25.84,22c14.31-8.52,29.939-15.1,46.45-19.319l2.71-33.79
				c0.75-9.33,8.54-16.521,17.899-16.521h46.12c9.37,0,17.17,7.21,17.9,16.55l2.649,33.761c16.601,4.22,32.23,10.8,46.54,19.319
				l25.84-22c7.13-6.08,17.73-5.649,24.351,0.971l32.58,32.58c6.619,6.619,7.04,17.21,0.97,24.34l-22,25.84
				c8.51,14.31,15.01,29.939,19.229,46.45l33.87,2.72C467.949,215.92,475.14,223.71,475.14,233.07z M372.55,256.1
				c0-66.97-54.65-121.7-121.7-121.7c-66.96,0-121.7,54.73-121.7,121.7c0,67.05,54.74,121.7,121.7,121.7
				C317.899,377.8,372.55,323.149,372.55,256.1z"/>
			<g>
				
					<rect x="451.001" y="414.281" transform="matrix(0.7071 -0.7071 0.7071 0.7071 -164.9882 450.2233)" style="fill:#EF727A;" width="19.997" height="19.998"/>
				
					<rect x="159.281" y="456.002" transform="matrix(-0.7071 -0.7071 0.7071 -0.7071 -40.5176 915.2179)" style="fill:#EF727A;" width="19.997" height="19.996"/>
				
					<rect x="99.281" y="36.002" transform="matrix(-0.7071 -0.7071 0.7071 -0.7071 154.0291 155.7979)" style="fill:#EF727A;" width="19.997" height="19.996"/>
				
					<rect x="31.002" y="154.282" transform="matrix(-0.7071 -0.7071 0.7071 -0.7071 -46.1723 309.4354)" style="fill:#EF727A;" width="19.996" height="19.996"/>
			</g>
			<g>
				<path style="fill:#747371;" d="M221.93,230.14h-21.62c-5.522,0-10,4.478-10,10c0,5.523,4.478,10,10,10h21.62
					c5.523,0,10-4.477,10-10C231.93,234.617,227.453,230.14,221.93,230.14z"/>
				<path style="fill:#747371;" d="M221.93,260.14h-21.62c-5.522,0-10,4.478-10,10s4.478,10,10,10h21.62c5.523,0,10-4.478,10-10
					S227.453,260.14,221.93,260.14z"/>
				<path style="fill:#747371;" d="M279.6,250.14h21.62c5.522,0,10-4.477,10-10c0-5.522-4.478-10-10-10H279.6
					c-5.522,0-10,4.478-10,10C269.6,245.663,274.077,250.14,279.6,250.14z"/>
				<path style="fill:#747371;" d="M301.22,260.14H279.6c-5.522,0-10,4.478-10,10s4.478,10,10,10h21.62c5.522,0,10-4.478,10-10
					S306.742,260.14,301.22,260.14z"/>
			</g>
		</g>
	</g>
</g>
<g id="Layer_1">
</g>
</svg>
